# Blender 4.3.2
# www.blender.org
mtllib button_04.mtl
o Cylinder.001
v -0.000000 0.124866 -0.033394
v -0.000000 0.107941 0.004745
v 0.072590 0.094798 -0.033394
v 0.060622 0.082830 0.004745
v 0.102657 0.022208 -0.033394
v 0.085732 0.022208 0.004745
v 0.072590 -0.050381 -0.033394
v 0.060622 -0.038413 0.004745
v -0.000000 -0.080449 -0.033394
v -0.000000 -0.063524 0.004745
v -0.072590 -0.050381 -0.033394
v -0.060622 -0.038413 0.004745
v -0.102657 0.022208 -0.033394
v -0.085732 0.022208 0.004745
v -0.072590 0.094798 -0.033394
v -0.060622 0.082830 0.004745
v 0.072590 0.094798 0.004745
v -0.000000 0.124866 0.004745
v 0.102657 0.022208 0.004745
v 0.072590 -0.050381 0.004745
v -0.000000 -0.080449 0.004745
v -0.072590 -0.050381 0.004745
v -0.102657 0.022208 0.004745
v -0.072590 0.094798 0.004745
v 0.060622 0.082830 0.029568
v -0.000000 0.107941 0.029568
v 0.085732 0.022208 0.029568
v 0.060622 -0.038413 0.029568
v -0.000000 -0.063524 0.029568
v -0.060622 -0.038413 0.029568
v -0.085732 0.022208 0.029568
v -0.060622 0.082830 0.029568
v 0.000000 0.022209 0.029568
v -0.000000 0.022209 -0.033394
v -0.102657 0.022208 -0.033394
v -0.072590 0.094798 -0.033394
v -0.000000 0.022209 -0.033394
vn 0.3827 0.9239 -0.0000
vn 0.9239 0.3827 -0.0000
vn 0.9239 -0.3827 -0.0000
vn 0.3827 -0.9239 -0.0000
vn -0.3827 -0.9239 -0.0000
vn -0.9239 -0.3827 -0.0000
vn -0.3827 0.9239 -0.0000
vn -0.9239 0.3827 -0.0000
vn -0.0000 -0.0000 -1.0000
vn -0.0000 -0.0000 1.0000
vt 0.004939 0.962031
vt 0.011989 0.918813
vt 0.013768 0.958101
vt 0.004683 0.914369
vt 0.039287 0.890153
vt 0.037393 0.881782
vt 0.078909 0.889189
vt 0.083463 0.881902
vt 0.107712 0.916477
vt 0.115936 0.914389
vt 0.108919 0.956228
vt 0.085986 0.991904
vt 0.081306 0.984832
vt 0.091579 0.925568
vt 0.100710 0.954739
vt 0.091110 0.951426
vt 0.040080 0.994194
vt 0.041707 0.985794
vt 0.100027 0.971369
vt 0.104446 0.969812
vt 0.102032 0.973777
vt 0.097244 0.974268
vt 0.060519 0.999733
vt 0.060519 0.989480
vt 0.112456 0.937543
vt 0.104494 0.981518
vt 0.104494 0.893568
vt 0.122709 0.937543
vt 0.060519 0.885606
vt 0.097244 0.900818
vt 0.016544 0.893568
vt 0.060519 0.875353
vt 0.023794 0.900818
vt -0.001670 0.937543
vt 0.023794 0.974268
vt 0.008583 0.937543
vt 0.016544 0.981518
vt 0.018511 0.955181
vt 0.060178 0.937085
vt 0.043511 0.979344
vt 0.047769 0.906483
vt 0.076940 0.897352
vt 0.073627 0.906952
vt 0.028684 0.950293
vt 0.019553 0.921122
vt 0.029153 0.924435
vt 0.072494 0.969378
vt 0.043324 0.978509
vt 0.046636 0.968909
vt 0.100710 0.921122
vt 0.043324 0.897352
vt 0.019553 0.954739
vt 0.076940 0.978509
vt 0.076845 0.894826
vt 0.042082 0.895418
vt 0.017919 0.920418
vt 0.101845 0.918989
vt 0.102437 0.953752
vt 0.078274 0.978752
vt 0.115936 0.958948
vt 0.105186 0.974337
vt 0.100027 0.968258
vt 0.108108 0.972658
vt 0.102032 0.965850
vt 0.105186 0.965290
vt 0.108275 0.967414
vt 0.162828 0.500000
vt 0.050437 0.050437
vt 0.275219 0.500000
s 0
f 18/1/1 3/2/1 1/3/1
f 17/4/2 5/5/2 3/2/2
f 19/6/3 7/7/3 5/5/3
f 20/8/4 9/9/4 7/7/4
f 21/10/5 11/11/5 9/9/5
f 11/11/6 23/12/6 13/13/6
f 16/14/7 26/15/7 2/16/7
f 13/13/8 24/17/8 15/18/8
f 15/18/7 18/1/7 1/3/7
f 5/19/9 34/20/9 3/21/9
f 4/22/10 18/23/10 2/24/10
f 6/25/10 17/26/10 4/22/10
f 6/25/10 20/27/10 19/28/10
f 10/29/10 20/27/10 8/30/10
f 10/29/10 22/31/10 21/32/10
f 12/33/10 23/34/10 22/31/10
f 16/35/10 23/34/10 14/36/10
f 16/35/10 18/23/10 24/37/10
f 26/38/10 33/39/10 25/40/10
f 12/41/6 31/42/6 14/43/6
f 8/44/4 29/45/4 10/46/4
f 4/47/2 27/48/2 6/49/2
f 14/43/8 32/50/8 16/14/8
f 10/46/5 30/51/5 12/41/5
f 6/49/3 28/52/3 8/44/3
f 2/16/1 25/53/1 4/47/1
f 30/54/10 33/39/10 31/55/10
f 32/56/10 33/39/10 26/38/10
f 31/55/10 33/39/10 32/56/10
f 29/57/10 33/39/10 30/54/10
f 28/58/10 33/39/10 29/57/10
f 27/59/10 33/39/10 28/58/10
f 25/40/10 33/39/10 27/59/10
f 18/1/1 17/4/1 3/2/1
f 17/4/2 19/6/2 5/5/2
f 19/6/3 20/8/3 7/7/3
f 20/8/4 21/10/4 9/9/4
f 21/10/5 22/60/5 11/11/5
f 11/11/6 22/60/6 23/12/6
f 16/14/7 32/50/7 26/15/7
f 13/13/8 23/12/8 24/17/8
f 15/18/7 24/17/7 18/1/7
f 4/22/10 17/26/10 18/23/10
f 6/25/10 19/28/10 17/26/10
f 6/25/10 8/30/10 20/27/10
f 10/29/10 21/32/10 20/27/10
f 10/29/10 12/33/10 22/31/10
f 12/33/10 14/36/10 23/34/10
f 16/35/10 24/37/10 23/34/10
f 16/35/10 2/24/10 18/23/10
f 12/41/6 30/51/6 31/42/6
f 8/44/4 28/52/4 29/45/4
f 4/47/2 25/53/2 27/48/2
f 14/43/8 31/42/8 32/50/8
f 10/46/5 29/45/5 30/51/5
f 6/49/3 27/48/3 28/52/3
f 2/16/1 26/15/1 25/53/1
f 3/21/9 34/20/9 1/61/9
f 7/62/9 34/20/9 5/19/9
f 1/61/9 34/20/9 15/63/9
f 9/64/9 34/20/9 7/62/9
f 11/65/9 34/20/9 9/64/9
f 13/66/9 34/20/9 11/65/9
f 15/67/10 34/68/10 37/68/10 36/67/10
f 36/63/9 37/20/9 35/66/9
f 34/68/10 13/69/10 35/69/10 37/68/10
f 13/69/10 15/67/10 36/67/10 35/69/10
