# Blender 4.3.2
# www.blender.org
mtllib dock_01.mtl
o Cylinder
v 12.981400 -0.655338 -9.025633
v 12.981400 -0.455338 -9.025633
v 1.747787 -0.655338 -9.025633
v 1.747787 -0.455338 -9.025633
v 12.981400 -0.655338 -11.485595
v 12.981400 -0.455338 -11.485595
v 1.747787 -0.655338 -11.485595
v 1.747787 -0.455338 -11.485595
vn -0.0000 -0.0000 1.0000
vn -1.0000 -0.0000 -0.0000
vn -0.0000 -0.0000 -1.0000
vn 1.0000 -0.0000 -0.0000
vn -0.0000 -1.0000 -0.0000
vn -0.0000 1.0000 -0.0000
vt 1.000000 0.589019
vt -0.000000 0.410981
vt 1.000000 0.410981
vt 0.430565 0.589019
vt 0.569434 0.410981
vt 0.430565 0.410981
vt -0.000000 0.589019
vt 0.569434 0.589019
vt -0.000000 0.569434
vt 1.000000 0.430565
vt -0.000000 0.430565
vt 1.000000 0.569434
s 0
f 2/1/1 3/2/1 1/3/1
f 4/4/2 7/5/2 3/6/2
f 8/7/3 5/3/3 7/2/3
f 6/8/4 1/6/4 5/5/4
f 7/9/5 1/10/5 3/11/5
f 4/11/6 6/12/6 8/9/6
f 2/1/1 4/7/1 3/2/1
f 4/4/2 8/8/2 7/5/2
f 8/7/3 6/1/3 5/3/3
f 6/8/4 2/4/4 1/6/4
f 7/9/5 5/12/5 1/10/5
f 4/11/6 2/10/6 6/12/6
