# Blender 4.3.2
# www.blender.org
mtllib fencecollision.mtl
o Cube.007
v -17.380669 -0.238784 47.978733
v -17.380669 3.694145 47.978733
v -17.380669 -0.238784 45.978733
v -17.380669 3.694145 45.978733
v -16.833910 -0.238784 47.978733
v -16.833910 3.694145 47.978733
v -16.833910 -0.238784 45.978733
v -16.833910 3.694145 45.978733
v -16.754065 3.694145 35.974594
v -16.754065 -0.238784 35.974594
v -16.242874 -0.238784 36.168571
v -16.242874 3.694145 36.168571
v -14.092815 3.694145 25.878185
v -14.092815 -0.238784 25.878185
v -13.581625 -0.238784 26.072163
v -13.581625 3.694145 26.072163
v -12.796452 3.694145 21.436981
v -12.796452 -0.238784 21.436981
v -12.251304 -0.238784 21.478905
v -12.251304 3.694145 21.478905
v -12.230228 3.694145 14.112694
v -12.230228 -0.238784 14.112694
v -11.684825 -0.238784 14.074242
v -11.684825 3.694145 14.074242
v -12.308750 3.694145 0.402139
v -12.308750 -0.238784 0.402139
v -11.763347 -0.238784 0.363686
v -11.763347 3.694145 0.363686
v -12.498524 3.677001 -4.764877
v -12.498524 -0.238784 -4.764877
v -11.955498 -0.221639 -4.803162
v -11.955498 3.694145 -4.803162
v -13.692430 3.694145 -17.308971
v -13.692430 -0.238784 -17.308971
v -13.147028 -0.238784 -17.347424
v -13.147028 3.694145 -17.347424
v -15.972736 3.694145 -34.516422
v -15.972736 -0.238784 -34.516422
v -15.427333 -0.238784 -34.554874
v -15.427333 3.694145 -34.554874
v -16.179319 3.694145 -42.768242
v -16.179319 -0.238784 -42.768242
v -15.633916 -0.238784 -42.806694
v -15.633916 3.694145 -42.806694
v -14.848010 3.694145 -47.909847
v -14.848010 -0.238784 -47.909847
v -14.302607 -0.238784 -47.948299
v -14.302607 3.694145 -47.948299
v -12.062478 3.694145 19.315056
v -11.873652 3.694145 16.238516
v -12.418970 3.694145 16.253052
v -12.607711 3.694145 19.296196
v -12.418970 -0.238784 16.253052
v -12.607711 -0.238784 19.296196
v -12.062478 -0.238784 19.315056
v -11.873652 -0.238784 16.238516
v -11.851863 -0.170359 -2.100011
v -11.851863 3.694145 -2.100011
v -12.387777 -0.238784 -2.062228
v -12.387777 3.625721 -2.062228
vn -1.0000 -0.0000 -0.0000
vn 0.9982 -0.0000 0.0601
vn 1.0000 -0.0000 -0.0000
vn -0.0000 -0.0000 1.0000
vn -0.0000 -1.0000 -0.0000
vn -0.0000 1.0000 -0.0000
vn 0.9670 -0.0000 0.2549
vn -0.9980 -0.0000 -0.0625
vn -0.9670 -0.0000 -0.2549
vn -0.9961 -0.0000 -0.0878
vn -0.9599 -0.0000 -0.2802
vn 0.9605 -0.0000 0.2782
vn 1.0000 -0.0000 -0.0057
vn 0.9962 -0.0000 0.0869
vn 0.0703 -0.0000 0.9975
vn -1.0000 -0.0000 0.0057
vn 0.0001 1.0000 0.0014
vn 0.9994 -0.0000 -0.0359
vn -0.0703 -0.0000 -0.9975
vn 0.9913 -0.0000 -0.1314
vn -0.9955 -0.0000 0.0947
vn 0.9955 -0.0000 -0.0946
vn 0.0314 -0.9995 -0.0016
vn -0.9913 -0.0000 0.1314
vn -0.9997 -0.0000 0.0250
vn 0.9997 -0.0000 -0.0250
vn -0.9681 -0.0000 -0.2507
vn 0.9681 -0.0000 0.2507
vn -0.0313 0.9995 0.0030
vn 0.1244 -0.9917 -0.0320
vn -0.0020 0.9996 -0.0277
vn -0.9995 -0.0000 0.0321
vn 0.9981 -0.0000 0.0613
vn -0.9981 -0.0000 -0.0619
vn -0.1263 0.9920 0.0045
vt 0.625000 0.000000
vt 0.375000 0.250000
vt 0.375000 0.000000
vt 0.375000 0.500000
vt 0.625000 0.500000
vt 0.375000 0.750000
vt 0.625000 0.750000
vt 0.375000 1.000000
vt 0.125000 0.750000
vt 0.125000 0.500000
vt 0.875000 0.500000
vt 0.625000 0.250000
vt 0.375000 0.500000
vt 0.625000 0.500000
vt 0.376090 0.500000
vt 0.625000 0.500000
vt 0.873910 0.500000
vt 0.379349 0.500000
vt 0.129349 0.500000
vt 0.620651 0.250000
vt 0.625000 0.500000
vt 0.623910 0.250000
vt 0.126090 0.500000
vt 0.625000 1.000000
vt 0.875000 0.750000
vt 0.870651 0.500000
s 0
f 2/1/1 3/2/1 1/3/1
f 7/4/2 12/5/2 8/5/2
f 8/5/3 5/6/3 7/4/3
f 6/7/4 1/8/4 5/6/4
f 7/4/5 1/9/5 3/10/5
f 4/11/6 6/7/6 8/5/6
f 11/4/7 16/5/7 12/5/7
f 3/10/5 11/4/5 7/4/5
f 4/11/6 12/5/6 9/11/6
f 4/12/8 10/2/8 3/2/8
f 16/5/6 17/11/6 13/11/6
f 10/10/5 15/4/5 11/4/5
f 9/11/6 16/5/6 13/11/6
f 9/12/9 14/2/9 10/2/9
f 21/12/10 53/2/10 51/12/10
f 13/12/11 18/2/11 14/2/11
f 15/4/12 20/5/12 16/5/12
f 15/4/5 18/10/5 19/4/5
f 23/4/13 28/5/13 24/5/13
f 56/13/5 22/10/5 23/4/5
f 50/14/6 21/11/6 51/11/6
f 55/4/14 20/5/14 19/4/14
f 31/15/15 32/16/15 29/17/15
f 23/4/5 26/10/5 27/4/5
f 24/5/6 25/11/6 21/11/6
f 21/12/16 26/2/16 22/2/16
f 29/17/17 36/5/17 33/11/17
f 57/18/18 28/5/18 27/4/18
f 57/18/19 59/19/19 60/20/19
f 57/18/19 60/20/19 58/21/19
f 35/4/20 40/5/20 36/5/20
f 29/22/21 34/2/21 30/2/21
f 31/15/22 36/5/22 32/16/22
f 30/23/23 35/4/23 31/15/23
f 39/4/5 42/10/5 43/4/5
f 34/10/5 39/4/5 35/4/5
f 33/11/6 40/5/6 37/11/6
f 33/12/24 38/2/24 34/2/24
f 44/5/6 45/11/6 41/11/6
f 40/5/6 41/11/6 37/11/6
f 37/12/25 42/2/25 38/2/25
f 39/4/26 44/5/26 40/5/26
f 45/12/19 47/4/19 46/2/19
f 41/12/27 46/2/27 42/2/27
f 43/4/28 48/5/28 44/5/28
f 43/4/5 46/10/5 47/4/5
f 2/1/1 4/12/1 3/2/1
f 7/4/2 11/4/2 12/5/2
f 8/5/3 6/7/3 5/6/3
f 6/7/4 2/24/4 1/8/4
f 7/4/5 5/6/5 1/9/5
f 4/11/6 2/25/6 6/7/6
f 11/4/7 15/4/7 16/5/7
f 3/10/5 10/10/5 11/4/5
f 4/11/6 8/5/6 12/5/6
f 4/12/8 9/12/8 10/2/8
f 16/5/6 20/5/6 17/11/6
f 10/10/5 14/10/5 15/4/5
f 9/11/6 12/5/6 16/5/6
f 9/12/9 13/12/9 14/2/9
f 56/13/5 53/10/5 22/10/5
f 13/12/11 17/12/11 18/2/11
f 15/4/12 19/4/12 20/5/12
f 15/4/5 14/10/5 18/10/5
f 23/4/13 27/4/13 28/5/13
f 20/5/6 52/11/6 17/11/6
f 19/4/5 54/10/5 55/4/5
f 21/12/10 22/2/10 53/2/10
f 57/18/18 58/21/18 28/5/18
f 23/4/5 22/10/5 26/10/5
f 24/5/6 28/5/6 25/11/6
f 21/12/16 25/12/16 26/2/16
f 29/17/29 32/16/29 36/5/29
f 27/4/30 59/19/30 57/18/30
f 28/5/31 60/26/31 25/11/31
f 60/20/32 26/2/32 25/12/32
f 35/4/20 39/4/20 40/5/20
f 29/22/21 33/12/21 34/2/21
f 31/15/22 35/4/22 36/5/22
f 30/23/5 34/10/5 35/4/5
f 39/4/5 38/10/5 42/10/5
f 34/10/5 38/10/5 39/4/5
f 33/11/6 36/5/6 40/5/6
f 33/12/24 37/12/24 38/2/24
f 44/5/6 48/5/6 45/11/6
f 40/5/6 44/5/6 41/11/6
f 37/12/25 41/12/25 42/2/25
f 39/4/26 43/4/26 44/5/26
f 45/12/19 48/5/19 47/4/19
f 41/12/27 45/12/27 46/2/27
f 43/4/28 47/4/28 48/5/28
f 43/4/5 42/10/5 46/10/5
f 23/4/14 50/14/14 56/13/14
f 55/4/5 53/10/5 56/13/5
f 52/12/10 18/2/10 17/12/10
f 49/5/6 51/12/6 52/12/6
f 50/14/6 24/5/6 21/11/6
f 55/4/14 49/5/14 20/5/14
f 20/5/6 49/5/6 52/11/6
f 19/4/5 18/10/5 54/10/5
f 23/4/14 24/5/14 50/14/14
f 55/4/33 50/14/33 49/5/33
f 52/12/10 54/2/10 18/2/10
f 52/12/34 53/2/34 54/2/34
f 55/4/5 54/2/5 53/10/5
f 49/5/6 50/14/6 51/12/6
f 55/4/33 56/13/33 50/14/33
f 52/12/34 51/12/34 53/2/34
f 31/15/15 29/17/15 30/23/15
f 27/4/5 26/10/5 59/19/5
f 28/5/35 58/21/35 60/26/35
f 60/20/32 59/2/32 26/2/32
