# Blender 4.3.2
# www.blender.org
mtllib gate.mtl
o Cube.008
v -0.022315 -0.534396 0.081443
v -0.022315 -0.423304 0.081443
v -0.022315 -0.534396 -2.006634
v -0.022315 -0.423304 -2.006634
v 0.025255 -0.534396 0.081443
v 0.025255 -0.423304 0.081443
v 0.025255 -0.534396 -2.006634
v 0.025255 -0.423304 -2.006634
v -0.022315 -0.534396 -1.895573
v -0.022315 -0.534396 -0.029618
v -0.022315 -0.423304 -0.029619
v -0.022315 -0.423304 -1.895573
v 0.025255 -0.534396 -0.029619
v 0.025255 -0.534396 -1.895573
v 0.025255 -0.423304 -1.895573
v 0.025255 -0.423304 -0.029618
v -0.022315 0.523137 -1.895573
v -0.022315 0.523137 -2.006634
v 0.025255 0.523137 -2.006634
v 0.025255 0.523137 -0.029618
v 0.025255 0.523137 0.081443
v -0.022315 0.523137 0.081443
v -0.022315 0.523137 -0.029619
v 0.025255 0.523137 -1.895573
v -0.022315 0.410821 -1.895573
v -0.022315 0.410821 -2.006634
v 0.025255 0.410821 -1.895573
v 0.025255 0.410821 -2.006634
v 0.025255 0.410822 0.081443
v -0.022315 0.410822 0.081443
v -0.022315 0.410822 -0.029619
v 0.025255 0.410822 -0.029618
v 0.006593 0.444746 -1.900807
v 0.049219 -0.319050 0.018121
v 0.006593 -0.319050 0.018121
v 0.049219 0.444746 -1.900807
v 0.006593 0.329242 -1.943313
v 0.049219 0.329242 -1.943312
v 0.006593 -0.434554 -0.024384
v 0.049219 -0.434554 -0.024384
v -0.048239 -0.370370 -1.926240
v -0.005613 0.493675 -0.047034
v -0.048239 0.493675 -0.047035
v -0.005613 -0.370370 -1.926240
v -0.048239 -0.483483 -1.878157
v -0.005613 -0.483483 -1.878157
v -0.048239 0.380562 0.001049
v -0.005613 0.380562 0.001049
vn -1.0000 -0.0000 -0.0000
vn -0.0000 -0.0000 -1.0000
vn 1.0000 -0.0000 -0.0000
vn -0.0000 -0.0000 1.0000
vn -0.0000 -1.0000 -0.0000
vn -0.0000 1.0000 -0.0000
vn -0.0000 0.9291 0.3698
vn -0.0000 -0.9291 -0.3698
vn -0.0000 -0.3454 0.9385
vn -0.0000 -0.3453 0.9385
vn -0.0000 0.3454 -0.9385
vn -0.0000 0.9086 -0.4178
vn -0.0000 -0.9086 0.4178
vn -0.0000 -0.9086 0.4177
vn -0.0000 0.3912 0.9203
vn -0.0000 -0.3912 -0.9203
vn -0.0000 0.3453 -0.9385
vt 0.625000 0.166667
vt 0.375000 0.250000
vt 0.375000 0.166667
vt 0.625000 0.250000
vt 0.375000 0.500000
vt 0.625000 0.666667
vt 0.375000 0.750000
vt 0.375000 0.666667
vt 0.625000 0.750000
vt 0.375000 1.000000
vt 0.125000 0.666667
vt 0.125000 0.750000
vt 0.625000 1.000000
vt 0.625000 0.583333
vt 0.875000 0.666667
vt 0.125000 0.500000
vt 0.375000 0.583333
vt 0.125000 0.583333
vt 0.625000 0.500000
vt 0.625000 0.000000
vt 0.375000 0.083333
vt 0.375000 0.000000
vt 0.625000 0.083333
vt 0.875000 0.750000
vt 0.875000 0.583333
vt 0.000000 0.000000
vt 0.875000 0.500000
s 1
f 12/1/1 3/2/1 9/3/1
f 4/4/2 7/5/2 3/2/2
f 16/6/3 5/7/3 13/8/3
f 6/9/4 1/10/4 5/7/4
f 10/11/5 5/7/5 1/12/5
f 29/9/4 22/13/4 30/13/4
f 25/1/1 18/4/1 26/4/1
f 15/14/6 11/15/6 16/6/6
f 3/16/5 14/17/5 9/18/5
f 9/18/5 13/8/5 10/11/5
f 8/19/3 14/17/3 7/5/3
f 15/14/3 13/8/3 14/17/3
f 2/20/1 10/21/1 1/22/1
f 11/23/1 9/3/1 10/21/1
f 20/6/6 22/24/6 21/9/6
f 19/19/6 17/25/6 24/14/6
f 27/14/4 17/25/4 25/25/4
f 28/19/3 24/14/3 27/14/3
f 26/4/2 19/19/2 28/19/2
f 30/20/1 23/23/1 31/23/1
f 31/15/2 20/6/2 32/6/2
f 32/6/3 21/9/3 29/9/3
f 4/4/2 28/19/2 8/19/2
f 8/19/3 27/14/3 15/14/3
f 15/14/4 25/25/4 12/25/4
f 12/1/1 26/4/1 4/4/1
f 16/6/3 29/9/3 6/9/3
f 11/15/2 32/6/2 16/6/2
f 2/20/1 31/23/1 11/23/1
f 6/9/4 30/13/4 2/13/4
f 23/26/6 24/26/6 17/26/6
f 27/26/3 20/26/3 32/26/3
f 23/26/1 25/26/1 31/26/1
f 27/26/5 31/26/5 25/26/5
f 35/26/7 36/26/7 33/26/7
f 40/26/3 36/26/3 34/26/3
f 39/26/1 33/26/1 37/26/1
f 38/26/8 39/26/8 37/26/8
f 35/26/9 40/26/10 34/26/9
f 36/26/11 37/26/11 33/26/11
f 42/26/12 41/26/12 43/26/12
f 48/26/3 44/26/3 42/26/3
f 47/26/1 41/26/1 45/26/1
f 46/26/13 47/26/14 45/26/13
f 43/26/15 48/26/15 42/26/15
f 44/26/16 45/26/16 41/26/16
f 12/1/1 4/4/1 3/2/1
f 4/4/2 8/19/2 7/5/2
f 16/6/3 6/9/3 5/7/3
f 6/9/4 2/13/4 1/10/4
f 10/11/5 13/8/5 5/7/5
f 29/9/4 21/9/4 22/13/4
f 25/1/1 17/1/1 18/4/1
f 15/14/6 12/25/6 11/15/6
f 3/16/5 7/5/5 14/17/5
f 9/18/5 14/17/5 13/8/5
f 8/19/3 15/14/3 14/17/3
f 15/14/3 16/6/3 13/8/3
f 2/20/1 11/23/1 10/21/1
f 11/23/1 12/1/1 9/3/1
f 20/6/6 23/15/6 22/24/6
f 19/19/6 18/27/6 17/25/6
f 27/14/4 24/14/4 17/25/4
f 28/19/3 19/19/3 24/14/3
f 26/4/2 18/4/2 19/19/2
f 30/20/1 22/20/1 23/23/1
f 31/15/2 23/15/2 20/6/2
f 32/6/3 20/6/3 21/9/3
f 4/4/2 26/4/2 28/19/2
f 8/19/3 28/19/3 27/14/3
f 15/14/4 27/14/4 25/25/4
f 12/1/1 25/1/1 26/4/1
f 16/6/3 32/6/3 29/9/3
f 11/15/2 31/15/2 32/6/2
f 2/20/1 30/20/1 31/23/1
f 6/9/4 29/9/4 30/13/4
f 23/26/6 20/26/6 24/26/6
f 27/26/3 24/26/3 20/26/3
f 23/26/1 17/26/1 25/26/1
f 27/26/5 32/26/5 31/26/5
f 35/26/7 34/26/7 36/26/7
f 40/26/3 38/26/3 36/26/3
f 39/26/1 35/26/1 33/26/1
f 38/26/8 40/26/8 39/26/8
f 35/26/9 39/26/10 40/26/10
f 36/26/11 38/26/17 37/26/11
f 42/26/12 44/26/12 41/26/12
f 48/26/3 46/26/3 44/26/3
f 47/26/1 43/26/1 41/26/1
f 46/26/13 48/26/14 47/26/14
f 43/26/15 47/26/15 48/26/15
f 44/26/16 46/26/16 45/26/16
