# Blender 4.3.2
# www.blender.org
mtllib gate.mtl
o Cube.002
v -0.034154 -0.809256 0.012565
v -0.034154 -0.640888 0.012565
v -0.034154 -0.809256 -3.278713
v -0.034154 -0.640888 -3.278713
v 0.037942 -0.809256 0.012565
v 0.037942 -0.640888 0.012565
v 0.037942 -0.809256 -3.278713
v 0.037942 -0.640888 -3.278713
v -0.034154 -0.809256 -3.103655
v -0.034154 -0.809256 -0.162492
v -0.034154 -0.640888 -0.162493
v -0.034154 -0.640888 -3.103655
v 0.037942 -0.809256 -0.162493
v 0.037942 -0.809256 -3.103655
v 0.037942 -0.640888 -3.103655
v 0.037942 -0.640888 -0.162492
v -0.034154 0.793513 -3.103655
v -0.034154 0.793513 -3.278713
v 0.037942 0.793513 -3.278713
v 0.037942 0.793513 -0.162492
v 0.037942 0.793513 0.012565
v -0.034154 0.793513 0.012565
v -0.034154 0.793513 -0.162493
v 0.037942 0.793513 -3.103655
v -0.034154 0.623291 -3.103655
v -0.034154 0.623291 -3.278713
v 0.037942 0.623291 -3.103655
v 0.037942 0.623291 -3.278713
v 0.037942 0.623291 0.012565
v -0.034154 0.623291 0.012565
v -0.034154 0.623291 -0.162493
v 0.037942 0.623291 -0.162492
v 0.009657 0.674707 -3.111907
v 0.074261 -0.482883 -0.087244
v 0.009657 -0.482883 -0.087245
v 0.074261 0.674707 -3.111907
v 0.009657 0.499652 -3.178904
v 0.074261 0.499652 -3.178903
v 0.009657 -0.657938 -0.154241
v 0.074261 -0.657938 -0.154241
v -0.073445 -0.560662 -3.151994
v -0.008841 0.748862 -0.189943
v -0.073445 0.748862 -0.189944
v -0.008841 -0.560662 -3.151994
v -0.073445 -0.732094 -3.076205
v -0.008841 -0.732093 -3.076204
v -0.073445 0.577431 -0.114154
v -0.008841 0.577431 -0.114153
vn -1.0000 -0.0000 -0.0000
vn -0.0000 -0.0000 -1.0000
vn 1.0000 -0.0000 -0.0000
vn -0.0000 -0.0000 1.0000
vn -0.0000 -1.0000 -0.0000
vn -0.0000 1.0000 -0.0000
vn -0.0000 0.9339 0.3574
vn -0.0000 -0.9339 -0.3574
vn -0.0000 -0.3574 0.9339
vn -0.0000 0.3574 -0.9339
vn -0.0000 0.9146 -0.4043
vn -0.0000 -0.9146 0.4043
vn -0.0000 0.4043 0.9146
vn -0.0000 -0.4043 -0.9146
vt 0.625000 0.166667
vt 0.375000 0.250000
vt 0.375000 0.166667
vt 0.625000 0.250000
vt 0.375000 0.500000
vt 0.625000 0.666667
vt 0.375000 0.750000
vt 0.375000 0.666667
vt 0.625000 0.750000
vt 0.375000 1.000000
vt 0.125000 0.666667
vt 0.125000 0.750000
vt 0.625000 1.000000
vt 0.625000 0.583333
vt 0.875000 0.666667
vt 0.125000 0.500000
vt 0.375000 0.583333
vt 0.125000 0.583333
vt 0.625000 0.500000
vt 0.625000 0.000000
vt 0.375000 0.083333
vt 0.375000 0.000000
vt 0.625000 0.083333
vt 0.875000 0.750000
vt 0.875000 0.583333
vt 0.000000 0.000000
vt 0.875000 0.500000
s 0
f 12/1/1 3/2/1 9/3/1
f 4/4/2 7/5/2 3/2/2
f 16/6/3 5/7/3 13/8/3
f 6/9/4 1/10/4 5/7/4
f 10/11/5 5/7/5 1/12/5
f 29/9/4 22/13/4 30/13/4
f 25/1/1 18/4/1 26/4/1
f 15/14/6 11/15/6 16/6/6
f 3/16/5 14/17/5 9/18/5
f 9/18/5 13/8/5 10/11/5
f 8/19/3 14/17/3 7/5/3
f 15/14/3 13/8/3 14/17/3
f 2/20/1 10/21/1 1/22/1
f 11/23/1 9/3/1 10/21/1
f 20/6/6 22/24/6 21/9/6
f 19/19/6 17/25/6 24/14/6
f 27/14/4 17/25/4 25/25/4
f 28/19/3 24/14/3 27/14/3
f 26/4/2 19/19/2 28/19/2
f 30/20/1 23/23/1 31/23/1
f 31/15/2 20/6/2 32/6/2
f 32/6/3 21/9/3 29/9/3
f 4/4/2 28/19/2 8/19/2
f 8/19/3 27/14/3 15/14/3
f 15/14/4 25/25/4 12/25/4
f 12/1/1 26/4/1 4/4/1
f 16/6/3 29/9/3 6/9/3
f 11/15/2 32/6/2 16/6/2
f 2/20/1 31/23/1 11/23/1
f 6/9/4 30/13/4 2/13/4
f 23/26/6 24/26/6 17/26/6
f 27/26/3 20/26/3 32/26/3
f 23/26/1 25/26/1 31/26/1
f 27/26/5 31/26/5 25/26/5
f 35/26/7 36/26/7 33/26/7
f 40/26/3 36/26/3 34/26/3
f 39/26/1 33/26/1 37/26/1
f 38/26/8 39/26/8 37/26/8
f 35/26/9 40/26/9 34/26/9
f 36/26/10 37/26/10 33/26/10
f 42/26/11 41/26/11 43/26/11
f 48/26/3 44/26/3 42/26/3
f 47/26/1 41/26/1 45/26/1
f 46/26/12 47/26/12 45/26/12
f 43/26/13 48/26/13 42/26/13
f 44/26/14 45/26/14 41/26/14
f 12/1/1 4/4/1 3/2/1
f 4/4/2 8/19/2 7/5/2
f 16/6/3 6/9/3 5/7/3
f 6/9/4 2/13/4 1/10/4
f 10/11/5 13/8/5 5/7/5
f 29/9/4 21/9/4 22/13/4
f 25/1/1 17/1/1 18/4/1
f 15/14/6 12/25/6 11/15/6
f 3/16/5 7/5/5 14/17/5
f 9/18/5 14/17/5 13/8/5
f 8/19/3 15/14/3 14/17/3
f 15/14/3 16/6/3 13/8/3
f 2/20/1 11/23/1 10/21/1
f 11/23/1 12/1/1 9/3/1
f 20/6/6 23/15/6 22/24/6
f 19/19/6 18/27/6 17/25/6
f 27/14/4 24/14/4 17/25/4
f 28/19/3 19/19/3 24/14/3
f 26/4/2 18/4/2 19/19/2
f 30/20/1 22/20/1 23/23/1
f 31/15/2 23/15/2 20/6/2
f 32/6/3 20/6/3 21/9/3
f 4/4/2 26/4/2 28/19/2
f 8/19/3 28/19/3 27/14/3
f 15/14/4 27/14/4 25/25/4
f 12/1/1 25/1/1 26/4/1
f 16/6/3 32/6/3 29/9/3
f 11/15/2 31/15/2 32/6/2
f 2/20/1 30/20/1 31/23/1
f 6/9/4 29/9/4 30/13/4
f 23/26/6 20/26/6 24/26/6
f 27/26/3 24/26/3 20/26/3
f 23/26/1 17/26/1 25/26/1
f 27/26/5 32/26/5 31/26/5
f 35/26/7 34/26/7 36/26/7
f 40/26/3 38/26/3 36/26/3
f 39/26/1 35/26/1 33/26/1
f 38/26/8 40/26/8 39/26/8
f 35/26/9 39/26/9 40/26/9
f 36/26/10 38/26/10 37/26/10
f 42/26/11 44/26/11 41/26/11
f 48/26/3 46/26/3 44/26/3
f 47/26/1 43/26/1 41/26/1
f 46/26/12 48/26/12 47/26/12
f 43/26/13 47/26/13 48/26/13
f 44/26/14 46/26/14 45/26/14
