# Blender 4.3.2
# www.blender.org
mtllib gate_03.mtl
o Cube.006
v -0.047216 -0.185526 -0.087402
v -0.047216 3.294033 -0.087402
v 0.041948 -0.185526 -0.090048
v 0.041948 3.294033 -0.090048
v -0.041948 -0.185526 0.090048
v -0.041948 3.294033 0.090048
v 0.047216 -0.185526 0.087402
v 0.047216 3.294033 0.087402
v -0.040895 -0.185526 0.125538
v -0.040895 3.294033 0.125538
v 0.048269 -0.185526 0.122892
v 0.048269 3.294033 0.122892
v -0.035628 -0.185526 0.302988
v -0.035628 3.294033 0.302988
v 0.053537 -0.185526 0.300342
v 0.053537 3.294033 0.300342
v -0.034574 -0.185526 0.338479
v -0.034574 3.294033 0.338479
v 0.054590 -0.185526 0.335832
v 0.054590 3.294033 0.335832
v -0.029307 -0.185526 0.515929
v -0.029307 3.294033 0.515929
v 0.059857 -0.185526 0.513282
v 0.059857 3.294033 0.513282
v -0.028253 -0.185526 0.551419
v -0.028253 3.294033 0.551419
v 0.060911 -0.185526 0.548772
v 0.060911 3.294033 0.548772
v -0.022986 -0.185526 0.728869
v -0.022986 3.294033 0.728869
v 0.066178 -0.185526 0.726222
v 0.066178 3.294033 0.726222
v -0.021933 -0.185526 0.764359
v -0.021933 3.294033 0.764359
v 0.067232 -0.185526 0.761712
v 0.067232 3.294033 0.761712
v -0.016665 -0.185526 0.941809
v -0.016665 3.294033 0.941809
v 0.072499 -0.185526 0.939162
v 0.072499 3.294033 0.939162
v -0.015612 -0.185526 0.977299
v -0.015612 3.294033 0.977299
v 0.073552 -0.185526 0.974652
v 0.073552 3.294033 0.974652
v -0.010344 -0.185526 1.154749
v -0.010344 3.294033 1.154749
v 0.078820 -0.185526 1.152102
v 0.078820 3.294033 1.152102
v -0.009291 -0.185526 1.190239
v -0.009291 3.294033 1.190239
v 0.079873 -0.185526 1.187592
v 0.079873 3.294033 1.187592
v -0.004024 -0.185526 1.367689
v -0.004024 3.294033 1.367689
v 0.085141 -0.185526 1.365042
v 0.085141 3.294033 1.365042
v -0.002970 -0.185526 1.403179
v -0.002970 3.294033 1.403179
v 0.086194 -0.185526 1.400532
v 0.086194 3.294033 1.400532
v 0.002297 -0.185526 1.580629
v 0.002297 3.294033 1.580629
v 0.091461 -0.185526 1.577983
v 0.091461 3.294033 1.577983
v 0.003351 -0.185526 1.616119
v 0.003351 3.294033 1.616119
v 0.092515 -0.185526 1.613473
v 0.092515 3.294033 1.613473
v 0.008618 -0.185526 1.793569
v 0.008618 3.294033 1.793569
v 0.097782 -0.185526 1.790923
v 0.097782 3.294033 1.790923
v 0.009671 -0.185526 1.829059
v 0.009671 3.294033 1.829059
v 0.098836 -0.185526 1.826413
v 0.098836 3.294033 1.826413
v 0.014939 -0.185526 2.006510
v 0.014939 3.294033 2.006510
v 0.104103 -0.185526 2.003863
v 0.104103 3.294033 2.003863
v 0.015992 -0.185526 2.042000
v 0.015992 3.294033 2.042000
v 0.105156 -0.185526 2.039353
v 0.105156 3.294033 2.039353
v 0.021259 -0.185526 2.219450
v 0.021259 3.294033 2.219450
v 0.110424 -0.185526 2.216803
v 0.110424 3.294033 2.216803
v -0.073689 0.192366 -0.117616
v -0.073689 0.372939 -0.117616
v 0.066583 0.192366 -0.121780
v 0.066583 0.372939 -0.121780
v -0.002657 0.192366 2.275374
v -0.002657 0.372939 2.275374
v 0.137616 0.192366 2.271210
v 0.137616 0.372939 2.271210
v -0.073689 2.783013 -0.117616
v -0.073689 2.963586 -0.117616
v 0.066583 2.783013 -0.121780
v 0.066583 2.963586 -0.121780
v -0.002657 2.783013 2.275374
v -0.002657 2.963586 2.275374
v 0.137616 2.783013 2.271210
v 0.137616 2.963586 2.271210
vn -0.0297 -0.0000 -0.9996
vn 0.9996 -0.0000 -0.0297
vn 0.0297 -0.0000 0.9996
vn -0.9996 -0.0000 0.0297
vn -0.0000 -1.0000 -0.0000
vn -0.0000 1.0000 -0.0000
vt 0.625000 0.000000
vt 0.375000 0.250000
vt 0.375000 0.000000
vt 0.625000 0.250000
vt 0.375000 0.500000
vt 0.625000 0.500000
vt 0.375000 0.750000
vt 0.625000 0.750000
vt 0.375000 1.000000
vt 0.125000 0.750000
vt 0.125000 0.500000
vt 0.875000 0.500000
vt 0.625000 1.000000
vt 0.875000 0.750000
s 0
f 2/1/1 3/2/1 1/3/1
f 4/4/2 7/5/2 3/2/2
f 8/6/3 5/7/3 7/5/3
f 6/8/4 1/9/4 5/7/4
f 7/5/5 1/10/5 3/11/5
f 4/12/6 6/8/6 8/6/6
f 10/1/1 11/2/1 9/3/1
f 12/4/2 15/5/2 11/2/2
f 16/6/3 13/7/3 15/5/3
f 14/8/4 9/9/4 13/7/4
f 15/5/5 9/10/5 11/11/5
f 12/12/6 14/8/6 16/6/6
f 18/1/1 19/2/1 17/3/1
f 20/4/2 23/5/2 19/2/2
f 24/6/3 21/7/3 23/5/3
f 22/8/4 17/9/4 21/7/4
f 23/5/5 17/10/5 19/11/5
f 20/12/6 22/8/6 24/6/6
f 26/1/1 27/2/1 25/3/1
f 28/4/2 31/5/2 27/2/2
f 32/6/3 29/7/3 31/5/3
f 30/8/4 25/9/4 29/7/4
f 31/5/5 25/10/5 27/11/5
f 28/12/6 30/8/6 32/6/6
f 34/1/1 35/2/1 33/3/1
f 36/4/2 39/5/2 35/2/2
f 40/6/3 37/7/3 39/5/3
f 38/8/4 33/9/4 37/7/4
f 39/5/5 33/10/5 35/11/5
f 36/12/6 38/8/6 40/6/6
f 42/1/1 43/2/1 41/3/1
f 44/4/2 47/5/2 43/2/2
f 48/6/3 45/7/3 47/5/3
f 46/8/4 41/9/4 45/7/4
f 47/5/5 41/10/5 43/11/5
f 44/12/6 46/8/6 48/6/6
f 50/1/1 51/2/1 49/3/1
f 52/4/2 55/5/2 51/2/2
f 56/6/3 53/7/3 55/5/3
f 54/8/4 49/9/4 53/7/4
f 55/5/5 49/10/5 51/11/5
f 52/12/6 54/8/6 56/6/6
f 58/1/1 59/2/1 57/3/1
f 60/4/2 63/5/2 59/2/2
f 64/6/3 61/7/3 63/5/3
f 62/8/4 57/9/4 61/7/4
f 63/5/5 57/10/5 59/11/5
f 60/12/6 62/8/6 64/6/6
f 66/1/1 67/2/1 65/3/1
f 68/4/2 71/5/2 67/2/2
f 72/6/3 69/7/3 71/5/3
f 70/8/4 65/9/4 69/7/4
f 71/5/5 65/10/5 67/11/5
f 68/12/6 70/8/6 72/6/6
f 74/1/1 75/2/1 73/3/1
f 76/4/2 79/5/2 75/2/2
f 80/6/3 77/7/3 79/5/3
f 78/8/4 73/9/4 77/7/4
f 79/5/5 73/10/5 75/11/5
f 76/12/6 78/8/6 80/6/6
f 82/1/1 83/2/1 81/3/1
f 84/4/2 87/5/2 83/2/2
f 88/6/3 85/7/3 87/5/3
f 86/8/4 81/9/4 85/7/4
f 87/5/5 81/10/5 83/11/5
f 84/12/6 86/8/6 88/6/6
f 90/1/1 91/2/1 89/3/1
f 92/4/2 95/5/2 91/2/2
f 96/6/3 93/7/3 95/5/3
f 94/8/4 89/9/4 93/7/4
f 95/5/5 89/10/5 91/11/5
f 92/12/6 94/8/6 96/6/6
f 98/1/1 99/2/1 97/3/1
f 100/4/2 103/5/2 99/2/2
f 104/6/3 101/7/3 103/5/3
f 102/8/4 97/9/4 101/7/4
f 103/5/5 97/10/5 99/11/5
f 100/12/6 102/8/6 104/6/6
f 2/1/1 4/4/1 3/2/1
f 4/4/2 8/6/2 7/5/2
f 8/6/3 6/8/3 5/7/3
f 6/8/4 2/13/4 1/9/4
f 7/5/5 5/7/5 1/10/5
f 4/12/6 2/14/6 6/8/6
f 10/1/1 12/4/1 11/2/1
f 12/4/2 16/6/2 15/5/2
f 16/6/3 14/8/3 13/7/3
f 14/8/4 10/13/4 9/9/4
f 15/5/5 13/7/5 9/10/5
f 12/12/6 10/14/6 14/8/6
f 18/1/1 20/4/1 19/2/1
f 20/4/2 24/6/2 23/5/2
f 24/6/3 22/8/3 21/7/3
f 22/8/4 18/13/4 17/9/4
f 23/5/5 21/7/5 17/10/5
f 20/12/6 18/14/6 22/8/6
f 26/1/1 28/4/1 27/2/1
f 28/4/2 32/6/2 31/5/2
f 32/6/3 30/8/3 29/7/3
f 30/8/4 26/13/4 25/9/4
f 31/5/5 29/7/5 25/10/5
f 28/12/6 26/14/6 30/8/6
f 34/1/1 36/4/1 35/2/1
f 36/4/2 40/6/2 39/5/2
f 40/6/3 38/8/3 37/7/3
f 38/8/4 34/13/4 33/9/4
f 39/5/5 37/7/5 33/10/5
f 36/12/6 34/14/6 38/8/6
f 42/1/1 44/4/1 43/2/1
f 44/4/2 48/6/2 47/5/2
f 48/6/3 46/8/3 45/7/3
f 46/8/4 42/13/4 41/9/4
f 47/5/5 45/7/5 41/10/5
f 44/12/6 42/14/6 46/8/6
f 50/1/1 52/4/1 51/2/1
f 52/4/2 56/6/2 55/5/2
f 56/6/3 54/8/3 53/7/3
f 54/8/4 50/13/4 49/9/4
f 55/5/5 53/7/5 49/10/5
f 52/12/6 50/14/6 54/8/6
f 58/1/1 60/4/1 59/2/1
f 60/4/2 64/6/2 63/5/2
f 64/6/3 62/8/3 61/7/3
f 62/8/4 58/13/4 57/9/4
f 63/5/5 61/7/5 57/10/5
f 60/12/6 58/14/6 62/8/6
f 66/1/1 68/4/1 67/2/1
f 68/4/2 72/6/2 71/5/2
f 72/6/3 70/8/3 69/7/3
f 70/8/4 66/13/4 65/9/4
f 71/5/5 69/7/5 65/10/5
f 68/12/6 66/14/6 70/8/6
f 74/1/1 76/4/1 75/2/1
f 76/4/2 80/6/2 79/5/2
f 80/6/3 78/8/3 77/7/3
f 78/8/4 74/13/4 73/9/4
f 79/5/5 77/7/5 73/10/5
f 76/12/6 74/14/6 78/8/6
f 82/1/1 84/4/1 83/2/1
f 84/4/2 88/6/2 87/5/2
f 88/6/3 86/8/3 85/7/3
f 86/8/4 82/13/4 81/9/4
f 87/5/5 85/7/5 81/10/5
f 84/12/6 82/14/6 86/8/6
f 90/1/1 92/4/1 91/2/1
f 92/4/2 96/6/2 95/5/2
f 96/6/3 94/8/3 93/7/3
f 94/8/4 90/13/4 89/9/4
f 95/5/5 93/7/5 89/10/5
f 92/12/6 90/14/6 94/8/6
f 98/1/1 100/4/1 99/2/1
f 100/4/2 104/6/2 103/5/2
f 104/6/3 102/8/3 101/7/3
f 102/8/4 98/13/4 97/9/4
f 103/5/5 101/7/5 97/10/5
f 100/12/6 98/14/6 102/8/6
