# Blender 4.2.3 LTS
# www.blender.org
mtllib level_01.mtl
o Cube.002
v -2.394088 0.039208 0.995464
v -2.394088 2.864957 0.995464
v -2.394088 0.039208 -8.987653
v -2.394088 2.864957 -8.987653
v 2.394088 0.039208 0.995464
v 2.394088 2.864957 0.995464
v 2.394088 0.039208 -8.987653
v 2.394088 2.864957 -8.987653
v -1.539185 2.864957 0.995464
v 1.539185 2.864957 0.995464
v -1.539185 0.039208 0.995464
v 1.539185 0.039208 0.995464
v -2.394088 0.039208 1.576901
v -2.394088 2.864957 1.576901
v 2.394088 0.039208 1.576901
v 2.394088 2.864957 1.576901
v -1.539185 0.039208 1.576901
v -1.539185 2.864957 1.576901
v 1.539185 0.039208 1.576901
v 1.539185 2.864957 1.576901
v -2.394088 0.039208 1.576901
v -2.394088 2.864957 1.576901
v 2.394088 0.039208 1.576901
v 2.394088 2.864957 1.576901
v -2.394088 0.039208 11.210842
v -2.394088 2.864957 11.210842
v 2.394088 0.039208 11.210842
v 2.394088 2.864957 11.210842
v -2.394088 0.039208 11.993945
v -2.394088 2.864957 11.993945
v 2.394088 0.039208 11.993945
v 2.394088 2.864957 11.993945
v -1.539185 0.039208 11.210842
v -1.539185 2.864957 11.210842
v 1.539185 0.039208 11.210842
v 1.539185 2.864957 11.210842
v -1.539186 0.039208 11.993945
v -1.539186 2.864957 11.993945
v 1.539186 0.039208 11.993945
v 1.539186 2.864957 11.993945
v -7.795928 0.039208 11.993945
v -7.795928 2.864957 11.993945
v 7.795928 0.039208 11.993945
v 7.795928 2.864957 11.993945
v -7.795928 0.039208 11.993945
v -7.795928 2.864957 11.993945
v 7.795928 0.039208 11.993945
v 7.795928 2.864957 11.993945
v -7.795928 0.039208 23.154341
v -7.795928 2.864957 23.154341
v 7.795928 0.039208 23.154341
v 7.795928 2.864957 23.154341
v -1.539186 2.864957 23.154341
v 1.539186 2.864957 23.154341
v -1.539186 0.039208 23.154341
v 1.539186 0.039208 23.154341
v 2.394088 2.864957 23.154341
v 2.394088 0.039208 23.154341
v -2.394088 2.864957 23.154341
v -2.394088 0.039208 23.154341
v 7.795928 0.039208 17.574142
v 7.795928 2.864957 17.574142
v -7.795928 2.864957 17.574142
v -7.795928 0.039208 17.574142
v -1.539186 2.864957 17.574142
v -2.394088 2.864957 17.574142
v 2.394088 2.864957 17.574142
v 1.539186 2.864957 17.574142
v -1.539185 0.039208 -8.987653
v 1.539185 0.039208 -8.987653
v -1.539185 2.864957 -8.987653
v 1.539185 2.864957 -8.987653
vn 1.0000 -0.0000 -0.0000
vn -1.0000 -0.0000 -0.0000
vn -0.0000 -0.0000 1.0000
vn -0.0000 -0.0000 -1.0000
vn -0.0000 1.0000 -0.0000
vn -0.0000 -1.0000 -0.0000
vt 0.748737 0.015379
vt -0.001183 0.392743
vt -0.001183 0.015379
vt -0.001183 0.392743
vt 0.748737 0.015379
vt 0.748737 0.392743
vt 0.259044 0.000036
vt 0.001906 0.849964
vt 0.001906 0.000036
vt -0.001183 0.015379
vt 0.881104 0.973870
vt 0.814610 0.754084
vt 0.881104 0.754084
vt 0.884321 0.979893
vt 0.814129 0.747884
vt 0.884321 0.747884
vt 0.814610 0.973870
vt 0.814129 0.979893
vt 0.141838 0.689149
vt 0.063998 0.310851
vt 0.141838 0.310851
vt 0.418513 0.135960
vt 0.432461 0.203745
vt 0.418513 0.203745
vt 0.881104 0.973870
vt 0.884321 0.747884
vt 0.825576 0.982078
vt 0.871927 0.756811
vt 0.871927 0.982078
vt 0.881329 0.754082
vt 0.814608 0.973872
vt 0.814608 0.754082
vt 0.063998 0.689149
vt 0.432461 0.135960
vt 0.814610 0.973870
vt 0.814129 0.747884
vt 0.825576 0.756811
vt 0.881329 0.973872
vt 0.281460 0.388101
vt 0.418135 0.258487
vt 0.418357 0.258722
vt 0.281680 0.388189
vt 0.056701 0.412306
vt 0.117356 0.393849
vt 0.117372 0.393884
vt 0.056719 0.412366
vt 0.748736 0.392742
vt -0.001182 0.001702
vt 0.748736 0.001702
vt -0.001182 0.001702
vt -0.001182 0.392742
vt -0.001182 0.392742
vt 0.748736 0.001702
vt 0.418513 0.067863
vt 0.437299 0.000078
vt 0.437299 0.067863
vt 0.437299 0.068019
vt 0.418513 0.135804
vt 0.418513 0.068019
vt 0.807912 0.993557
vt 0.886372 0.734221
vt 0.886372 0.993557
vt 0.886372 0.734221
vt 0.807912 0.993557
vt 0.807912 0.734221
vt 0.886372 0.993557
vt 0.876208 0.742416
vt 0.813499 0.968695
vt 0.813499 0.742416
vt 0.876208 0.742416
vt 0.876208 0.968695
vt 0.418513 0.000078
vt 0.437299 0.135804
vt 0.807912 0.734221
vt 0.813499 0.742416
vt -0.000559 0.001541
vt 0.390404 0.365125
vt -0.000559 0.365125
vt 0.390404 0.365125
vt -0.000559 0.001541
vt 0.390404 0.001541
vt 0.372237 0.777016
vt 0.414891 0.737085
vt 0.414960 0.737158
vt 0.372296 0.777049
vt 0.000120 0.742880
vt 0.066525 0.767400
vt 0.066528 0.767482
vt 0.000078 0.742994
vt 0.749009 0.001344
vt -0.000884 0.676433
vt -0.000884 0.001345
vt 0.749009 0.001345
vt -0.000884 0.676433
vt -0.000884 0.001345
vt 0.749009 0.001344
vt -0.000884 0.001345
vt 0.749009 0.001344
vt -0.000884 0.676433
vt -0.000884 0.001345
vt 0.001226 -0.001466
vt 0.751118 0.695911
vt 0.001227 0.695911
vt 0.265746 0.869457
vt 0.003537 0.002765
vt 0.265746 0.002765
vt 0.917856 0.000096
vt 0.000096 0.999904
vt 0.000096 0.000096
vt 0.265746 0.869457
vt 0.003537 0.002765
vt 0.265746 0.002765
vt 0.001227 -0.001466
vt 0.001227 0.695911
vt 0.751118 -0.001466
vt 0.003537 0.869457
vt 0.917856 0.999904
vt 0.003537 0.869457
vt 0.751118 -0.001466
vt 0.749009 0.676433
vt 0.749009 0.676433
vt 0.749009 0.676433
vt 0.749009 0.676433
vt 0.167955 0.842438
vt 0.096072 0.931587
vt 0.073579 0.858958
vt 0.146319 0.735360
vt 0.162291 0.716422
vt 0.182850 0.943450
vt 0.167364 0.942434
vt 0.182855 0.841106
vt 0.256666 0.707432
vt 0.237077 0.839757
vt 0.237696 0.944879
vt 0.273208 0.727720
vt 0.253554 0.944443
vt 0.354360 0.850081
vt 0.328374 0.928492
vt 0.253988 0.840939
vt 0.256614 0.685613
vt 0.160988 0.694545
vt 0.146561 0.351728
vt 0.257467 0.367424
vt 0.147139 0.371749
vt 0.255954 0.348800
vt 0.139298 0.675925
vt 0.275660 0.669362
vt 0.259044 0.000036
vt 0.001906 0.000036
vt -0.000104 -0.000768
vt 0.730556 0.795212
vt -0.000104 0.795212
vt 0.185744 0.086379
vt 0.127466 0.325717
vt 0.165596 0.089702
vt 0.276955 0.323851
vt 0.236375 0.087364
vt 0.257083 0.091798
vt 0.259044 0.849964
vt 0.730556 -0.000768
s 0
f 3/1/1 2/2/1 1/3/1
f 5/4/2 8/5/2 7/6/2
f 3/1/1 4/6/1 2/2/1
f 7/7/3 72/8/3 70/9/3
f 5/4/2 6/10/2 8/5/2
f 10/11/4 5/12/4 12/13/4
f 2/14/4 11/15/4 1/16/4
f 10/11/4 6/17/4 5/12/4
f 2/14/4 9/18/4 11/15/4
f 6/19/1 15/20/1 5/21/1
f 1/22/2 14/23/2 2/24/2
f 16/25/3 19/12/3 15/13/3
f 14/18/3 17/26/3 18/14/3
f 18/27/1 11/28/1 9/29/1
f 19/30/2 10/31/2 12/32/2
f 6/19/1 16/33/1 15/20/1
f 1/22/2 13/34/2 14/23/2
f 16/25/3 20/35/3 19/12/3
f 14/18/3 13/36/3 17/26/3
f 18/27/1 17/37/1 11/28/1
f 19/30/2 20/38/2 10/31/2
f 16/39/5 15/40/5 23/41/5 24/42/5
f 13/43/5 14/44/5 22/45/5 21/46/5
f 23/47/2 28/48/2 24/49/2
f 22/50/1 25/47/1 21/51/1
f 23/47/2 27/52/2 28/48/2
f 22/50/1 26/53/1 25/47/1
f 32/54/1 27/55/1 28/56/1
f 29/57/2 26/58/2 25/59/2
f 34/60/4 25/61/4 26/62/4
f 35/63/4 28/64/4 27/65/4
f 37/63/3 30/64/3 29/65/3
f 40/60/3 31/63/3 32/66/3
f 39/67/2 36/68/2 35/69/2
f 38/68/1 33/70/1 34/71/1
f 32/54/1 31/72/1 27/55/1
f 29/57/2 30/73/2 26/58/2
f 34/60/4 33/65/4 25/61/4
f 35/63/4 36/62/4 28/64/4
f 37/63/3 38/66/3 30/64/3
f 40/60/3 39/74/3 31/63/3
f 39/67/2 40/71/2 36/68/2
f 38/68/1 37/75/1 33/70/1
f 31/76/3 44/77/3 32/78/3
f 30/79/3 41/80/3 29/81/3
f 44/82/5 43/83/5 47/84/5 48/85/5
f 41/86/5 42/87/5 46/88/5 45/89/5
f 63/90/1 45/91/1 46/92/1
f 61/93/2 48/94/2 47/95/2
f 31/76/3 43/81/3 44/77/3
f 30/79/3 42/78/3 41/80/3
f 51/96/2 62/94/2 61/97/2
f 50/98/1 64/99/1 63/100/1
f 57/101/4 51/102/4 58/103/4
f 59/104/4 55/105/4 60/106/4
f 53/107/4 56/108/4 55/109/4
f 54/110/4 58/111/4 56/112/4
f 50/113/4 60/102/4 49/114/4
f 57/101/4 52/115/4 51/102/4
f 59/104/4 53/116/4 55/105/4
f 53/107/4 54/117/4 56/108/4
f 54/110/4 57/118/4 58/111/4
f 50/113/4 59/119/4 60/102/4
f 63/90/1 64/120/1 45/91/1
f 61/93/2 62/121/2 48/94/2
f 51/96/2 52/122/2 62/94/2
f 50/98/1 49/123/1 64/99/1
f 66/124/6 50/125/6 63/126/6
f 30/127/6 63/126/6 46/88/6
f 38/128/6 66/124/6 30/127/6
f 66/124/6 53/129/6 59/130/6
f 65/131/6 40/132/6 68/133/6
f 65/131/6 54/134/6 53/129/6
f 32/135/6 68/133/6 40/132/6
f 68/133/6 57/136/6 54/134/6
f 32/135/6 44/82/6 62/137/6
f 52/138/6 67/139/6 62/137/6
f 66/124/6 59/130/6 50/125/6
f 30/127/6 66/124/6 63/126/6
f 46/88/5 42/87/5 30/127/5
f 38/128/6 65/131/6 66/124/6
f 66/124/6 65/131/6 53/129/6
f 65/131/6 38/128/6 40/132/6
f 65/131/6 68/133/6 54/134/6
f 32/135/6 67/139/6 68/133/6
f 68/133/6 67/139/6 57/136/6
f 62/137/6 67/139/6 32/135/6
f 44/82/5 48/85/5 62/137/5
f 52/138/6 57/136/6 67/139/6
f 38/128/6 36/140/6 40/132/6
f 38/128/6 34/141/6 36/140/6
f 9/142/6 20/143/6 18/144/6
f 9/142/6 10/145/6 20/143/6
f 18/144/6 26/146/6 22/45/6
f 18/144/6 34/141/6 26/146/6
f 22/45/5 14/44/5 18/144/5
f 20/143/6 16/39/6 24/42/6 28/147/6 36/140/6
f 34/141/6 20/143/6 36/140/6
f 34/141/6 18/144/6 20/143/6
f 69/148/3 4/8/3 3/149/3
f 70/150/3 71/151/3 69/152/3
f 71/153/6 2/154/6 4/155/6
f 6/156/6 72/157/6 8/158/6
f 6/156/6 10/145/6 72/157/6
f 71/153/6 9/142/6 2/154/6
f 9/142/6 72/157/6 10/145/6
f 9/142/6 71/153/6 72/157/6
f 7/7/3 8/159/3 72/8/3
f 69/148/3 71/159/3 4/8/3
f 70/150/3 72/160/3 71/151/3
