# Blender 4.3.2
# www.blender.org
mtllib lighthouse.mtl
o Cylinder
v -9.439079 3.902847 9.439080
v -9.439079 7.201830 9.439080
v 0.000001 -0.402097 -13.348875
v 9.439080 -0.402097 -9.439080
v 9.439080 3.710759 -9.439080
v 0.000001 3.710759 -13.348875
v 13.348876 -0.402097 -0.000000
v 13.348876 3.710759 -0.000000
v 9.439080 -0.402097 9.439080
v 9.439080 3.710759 9.439080
v 0.000001 -0.402097 13.348875
v 0.000001 3.710759 13.348875
v -9.439079 -0.402097 9.439080
v -9.439079 3.710759 9.439080
v -13.348874 -0.402097 -0.000000
v -13.348874 3.710759 -0.000000
v -9.439079 -0.402097 -9.439080
v -9.439079 3.710759 -9.439080
v 9.439080 3.902847 -9.439080
v 0.000001 3.902847 -13.348875
v 13.348876 3.902847 -0.000000
v 9.439080 3.902847 9.439080
v 0.000001 3.902847 13.348875
v -9.439079 3.902847 9.439080
v -13.348874 3.902847 -0.000000
v -9.439079 3.902847 -9.439080
v 9.439080 7.201830 -9.439080
v 0.000001 7.201830 -13.348875
v 13.348876 7.201830 -0.000000
v 9.439080 7.201830 9.439080
v 0.000001 7.201830 13.348875
v -9.439079 7.201830 9.439080
v -13.348874 7.201830 -0.000000
v -9.439079 7.201830 -9.439080
v 0.000001 -0.402097 -13.175191
v 9.316267 -0.402097 -9.316266
v 2.497577 3.710759 -2.497575
v 0.000001 3.710759 -3.532105
v 13.175193 -0.402097 -0.000000
v 3.532107 3.710759 -0.000000
v 9.316267 -0.402097 9.316266
v 2.497577 3.710759 2.497575
v 0.000001 -0.402097 13.175191
v 0.000001 3.710759 3.532105
v -9.316266 -0.402097 9.316266
v -2.497574 3.710759 2.497576
v -13.175188 -0.402097 -0.000000
v -3.532104 3.710759 -0.000000
v -9.316266 -0.402097 -9.316266
v -2.497574 3.710759 -2.497576
v 2.497577 3.902847 -2.497575
v 0.000001 3.902847 -3.532105
v 3.532107 3.902847 -0.000000
v 2.497577 3.902847 2.497575
v 0.000001 3.902847 3.532105
v -2.497574 3.902847 2.497576
v -3.532104 3.902847 -0.000000
v -2.497574 3.902847 -2.497576
v 9.316267 7.201830 -9.316266
v 0.000001 7.201830 -13.175191
v 13.175193 7.201830 -0.000000
v 9.316267 7.201830 9.316266
v 0.000001 7.201830 13.175191
v -9.316266 7.201830 9.316266
v -13.175188 7.201830 -0.000000
v -9.316266 7.201830 -9.316266
v 9.316267 3.710759 -9.316266
v 0.000001 3.710759 -13.175191
v 13.175193 3.710759 -0.000000
v 9.316267 3.710759 9.316266
v 0.000001 3.710759 13.175191
v -9.316266 3.710759 9.316266
v -13.175188 3.710759 -0.000000
v -9.316266 3.710759 -9.316266
v 9.316267 3.902847 -9.316266
v 0.000001 3.902847 -13.175191
v 13.175193 3.902847 -0.000000
v 9.316267 3.902847 9.316266
v 0.000001 3.902847 13.175191
v -9.316266 3.902847 9.316266
v -13.175188 3.902847 -0.000000
v -9.316266 3.902847 -9.316266
v 3.146361 3.902847 12.045610
v 6.292721 3.902847 10.742346
v 3.146361 7.201830 12.045610
v 6.292721 7.201830 10.742346
v 6.292721 -0.402097 10.742345
v 3.146361 -0.402097 12.045610
v 3.146361 3.710759 12.045610
v 6.292721 3.710759 10.742346
v 5.906922 3.902847 -5.906921
v 0.000001 3.902847 -8.353648
v 8.353650 3.902847 -0.000000
v 5.906922 3.902847 5.906921
v 0.000001 3.902847 8.353648
v -5.906920 3.902847 5.906921
v -8.353645 3.902847 -0.000000
v -5.906920 3.902847 -5.906921
v 5.906922 3.710759 -5.906921
v 0.000001 3.710759 -8.353648
v 8.353650 3.710759 -0.000000
v 5.906922 3.710759 5.906921
v 0.000001 3.710759 8.353648
v -5.906920 3.710759 5.906921
v -8.353645 3.710759 -0.000000
v -5.906920 3.710759 -5.906921
vn 0.3827 -0.0000 -0.9239
vn 0.9239 -0.0000 -0.3827
vn 0.9239 -0.0000 0.3827
vn -0.3827 -0.0000 0.9239
vn -0.9239 -0.0000 0.3827
vn -0.9239 -0.0000 -0.3827
vn -0.3827 -0.0000 -0.9239
vn -0.0000 1.0000 -0.0000
vn 0.3827 -0.0000 0.9239
vn -0.0000 -1.0000 -0.0000
vt 0.000000 1.000000
vt 0.875000 0.500000
vt 0.000000 0.500000
vt 0.875000 1.000000
vt 0.750000 0.500000
vt 0.750000 1.000000
vt 0.625000 0.500000
vt 0.500000 1.000000
vt 0.375000 0.500000
vt 0.500000 0.500000
vt 0.375000 1.000000
vt 0.250000 0.500000
vt 0.250000 1.000000
vt 0.125000 0.500000
vt 0.541667 1.000000
vt 0.125000 1.000000
vt 1.000000 1.000000
vt 0.541667 0.500000
vt 1.000000 0.500000
vt 0.625000 1.000000
vt 0.583333 1.000000
vt 0.580294 0.080294
vt 0.919706 0.080294
vt 0.919706 0.419706
vt 0.583333 0.500000
vt 0.080294 0.080294
vt 0.010000 0.250000
vt 0.080294 0.419706
vt 0.419706 0.419706
vt 0.490000 0.250000
vt 0.419706 0.080294
vt 0.000000 0.000000
vt 0.750000 0.490000
vt 0.580294 0.419706
vt 0.510000 0.250000
vt 0.750000 0.010000
vt 0.990000 0.250000
vt 0.250000 0.490000
vt 0.250000 0.010000
s 0
f 6/1/1 4/2/1 3/3/1
f 5/4/2 7/5/2 4/2/2
f 8/6/3 9/7/3 7/5/3
f 12/8/4 13/9/4 11/10/4
f 14/11/5 15/12/5 13/9/5
f 16/13/6 17/14/6 15/12/6
f 17/14/7 6/1/7 3/3/7
f 4/2/8 39/5/8 7/5/8
f 20/1/1 5/4/1 6/1/1
f 89/15/9 23/8/9 12/8/9
f 33/13/6 26/16/6 25/13/6
f 28/1/1 19/4/1 20/17/1
f 32/11/5 25/13/5 24/11/5
f 89/15/9 11/10/9 88/18/9
f 3/19/8 36/2/8 4/2/8
f 22/20/9 90/21/9 10/20/9
f 68/17/4 35/19/4 36/2/4
f 39/5/5 67/4/5 36/2/5
f 41/7/6 69/6/6 39/5/6
f 45/9/1 71/8/1 43/10/1
f 47/12/2 72/11/2 45/9/2
f 71/8/4 80/11/4 72/11/4
f 49/14/3 73/13/3 47/12/3
f 35/3/9 74/16/9 49/14/9
f 45/22/8 41/23/8 36/24/8
f 61/6/5 75/4/5 77/6/5
f 74/16/7 76/1/7 68/1/7
f 68/17/1 75/4/1 67/4/1
f 69/6/3 78/20/3 70/20/3
f 72/11/5 81/13/5 73/13/5
f 70/20/9 79/8/9 71/8/9
f 73/13/6 82/16/6 74/16/6
f 67/4/2 77/6/2 69/6/2
f 66/16/3 81/13/3 82/16/3
f 64/11/1 79/8/1 80/11/1
f 62/20/6 77/6/6 78/20/6
f 59/4/4 76/17/4 75/4/4
f 60/1/9 82/16/9 76/1/9
f 65/13/2 80/11/2 81/13/2
f 63/8/7 78/20/7 79/8/7
f 3/3/8 49/14/8 35/3/8
f 17/14/8 47/12/8 49/14/8
f 15/12/8 45/9/8 47/12/8
f 11/10/8 45/9/8 13/9/8
f 87/25/8 41/7/8 43/10/8
f 9/7/8 39/5/8 41/7/8
f 64/26/8 33/13/8 32/11/8
f 65/27/8 34/16/8 33/13/8
f 66/28/8 28/1/8 34/16/8
f 28/17/8 59/29/8 27/4/8
f 59/4/8 29/6/8 27/4/8
f 61/30/8 30/20/8 29/6/8
f 85/15/8 86/21/8 62/31/8
f 31/8/8 64/26/8 32/11/8
f 44/32/7 54/32/7 42/32/7
f 46/32/1 55/32/1 44/32/1
f 100/32/10 67/32/10 99/32/10
f 101/32/10 67/32/10 69/32/10
f 101/32/10 70/32/10 102/32/10
f 103/32/10 70/32/10 71/32/10
f 103/32/10 72/32/10 104/32/10
f 105/32/10 72/32/10 73/32/10
f 105/32/10 74/32/10 106/32/10
f 106/32/10 68/32/10 100/32/10
f 75/32/8 92/32/8 91/32/8
f 93/32/8 75/32/8 91/32/8
f 78/32/8 93/32/8 94/32/8
f 95/32/8 78/32/8 94/32/8
f 80/32/8 95/32/8 96/32/8
f 97/32/8 80/32/8 96/32/8
f 82/32/8 97/32/8 98/32/8
f 76/32/8 98/32/8 92/32/8
f 42/32/6 53/32/6 40/32/6
f 40/32/5 51/32/5 37/32/5
f 37/32/4 52/32/4 38/32/4
f 38/32/9 58/32/9 50/32/9
f 50/32/3 57/32/3 48/32/3
f 48/32/2 56/32/2 46/32/2
f 84/21/9 89/15/9 90/21/9
f 90/21/9 9/7/9 10/20/9
f 2/11/4 23/8/4 31/8/4
f 34/16/7 20/17/7 26/16/7
f 27/4/2 21/6/2 19/4/2
f 29/6/3 22/20/3 21/6/3
f 30/20/9 84/21/9 22/20/9
f 86/21/9 83/15/9 84/21/9
f 23/8/9 85/15/9 31/8/9
f 21/6/3 10/20/3 8/6/3
f 19/4/2 8/6/2 5/4/2
f 26/16/7 6/1/7 18/16/7
f 25/13/6 18/16/6 16/13/6
f 24/11/5 16/13/5 14/11/5
f 23/8/4 14/11/4 12/8/4
f 92/32/8 58/32/8 52/32/8
f 98/32/8 57/32/8 58/32/8
f 57/32/8 96/32/8 56/32/8
f 56/32/8 95/32/8 55/32/8
f 55/32/8 94/32/8 54/32/8
f 94/32/8 53/32/8 54/32/8
f 93/32/8 51/32/8 53/32/8
f 91/32/8 52/32/8 51/32/8
f 50/32/10 100/32/10 38/32/10
f 48/32/10 106/32/10 50/32/10
f 48/32/10 104/32/10 105/32/10
f 46/32/10 103/32/10 104/32/10
f 44/32/10 102/32/10 103/32/10
f 40/32/10 102/32/10 42/32/10
f 40/32/10 99/32/10 101/32/10
f 38/32/10 99/32/10 37/32/10
f 6/1/1 5/4/1 4/2/1
f 5/4/2 8/6/2 7/5/2
f 8/6/3 10/20/3 9/7/3
f 12/8/4 14/11/4 13/9/4
f 14/11/5 16/13/5 15/12/5
f 16/13/6 18/16/6 17/14/6
f 17/14/7 18/16/7 6/1/7
f 4/2/8 36/2/8 39/5/8
f 20/1/1 19/4/1 5/4/1
f 89/15/9 83/15/9 23/8/9
f 33/13/6 34/16/6 26/16/6
f 28/1/1 27/4/1 19/4/1
f 32/11/5 33/13/5 25/13/5
f 24/11/8 1/11/8 32/11/8
f 89/15/9 12/8/9 11/10/9
f 3/19/8 35/19/8 36/2/8
f 22/20/9 84/21/9 90/21/9
f 68/17/4 36/2/4 67/4/4
f 39/5/5 69/6/5 67/4/5
f 41/7/6 70/20/6 69/6/6
f 45/9/1 72/11/1 71/8/1
f 47/12/2 73/13/2 72/11/2
f 71/8/4 79/8/4 80/11/4
f 49/14/3 74/16/3 73/13/3
f 35/3/9 68/1/9 74/16/9
f 36/24/8 35/33/8 49/34/8
f 49/34/8 47/35/8 45/22/8
f 45/22/8 43/36/8 41/23/8
f 41/23/8 39/37/8 36/24/8
f 36/24/8 49/34/8 45/22/8
f 61/6/5 59/4/5 75/4/5
f 74/16/7 82/16/7 76/1/7
f 68/17/1 76/17/1 75/4/1
f 69/6/3 77/6/3 78/20/3
f 72/11/5 80/11/5 81/13/5
f 70/20/9 78/20/9 79/8/9
f 73/13/6 81/13/6 82/16/6
f 67/4/2 75/4/2 77/6/2
f 66/16/3 65/13/3 81/13/3
f 64/11/1 63/8/1 79/8/1
f 62/20/6 61/6/6 77/6/6
f 59/4/4 60/17/4 76/17/4
f 60/1/9 66/16/9 82/16/9
f 65/13/2 64/11/2 80/11/2
f 63/8/7 62/20/7 78/20/7
f 3/3/8 17/14/8 49/14/8
f 17/14/8 15/12/8 47/12/8
f 15/12/8 13/9/8 45/9/8
f 11/10/8 43/10/8 45/9/8
f 43/10/8 11/10/8 88/18/8
f 87/25/8 9/7/8 41/7/8
f 43/10/8 88/18/8 87/25/8
f 9/7/8 7/5/8 39/5/8
f 64/26/8 65/27/8 33/13/8
f 65/27/8 66/28/8 34/16/8
f 66/28/8 60/38/8 28/1/8
f 28/17/8 60/38/8 59/29/8
f 59/4/8 61/6/8 29/6/8
f 61/30/8 62/31/8 30/20/8
f 86/21/8 30/20/8 62/31/8
f 62/31/8 63/39/8 85/15/8
f 63/39/8 31/8/8 85/15/8
f 31/8/8 63/39/8 64/26/8
f 44/32/7 55/32/7 54/32/7
f 46/32/1 56/32/1 55/32/1
f 100/32/10 68/32/10 67/32/10
f 101/32/10 99/32/10 67/32/10
f 101/32/10 69/32/10 70/32/10
f 103/32/10 102/32/10 70/32/10
f 103/32/10 71/32/10 72/32/10
f 105/32/10 104/32/10 72/32/10
f 105/32/10 73/32/10 74/32/10
f 106/32/10 74/32/10 68/32/10
f 75/32/8 76/32/8 92/32/8
f 93/32/8 77/32/8 75/32/8
f 78/32/8 77/32/8 93/32/8
f 95/32/8 79/32/8 78/32/8
f 80/32/8 79/32/8 95/32/8
f 97/32/8 81/32/8 80/32/8
f 82/32/8 81/32/8 97/32/8
f 76/32/8 82/32/8 98/32/8
f 42/32/6 54/32/6 53/32/6
f 40/32/5 53/32/5 51/32/5
f 37/32/4 51/32/4 52/32/4
f 38/32/9 52/32/9 58/32/9
f 50/32/3 58/32/3 57/32/3
f 48/32/2 57/32/2 56/32/2
f 84/21/9 83/15/9 89/15/9
f 90/21/9 87/25/9 9/7/9
f 32/11/8 1/11/8 2/11/8
f 2/11/4 24/11/4 23/8/4
f 31/8/8 32/11/8 2/11/8
f 34/16/7 28/1/7 20/17/7
f 27/4/2 29/6/2 21/6/2
f 29/6/3 30/20/3 22/20/3
f 30/20/9 86/21/9 84/21/9
f 86/21/9 85/15/9 83/15/9
f 23/8/9 83/15/9 85/15/9
f 21/6/3 22/20/3 10/20/3
f 19/4/2 21/6/2 8/6/2
f 26/16/7 20/17/7 6/1/7
f 25/13/6 26/16/6 18/16/6
f 24/11/5 25/13/5 16/13/5
f 23/8/4 24/11/4 14/11/4
f 92/32/8 98/32/8 58/32/8
f 98/32/8 97/32/8 57/32/8
f 57/32/8 97/32/8 96/32/8
f 56/32/8 96/32/8 95/32/8
f 55/32/8 95/32/8 94/32/8
f 94/32/8 93/32/8 53/32/8
f 93/32/8 91/32/8 51/32/8
f 91/32/8 92/32/8 52/32/8
f 50/32/10 106/32/10 100/32/10
f 48/32/10 105/32/10 106/32/10
f 48/32/10 46/32/10 104/32/10
f 46/32/10 44/32/10 103/32/10
f 44/32/10 42/32/10 102/32/10
f 40/32/10 101/32/10 102/32/10
f 40/32/10 37/32/10 99/32/10
f 38/32/10 100/32/10 99/32/10
