# Blender 4.3.2
# www.blender.org
mtllib lighthousedoor.mtl
o Cube.005
v -2.548703 -0.476951 0.070526
v -2.548703 3.670573 0.070526
v -2.555243 -0.476951 -0.094038
v -2.555243 3.670573 -0.094038
v 0.371980 -0.476951 -0.045541
v 0.371980 3.670573 -0.045541
v 0.365440 -0.476951 -0.210105
v 0.365440 3.670573 -0.210105
vn -0.9992 -0.0000 0.0397
vn -0.0397 -0.0000 -0.9992
vn 0.9992 -0.0000 -0.0397
vn 0.0397 -0.0000 0.9992
vn -0.0000 -1.0000 -0.0000
vn -0.0000 1.0000 -0.0000
vt 0.625000 0.000000
vt 0.375000 0.250000
vt 0.375000 0.000000
vt 0.625000 0.250000
vt 0.375000 0.500000
vt 0.625000 0.500000
vt 0.375000 0.750000
vt 0.625000 0.750000
vt 0.375000 1.000000
vt 0.125000 0.750000
vt 0.125000 0.500000
vt 0.875000 0.500000
vt 0.625000 1.000000
vt 0.875000 0.750000
s 0
f 2/1/1 3/2/1 1/3/1
f 4/4/2 7/5/2 3/2/2
f 8/6/3 5/7/3 7/5/3
f 6/8/4 1/9/4 5/7/4
f 7/5/5 1/10/5 3/11/5
f 4/12/6 6/8/6 8/6/6
f 2/1/1 4/4/1 3/2/1
f 4/4/2 8/6/2 7/5/2
f 8/6/3 6/8/3 5/7/3
f 6/8/4 2/13/4 1/9/4
f 7/5/5 5/7/5 1/10/5
f 4/12/6 2/14/6 6/8/6
