# Blender 4.3.2
# www.blender.org
mtllib lighthousecol_01.mtl
o Cylinder.004
v 4.894658 -0.268672 -11.921743
v 11.890991 -0.268672 -4.968900
v 11.921743 -0.268672 4.894658
v 4.968900 -0.268672 11.890991
v -4.894658 -0.268672 11.921743
v -11.890991 -0.268672 4.968900
v -11.921743 -0.268672 -4.894658
v -4.968900 -0.268672 -11.890991
v 5.018907 -0.268672 -12.224373
v 12.192841 -0.268672 -5.095034
v 12.224373 -0.268672 5.018907
v 5.095034 -0.268672 12.192841
v -5.018907 -0.268672 12.224373
v -12.192841 -0.268672 5.095034
v -12.224373 -0.268672 -5.018907
v -5.095034 -0.268672 -12.192841
v 12.192841 7.372906 -5.095034
v 5.018907 7.372906 -12.224373
v 12.224373 7.372906 5.018907
v 5.095034 7.372906 12.192841
v -5.018907 7.372906 12.224373
v -12.192841 7.372906 5.095034
v -12.224373 7.372906 -5.018907
v -5.095034 7.372906 -12.192841
v 11.890991 7.372906 -4.968900
v 4.894658 7.372906 -11.921743
v 11.921743 7.372906 4.894658
v 4.968900 7.372906 11.890991
v -4.894658 7.372906 11.921743
v -11.890991 7.372906 4.968900
v -11.921743 7.372906 -4.894658
v -4.968900 7.372906 -11.890991
v -1.723720 -0.268672 -12.203351
v 1.647594 -0.268672 -12.213861
v -1.681047 -0.268672 -11.901241
v 1.606805 -0.268672 -11.911492
v 1.647593 7.372906 -12.213862
v -1.723720 7.372906 -12.203350
v 1.606805 7.372906 -11.911492
v -1.681047 7.372906 -11.901241
v 12.192841 4.427171 -5.095034
v 5.018907 4.427171 -12.224373
v -5.095034 4.427171 -12.192841
v 5.095034 4.427171 12.192841
v 12.224373 4.427171 5.018907
v -12.192841 4.427171 5.095034
v -12.224373 4.427171 -5.018907
v -5.018907 4.427171 12.224373
v -1.723720 4.427171 -12.203350
v 1.647594 4.427171 -12.213861
v 11.890991 4.427171 -4.968900
v 4.894658 4.427171 -11.921743
v 1.606805 4.427171 -11.911492
v 4.968900 4.427171 11.890991
v -4.894658 4.427171 11.921743
v 11.921743 4.427171 4.894658
v -1.681047 4.427171 -11.901241
v -4.968900 4.427171 -11.890991
v -11.921743 4.427171 -4.894658
v -11.890991 4.427171 4.968900
v -1.467431 3.894069 3.574168
v -3.574168 3.894069 -1.467431
v -1.489689 3.894069 -3.564949
v 1.489689 3.894069 3.564950
v 1.467430 3.894069 -3.574169
v 3.564950 3.894069 -1.489689
v -3.564950 3.894069 1.489689
v 3.574168 3.894069 1.467431
v -1.127728 3.894069 -3.564434
v 1.105470 3.894069 -3.574684
v 11.890991 3.894069 -4.968900
v 4.894658 3.894069 -11.921743
v 1.606805 3.894069 -11.911492
v 4.968900 3.894069 11.890991
v -4.894658 3.894069 11.921743
v 11.921743 3.894069 4.894658
v -1.681047 3.894069 -11.901241
v -4.968900 3.894069 -11.890991
v -11.921743 3.894069 -4.894658
v -11.890991 3.894069 4.968900
vn 1.0000 -0.0000 -0.0031
vn 0.7093 -0.0000 0.7049
vn 0.0031 -0.0000 1.0000
vn -0.7049 -0.0000 0.7093
vn -1.0000 -0.0000 0.0031
vn -0.7093 -0.0000 -0.7049
vn -0.0031 -0.0000 -1.0000
vn 0.7049 -0.0000 -0.7093
vn -0.0000 -1.0000 -0.0000
vn -0.0000 1.0000 -0.0000
vt 0.875000 1.000000
vt 0.750000 0.750000
vt 0.875000 0.750000
vt 0.750000 1.000000
vt 0.625000 0.750000
vt 0.625000 1.000000
vt 0.500000 0.750000
vt 0.500000 1.000000
vt 0.375000 0.750000
vt 0.375000 1.000000
vt 0.250000 0.750000
vt 0.250000 1.000000
vt 0.125000 0.750000
vt 0.334496 0.084496
vt 0.515942 0.250000
vt 0.265942 0.250000
vt 0.125000 1.000000
vt 0.083333 0.750000
vt 0.084496 0.084496
vt 0.500000 0.015942
vt 0.750000 0.484059
vt 0.919706 0.419706
vt 0.915505 0.415504
vt 0.484059 0.250000
vt 0.665504 0.415504
vt 0.734059 0.250000
vt 0.990000 0.250000
vt 0.984059 0.250000
vt 0.919706 0.080294
vt 0.915504 0.084496
vt 0.750000 0.010000
vt 0.750000 0.015942
vt 0.580294 0.080294
vt 0.584496 0.084496
vt 0.510000 0.250000
vt 0.580294 0.419706
vt 0.584496 0.415504
vt 0.636863 0.443137
vt 0.639664 0.438356
vt 0.389664 0.438356
vt 0.084496 0.415504
vt 0.334496 0.415504
vt 0.015942 0.250000
vt 0.444832 0.461207
vt 0.139664 0.438356
vt 0.415504 0.084496
vt 0.665504 0.084496
vt 0.415504 0.415504
vt 0.250000 0.490000
vt 0.250000 0.484059
vt 0.419706 0.419706
vt 0.490000 0.250000
vt 0.250000 0.015942
vt 0.419706 0.080294
vt 0.250000 0.010000
vt 0.080294 0.080294
vt 0.010000 0.250000
vt 0.193431 0.466569
vt 0.194832 0.461207
vt 0.136863 0.443137
vt 0.080294 0.419706
vt 0.693431 0.466569
vt 0.750000 0.490000
vt 0.500000 0.484059
vt 0.041667 1.000000
vt 0.000000 0.750000
vt 0.041667 0.750000
vt 1.000000 1.000000
vt 1.000000 0.750000
vt 0.875000 0.500000
vt 1.000000 0.500000
vt 0.000000 0.500000
vt 0.041667 0.500000
vt 0.083333 1.000000
vt 0.083333 0.500000
vt 0.125000 0.500000
vt 0.250000 0.500000
vt 0.375000 0.500000
vt 0.500000 0.500000
vt 0.625000 0.500000
vt 0.750000 0.500000
vt 0.694832 0.461207
vt 0.000000 1.000000
vt 0.000000 0.000000
s 0
f 17/1/1 45/2/1 41/3/1
f 19/4/2 44/5/2 45/2/2
f 20/6/3 48/7/3 44/5/3
f 21/8/4 46/9/4 48/7/4
f 22/10/5 47/11/5 46/9/5
f 23/12/6 43/13/6 47/11/6
f 60/14/1 7/15/1 59/16/1
f 24/17/7 49/18/7 43/13/7
f 30/19/8 55/20/8 60/14/8
f 1/21/9 10/22/9 2/23/9
f 27/24/5 51/25/5 56/26/5
f 2/23/9 11/27/9 3/28/9
f 3/28/9 12/29/9 4/30/9
f 4/30/9 13/31/9 5/32/9
f 5/32/9 14/33/9 6/34/9
f 6/34/9 15/35/9 7/15/9
f 7/15/9 16/36/9 8/37/9
f 8/37/9 33/38/9 35/39/9
f 57/40/3 32/41/3 58/42/3
f 58/42/2 31/43/2 59/16/2
f 53/44/3 40/45/3 57/40/3
f 28/46/6 56/26/6 54/47/6
f 54/47/7 5/32/7 55/20/7
f 25/48/10 18/49/10 26/50/10
f 27/24/10 17/51/10 25/48/10
f 28/46/10 19/52/10 27/24/10
f 29/53/10 20/54/10 28/46/10
f 30/19/10 21/55/10 29/53/10
f 31/43/10 22/56/10 30/19/10
f 32/41/10 23/57/10 31/43/10
f 26/50/10 37/58/10 39/59/10
f 32/41/10 38/60/10 24/61/10
f 39/59/10 38/60/10 40/45/10
f 1/21/9 34/62/9 9/63/9
f 26/50/3 53/44/3 52/64/3
f 37/65/7 42/66/7 50/67/7
f 51/25/4 26/50/4 52/64/4
f 18/68/8 41/3/8 42/69/8
f 42/69/8 10/70/8 9/71/8
f 50/67/7 9/72/7 34/73/7
f 37/65/7 49/18/7 38/74/7
f 43/13/7 33/75/7 16/76/7
f 47/11/6 16/76/6 15/77/6
f 46/9/5 15/77/5 14/78/5
f 48/7/4 14/78/4 13/79/4
f 44/5/3 13/79/3 12/80/3
f 45/2/2 12/80/2 11/81/2
f 41/3/1 11/81/1 10/70/1
f 2/23/4 52/64/4 1/21/4
f 52/64/3 36/82/3 1/21/3
f 28/46/7 55/20/7 29/53/7
f 54/47/6 3/28/6 4/30/6
f 8/37/2 59/16/2 7/15/2
f 35/39/3 58/42/3 8/37/3
f 56/26/5 2/23/5 3/28/5
f 60/14/8 5/32/8 6/34/8
f 30/19/1 59/16/1 31/43/1
f 17/1/1 19/4/1 45/2/1
f 19/4/2 20/6/2 44/5/2
f 20/6/3 21/8/3 48/7/3
f 21/8/4 22/10/4 46/9/4
f 22/10/5 23/12/5 47/11/5
f 23/12/6 24/17/6 43/13/6
f 60/14/1 6/34/1 7/15/1
f 24/17/7 38/74/7 49/18/7
f 30/19/8 29/53/8 55/20/8
f 1/21/9 9/63/9 10/22/9
f 27/24/5 25/48/5 51/25/5
f 2/23/9 10/22/9 11/27/9
f 3/28/9 11/27/9 12/29/9
f 4/30/9 12/29/9 13/31/9
f 5/32/9 13/31/9 14/33/9
f 6/34/9 14/33/9 15/35/9
f 7/15/9 15/35/9 16/36/9
f 8/37/9 16/36/9 33/38/9
f 57/40/3 40/45/3 32/41/3
f 58/42/2 32/41/2 31/43/2
f 53/44/3 39/59/3 40/45/3
f 28/46/6 27/24/6 56/26/6
f 54/47/7 4/30/7 5/32/7
f 25/48/10 17/51/10 18/49/10
f 27/24/10 19/52/10 17/51/10
f 28/46/10 20/54/10 19/52/10
f 29/53/10 21/55/10 20/54/10
f 30/19/10 22/56/10 21/55/10
f 31/43/10 23/57/10 22/56/10
f 32/41/10 24/61/10 23/57/10
f 26/50/10 18/49/10 37/58/10
f 32/41/10 40/45/10 38/60/10
f 39/59/10 37/58/10 38/60/10
f 1/21/9 36/82/9 34/62/9
f 26/50/3 39/59/3 53/44/3
f 37/65/7 18/83/7 42/66/7
f 51/25/4 25/48/4 26/50/4
f 18/68/8 17/1/8 41/3/8
f 42/69/8 41/3/8 10/70/8
f 50/67/7 42/66/7 9/72/7
f 37/65/7 50/67/7 49/18/7
f 43/13/7 49/18/7 33/75/7
f 47/11/6 43/13/6 16/76/6
f 46/9/5 47/11/5 15/77/5
f 48/7/4 46/9/4 14/78/4
f 44/5/3 48/7/3 13/79/3
f 45/2/2 44/5/2 12/80/2
f 41/3/1 45/2/1 11/81/1
f 2/23/4 51/25/4 52/64/4
f 52/64/3 53/44/3 36/82/3
f 28/46/7 54/47/7 55/20/7
f 54/47/6 56/26/6 3/28/6
f 8/37/2 58/42/2 59/16/2
f 35/39/3 57/40/3 58/42/3
f 56/26/5 51/25/5 2/23/5
f 60/14/8 55/20/8 5/32/8
f 30/19/1 60/14/1 59/16/1
f 71/84/10 65/84/10 66/84/10
f 65/84/10 73/84/10 70/84/10
f 75/84/10 64/84/10 61/84/10
f 74/84/10 68/84/10 64/84/10
f 70/84/10 77/84/10 69/84/10
f 78/84/10 62/84/10 63/84/10
f 77/84/10 63/84/10 69/84/10
f 76/84/10 66/84/10 68/84/10
f 80/84/10 61/84/10 67/84/10
f 79/84/10 67/84/10 62/84/10
f 71/84/10 72/84/10 65/84/10
f 65/84/10 72/84/10 73/84/10
f 75/84/10 74/84/10 64/84/10
f 74/84/10 76/84/10 68/84/10
f 70/84/10 73/84/10 77/84/10
f 78/84/10 79/84/10 62/84/10
f 77/84/10 78/84/10 63/84/10
f 76/84/10 71/84/10 66/84/10
f 80/84/10 75/84/10 61/84/10
f 79/84/10 80/84/10 67/84/10
