# Blender 4.2.3 LTS
# www.blender.org
mtllib walls.mtl
o Cube.001
v -14.308105 0.000000 14.308105
v -14.308105 8.099897 14.308105
v -14.308105 0.000000 -14.308105
v -14.308105 8.099897 -14.308105
v 14.308105 0.000000 14.308105
v 14.308105 8.099897 14.308105
v 14.308105 0.000000 -14.308105
v 14.308105 8.099897 -14.308105
vn 1.0000 -0.0000 -0.0000
vn -0.0000 -0.0000 1.0000
vn -1.0000 -0.0000 -0.0000
vn -0.0000 -0.0000 -1.0000
vt 0.000095 0.082019
vt 0.189734 0.746311
vt 0.000095 0.999905
vt 0.906821 0.000095
vt 0.231199 0.261873
vt 0.906821 0.917981
vt 0.717183 0.253689
vt 0.675717 0.738127
s 0
f 3/1/1 2/2/1 1/3/1
f 7/4/2 4/5/2 3/1/2
f 5/6/3 8/7/3 7/4/3
f 3/1/1 4/5/1 2/2/1
f 7/4/2 8/7/2 4/5/2
f 5/6/3 6/8/3 8/7/3
f 2/2/4 5/6/4 1/3/4
f 2/2/4 6/8/4 5/6/4
