# Blender 4.3.2
# www.blender.org
mtllib indicator_14.mtl
o Circle
v 6.720840 0.000000 -19.418282
v 6.700937 0.000000 -19.468330
v 6.651225 0.000000 -19.489061
v 6.600824 0.000000 -19.468330
v 6.579259 0.000000 -19.418282
v 6.599164 0.000000 -19.368231
v 6.648876 0.000000 -19.347498
v 6.699276 0.000000 -19.368231
v 6.650050 0.000000 -19.418282
v 6.718492 0.000000 -19.276615
v 6.698589 0.000000 -19.326769
v 6.648876 0.000000 -19.347498
v 6.598476 0.000000 -19.326769
v 6.576912 0.000000 -19.276821
v 6.596816 0.000000 -19.226898
v 6.646528 -0.000000 -19.205938
v 6.696928 0.000000 -19.226440
v 6.647702 0.000000 -19.276718
v 6.716141 0.000000 -19.134428
v 6.696239 0.000000 -19.184845
v 6.646528 -0.000000 -19.205938
v 6.596129 -0.000000 -19.185566
v 6.574567 0.000000 -19.135889
v 6.594471 0.000000 -19.085781
v 6.644180 0.000000 -19.064375
v 6.694575 -0.000000 -19.084435
v 6.645354 -0.000000 -19.135159
v 6.713783 -0.000000 -18.992235
v 6.693886 0.000000 -19.042841
v 6.644180 0.000000 -19.064375
v 6.593785 0.000000 -19.044451
v 6.572228 0.000000 -18.994955
v 6.592131 0.000000 -18.944664
v 6.641831 -0.000000 -18.922815
v 6.692220 -0.000000 -18.942429
v 6.643006 -0.000000 -18.993595
v 6.711420 0.000000 -18.850046
v 6.691528 0.000000 -18.900835
v 6.641831 -0.000000 -18.922815
v 6.591447 -0.000000 -18.903330
v 6.569895 0.000000 -18.854021
v 6.589795 0.000000 -18.803545
v 6.639483 -0.000000 -18.781252
v 6.689859 0.000000 -18.800421
v 6.640658 0.000000 -18.852034
v 6.707495 0.000000 -18.707895
v 6.689168 0.000000 -18.758829
v 6.639483 -0.000000 -18.781252
v 6.589112 0.000000 -18.762213
v 6.566012 -0.000000 -18.713152
v 6.584148 -0.000000 -18.662561
v 6.633090 0.000000 -18.639830
v 6.684179 0.000000 -18.658510
v 6.636754 -0.000000 -18.710524
v 6.700140 -0.000000 -18.565838
v 6.682027 0.000000 -18.616961
v 6.633090 0.000000 -18.639830
v 6.582008 0.000000 -18.621286
v 6.558712 0.000000 -18.572430
v 6.576842 -0.000000 -18.521641
v 6.625762 0.000000 -18.498438
v 6.676830 0.000000 -18.516647
v 6.629426 0.000000 -18.569134
v 6.692780 0.000000 -18.423779
v 6.674677 0.000000 -18.475096
v 6.625763 0.000000 -18.498438
v 6.574703 0.000000 -18.480368
v 6.551420 0.000000 -18.431705
v 6.569541 -0.000000 -18.380722
v 6.618437 0.000000 -18.357046
v 6.669478 0.000000 -18.374783
v 6.622100 -0.000000 -18.427742
v 6.685411 0.000000 -18.281721
v 6.667323 0.000000 -18.333233
v 6.618437 0.000000 -18.357046
v 6.567403 -0.000000 -18.339447
v 6.544133 0.000000 -18.290979
v 6.562244 0.000000 -18.239803
v 6.611109 0.000000 -18.215654
v 6.662121 -0.000000 -18.232922
v 6.614772 0.000000 -18.286350
v 6.675895 0.000000 -18.139790
v 6.659762 0.000000 -18.191383
v 6.611109 0.000000 -18.215654
v 6.559906 0.000000 -18.198544
v 6.534714 0.000000 -18.150433
v 6.550872 0.000000 -18.099207
v 6.598897 0.000000 -18.074612
v 6.650674 -0.000000 -18.091318
v 6.605304 0.000000 -18.145111
v 6.663021 0.000000 -17.998062
v 6.646909 0.000000 -18.049866
v 6.598897 0.000000 -18.074612
v 6.547132 0.000000 -18.058060
v 6.521958 0.000000 -18.010162
v 6.538102 0.000000 -17.958723
v 6.586082 0.000000 -17.933613
v 6.637815 -0.000000 -17.949800
v 6.592490 -0.000000 -18.004112
v 6.650140 -0.000000 -17.856333
v 6.634049 0.000000 -17.908350
v 6.586082 0.000000 -17.933613
v 6.534362 -0.000000 -17.917574
v 6.509210 0.000000 -17.869890
v 6.525336 0.000000 -17.818237
v 6.573267 -0.000000 -17.792612
v 6.624953 -0.000000 -17.808285
v 6.579675 0.000000 -17.863111
v 6.637251 0.000000 -17.714605
v 6.621184 -0.000000 -17.766836
v 6.573267 -0.000000 -17.792612
v 6.521598 0.000000 -17.777090
v 6.496469 0.000000 -17.729620
v 6.512575 0.000000 -17.677753
v 6.560453 -0.000000 -17.651611
v 6.612084 -0.000000 -17.666771
v 6.566860 -0.000000 -17.722113
v 6.621784 0.000000 -17.573133
v 6.607894 0.000000 -17.625364
v 6.560453 -0.000000 -17.651611
v 6.508420 -0.000000 -17.636656
v 6.481172 0.000000 -17.589670
v 6.495111 0.000000 -17.537842
v 6.542034 0.000000 -17.511244
v 6.594490 0.000000 -17.525745
v 6.551478 -0.000000 -17.581402
v 6.602796 -0.000000 -17.432013
v 6.588936 0.000000 -17.484482
v 6.542034 0.000000 -17.511244
v 6.489598 0.000000 -17.496910
v 6.462383 0.000000 -17.450159
v 6.476294 0.000000 -17.398094
v 6.523144 0.000000 -17.370928
v 6.575529 -0.000000 -17.384861
v 6.532589 0.000000 -17.441086
v 6.583798 -0.000000 -17.290894
v 6.569973 -0.000000 -17.343597
v 6.523144 0.000000 -17.370928
v 6.470783 0.000000 -17.357162
v 6.443601 0.000000 -17.310646
v 6.457483 0.000000 -17.258347
v 6.504254 0.000000 -17.230614
v 6.556559 -0.000000 -17.243977
v 6.513700 0.000000 -17.300770
v 6.564791 0.000000 -17.149776
v 6.551003 0.000000 -17.202713
v 6.504254 0.000000 -17.230614
v 6.451975 0.000000 -17.217415
v 6.424829 -0.000000 -17.171135
v 6.438680 0.000000 -17.118599
v 6.485365 0.000000 -17.090298
v 6.537585 0.000000 -17.103096
v 6.494810 0.000000 -17.160456
v 6.542848 0.000000 -17.009083
v 6.531489 0.000000 -17.061911
v 6.485365 0.000000 -17.090298
v 6.432638 -0.000000 -17.077757
v 6.403155 -0.000000 -17.032127
v 6.414587 -0.000000 -16.979748
v 6.460185 -0.000000 -16.950983
v 6.513291 0.000000 -16.963005
v 6.473001 0.000000 -17.020605
v 6.517062 0.000000 -16.868946
v 6.505752 -0.000000 -16.922037
v 6.460185 -0.000000 -16.950983
v 6.407113 0.000000 -16.939150
v 6.377676 -0.000000 -16.893780
v 6.389066 0.000000 -16.841137
v 6.434553 0.000000 -16.811743
v 6.487546 -0.000000 -16.823132
v 6.447369 0.000000 -16.881363
v 6.491265 0.000000 -16.728813
v 6.480005 0.000000 -16.782164
v 6.434553 0.000000 -16.811743
v 6.381593 0.000000 -16.800539
v 6.352208 -0.000000 -16.755432
v 6.363553 0.000000 -16.702526
v 6.408920 0.000000 -16.672501
v 6.461795 0.000000 -16.683258
v 6.421736 -0.000000 -16.742123
v 6.465456 0.000000 -16.588682
v 6.454250 0.000000 -16.642292
v 6.408920 0.000000 -16.672503
v 6.356082 -0.000000 -16.661926
v 6.326752 -0.000000 -16.617079
v 6.338048 0.000000 -16.563913
v 6.383287 0.000000 -16.533258
v 6.436034 0.000000 -16.543390
v 6.396104 0.000000 -16.602880
v 6.436313 0.000000 -16.449205
v 6.427824 0.000000 -16.502556
v 6.383287 -0.000000 -16.533260
v 6.329917 0.000000 -16.523464
v 6.298006 0.000000 -16.479479
v 6.306605 -0.000000 -16.426628
v 6.350596 -0.000000 -16.395515
v 6.404291 0.000000 -16.404720
v 6.367160 0.000000 -16.464342
v 6.402963 0.000000 -16.310555
v 6.394543 0.000000 -16.364199
v 6.350596 0.000000 -16.395515
v 6.296950 -0.000000 -16.386518
v 6.265108 0.000000 -16.342827
v 6.273643 0.000000 -16.289680
v 6.317473 0.000000 -16.257864
v 6.371003 -0.000000 -16.266365
v 6.334035 0.000000 -16.326691
v 6.369597 -0.000000 -16.171909
v 6.361252 0.000000 -16.225842
v 6.317472 0.000000 -16.257864
v 6.263991 0.000000 -16.249573
v 6.232224 0.000000 -16.206169
v 6.240693 0.000000 -16.152733
v 6.284348 0.000000 -16.120213
v 6.337706 0.000000 -16.128010
v 6.300911 0.000000 -16.189039
v 6.336218 -0.000000 -16.033266
v 6.327951 0.000000 -16.087486
v 6.284348 -0.000000 -16.120214
v 6.231044 0.000000 -16.112621
v 6.199355 0.000000 -16.069510
v 6.207753 0.000000 -16.015781
v 6.251224 0.000000 -15.982561
v 6.304397 0.000000 -15.989659
v 6.267787 -0.000000 -16.051388
v 6.298919 0.000000 -15.895626
v 6.293686 -0.000000 -15.949387
v 6.251225 0.000000 -15.982561
v 6.197159 0.000000 -15.975940
v 6.162628 -0.000000 -15.933970
v 6.168018 0.000000 -15.880770
v 6.210057 -0.000000 -15.847107
v 6.264231 -0.000000 -15.853097
v 6.230773 0.000000 -15.914798
v 6.257161 0.000000 -15.759130
v 6.252028 0.000000 -15.813214
v 6.210057 -0.000000 -15.847107
v 6.155949 0.000000 -15.841348
v 6.121518 0.000000 -15.799702
v 6.126818 -0.000000 -15.746173
v 6.168622 0.000000 -15.711723
v 6.222563 0.000000 -15.716928
v 6.189339 0.000000 -15.779415
v 6.215385 0.000000 -15.622635
v 6.210357 0.000000 -15.677045
v 6.168622 0.000000 -15.711723
v 6.114752 -0.000000 -15.706750
v 6.080426 -0.000000 -15.665429
v 6.085630 0.000000 -15.611574
v 6.127189 0.000000 -15.576342
v 6.180883 0.000000 -15.580763
v 6.147905 0.000000 -15.644032
v 6.173591 0.000000 -15.486150
v 6.168673 -0.000000 -15.540880
v 6.127189 -0.000000 -15.576342
v 6.073568 0.000000 -15.572149
v 6.039352 -0.000000 -15.531151
v 6.044455 -0.000000 -15.476970
v 6.085531 -0.000000 -15.441036
v 6.139190 0.000000 -15.444601
v 6.106472 -0.000000 -15.508650
v 6.126941 0.000000 -15.351245
v 6.125403 0.000000 -15.405242
v 6.085531 -0.000000 -15.441036
v 6.030837 -0.000000 -15.438104
v 5.993514 0.000000 -15.398599
v 5.995274 -0.000000 -15.345226
v 6.034925 -0.000000 -15.308807
v 6.089398 0.000000 -15.311120
v 6.060227 0.000000 -15.374922
v 6.075883 0.000000 -15.217778
v 6.074482 -0.000000 -15.272136
v 6.034925 -0.000000 -15.308807
v 5.980546 0.000000 -15.306753
v 5.943361 0.000000 -15.267612
v 5.944994 -0.000000 -15.213871
v 5.984319 0.000000 -15.176579
v 6.038466 0.000000 -15.178017
v 6.009623 -0.000000 -15.242695
v 6.024801 0.000000 -15.084319
v 6.023546 0.000000 -15.139034
v 5.984319 0.000000 -15.176579
v 5.930271 -0.000000 -15.175397
v 5.893232 -0.000000 -15.136615
v 5.894731 0.000000 -15.082510
v 5.933713 -0.000000 -15.044352
v 5.987519 -0.000000 -15.044920
v 5.959017 -0.000000 -15.110467
v 5.973698 0.000000 -14.950868
v 5.972593 0.000000 -15.005939
v 5.933713 -0.000000 -15.044352
v 5.880013 0.000000 -15.044036
v 5.843126 0.000000 -15.005607
v 5.844484 0.000000 -14.951145
v 5.881900 0.000000 -14.912640
v 5.936555 -0.000000 -14.911830
v 5.908412 -0.000000 -14.978237
v 5.916302 -0.000000 -14.819986
v 5.918935 -0.000000 -14.873964
v 5.881900 0.000000 -14.912640
v 5.827106 0.000000 -14.913841
v 5.786864 0.000000 -14.877352
v 5.784535 0.000000 -14.824060
v 5.821266 0.000000 -14.784701
v 5.875756 0.000000 -14.782814
v 5.851583 -0.000000 -14.848669
v 5.855046 0.000000 -14.690684
v 5.857867 0.000000 -14.745057
v 5.821266 0.000000 -14.784701
v 5.766903 0.000000 -14.786868
v 5.726849 -0.000000 -14.750776
v 5.724346 0.000000 -14.697080
v 5.760630 -0.000000 -14.656760
v 5.814674 -0.000000 -14.653913
v 5.790947 -0.000000 -14.720731
v 5.793760 0.000000 -14.561397
v 5.796780 0.000000 -14.616161
v 5.760630 -0.000000 -14.656760
v 5.706720 0.000000 -14.659886
v 5.666863 0.000000 -14.624186
v 5.664176 0.000000 -14.570091
v 5.699995 0.000000 -14.528821
v 5.753572 0.000000 -14.525023
v 5.730312 0.000000 -14.592791
v 5.732447 0.000000 -14.432122
v 5.735672 0.000000 -14.487273
v 5.699995 0.000000 -14.528821
v 5.646557 -0.000000 -14.532896
v 5.606906 -0.000000 -14.497580
v 5.602821 0.000000 -14.443747
v 5.636563 0.000000 -14.402357
v 5.691228 -0.000000 -14.396770
v 5.669677 -0.000000 -14.464851
v 5.662838 0.000000 -14.307063
v 5.670140 0.000000 -14.360659
v 5.636563 0.000000 -14.402357
v 5.582062 0.000000 -14.408251
v 5.538848 -0.000000 -14.375414
v 5.531955 0.000000 -14.322556
v 5.565124 -0.000000 -14.280122
v 5.619217 -0.000000 -14.273487
v 5.600843 0.000000 -14.341238
v 5.590567 0.000000 -14.183360
v 5.598121 -0.000000 -14.237381
v 5.565124 -0.000000 -14.280122
v 5.511202 0.000000 -14.287059
v 5.468242 -0.000000 -14.254647
v 5.461112 0.000000 -14.201353
v 5.493684 0.000000 -14.157886
v 5.547182 0.000000 -14.150219
v 5.529405 -0.000000 -14.219004
v 5.518261 -0.000000 -14.059676
v 5.526078 0.000000 -14.114117
v 5.493684 0.000000 -14.157886
v 5.440367 -0.000000 -14.165850
v 5.397669 0.000000 -14.133857
v 5.390294 0.000000 -14.080133
v 5.422246 0.000000 -14.035648
v 5.475121 0.000000 -14.026965
v 5.457965 0.000000 -14.096766
v 5.445922 0.000000 -13.936013
v 5.454010 -0.000000 -13.990867
v 5.422246 0.000000 -14.035648
v 5.369557 0.000000 -14.044626
v 5.327131 -0.000000 -14.013046
v 5.316235 -0.000000 -13.961071
v 5.345854 0.000000 -13.916636
v 5.399728 0.000000 -13.905831
v 5.386526 0.000000 -13.974529
v 5.362808 -0.000000 -13.819153
v 5.375257 0.000000 -13.871874
v 5.345854 0.000000 -13.916636
v 5.292194 -0.000000 -13.927759
v 5.246085 0.000000 -13.899282
v 5.234166 0.000000 -13.847333
v 5.263038 -0.000000 -13.801800
v 5.316167 -0.000000 -13.789903
v 5.304447 -0.000000 -13.859219
v 5.278912 0.000000 -13.702787
v 5.291688 0.000000 -13.755950
v 5.263038 -0.000000 -13.801800
v 5.210133 0.000000 -13.814014
v 5.164350 -0.000000 -13.785978
v 5.152125 0.000000 -13.733574
v 5.180223 0.000000 -13.686965
v 5.232578 -0.000000 -13.673993
v 5.221631 -0.000000 -13.744382
v 5.194976 0.000000 -13.586450
v 5.208090 0.000000 -13.640045
v 5.180223 0.000000 -13.686965
v 5.128101 -0.000000 -13.700249
v 5.082655 -0.000000 -13.672646
v 5.070112 0.000000 -13.619793
v 5.097408 0.000000 -13.572131
v 5.148961 -0.000000 -13.558104
v 5.138816 0.000000 -13.629548
v 5.109398 0.000000 -13.471410
v 5.124464 0.000000 -13.524163
v 5.097408 0.000000 -13.572131
v 5.046096 -0.000000 -13.586463
v 4.999423 -0.000000 -13.560576
v 4.982467 0.000000 -13.510606
v 5.007203 0.000000 -13.463242
v 5.059592 0.000000 -13.446776
v 5.054410 0.000000 -13.515993
v 5.013691 -0.000000 -13.364360
v 5.031671 0.000000 -13.415556
v 5.007203 0.000000 -13.463242
v 4.955080 0.000000 -13.480026
v 4.906298 0.000000 -13.456619
v 4.888975 -0.000000 -13.406188
v 4.912787 0.000000 -13.357738
v 4.964254 0.000000 -13.340190
v 4.959995 0.000000 -13.410489
v 4.917943 -0.000000 -13.257346
v 4.936324 -0.000000 -13.308973
v 4.912787 0.000000 -13.357738
v 4.861598 0.000000 -13.375598
v 4.813218 0.000000 -13.352625
v 4.795514 0.000000 -13.301741
v 4.818373 0.000000 -13.252234
v 4.868885 -0.000000 -13.233626
v 4.865580 -0.000000 -13.304986
v 4.822152 0.000000 -13.150373
v 4.840946 0.000000 -13.202421
v 4.818373 0.000000 -13.252234
v 4.768146 -0.000000 -13.271144
v 4.720178 -0.000000 -13.248590
v 4.702083 -0.000000 -13.197266
v 4.723957 -0.000000 -13.146729
v 4.773486 0.000000 -13.127095
v 4.771165 0.000000 -13.199482
v 4.726808 -0.000000 -13.043921
v 4.745539 0.000000 -13.095896
v 4.723957 -0.000000 -13.146729
v 4.674722 -0.000000 -13.166661
v 4.626692 0.000000 -13.144033
v 4.607973 -0.000000 -13.092071
v 4.629542 0.000000 -13.041224
v 4.678765 0.000000 -13.021282
v 4.676750 -0.000000 -13.093978
v 4.632393 -0.000000 -12.938417
v 4.651112 0.000000 -12.990379
v 4.629542 0.000000 -13.041224
v 4.580319 -0.000000 -13.061170
v 4.532277 0.000000 -13.038528
v 4.513558 -0.000000 -12.986566
v 4.535127 0.000000 -12.935720
v 4.584350 0.000000 -12.915777
v 4.582335 -0.000000 -12.988473
vn -0.0000 1.0000 -0.0000
vt 0.257812 0.500000
vt 0.159088 0.082901
vt 0.356537 0.082901
vt 0.019470 0.672768
vt 0.019470 0.327232
vt 0.496155 0.327232
vt 0.356537 0.917099
vt 0.496155 0.672768
vt 0.159088 0.917099
s 0
f 9/1/1 8/2/1 1/3/1
f 9/1/1 6/4/1 7/5/1
f 2/6/1 9/1/1 1/3/1
f 4/7/1 9/1/1 3/8/1
f 9/1/1 7/5/1 8/2/1
f 9/1/1 5/9/1 6/4/1
f 2/6/1 3/8/1 9/1/1
f 4/7/1 5/9/1 9/1/1
f 18/1/1 17/2/1 10/3/1
f 18/1/1 15/4/1 16/5/1
f 11/6/1 18/1/1 10/3/1
f 13/7/1 18/1/1 12/8/1
f 18/1/1 16/5/1 17/2/1
f 18/1/1 14/9/1 15/4/1
f 11/6/1 12/8/1 18/1/1
f 13/7/1 14/9/1 18/1/1
f 27/1/1 26/2/1 19/3/1
f 27/1/1 24/4/1 25/5/1
f 20/6/1 27/1/1 19/3/1
f 22/7/1 27/1/1 21/8/1
f 27/1/1 25/5/1 26/2/1
f 27/1/1 23/9/1 24/4/1
f 20/6/1 21/8/1 27/1/1
f 22/7/1 23/9/1 27/1/1
f 36/1/1 35/2/1 28/3/1
f 36/1/1 33/4/1 34/5/1
f 29/6/1 36/1/1 28/3/1
f 31/7/1 36/1/1 30/8/1
f 36/1/1 34/5/1 35/2/1
f 36/1/1 32/9/1 33/4/1
f 29/6/1 30/8/1 36/1/1
f 31/7/1 32/9/1 36/1/1
f 45/1/1 44/2/1 37/3/1
f 45/1/1 42/4/1 43/5/1
f 38/6/1 45/1/1 37/3/1
f 40/7/1 45/1/1 39/8/1
f 45/1/1 43/5/1 44/2/1
f 45/1/1 41/9/1 42/4/1
f 38/6/1 39/8/1 45/1/1
f 40/7/1 41/9/1 45/1/1
f 54/1/1 53/2/1 46/3/1
f 54/1/1 51/4/1 52/5/1
f 47/6/1 54/1/1 46/3/1
f 49/7/1 54/1/1 48/8/1
f 54/1/1 52/5/1 53/2/1
f 54/1/1 50/9/1 51/4/1
f 47/6/1 48/8/1 54/1/1
f 49/7/1 50/9/1 54/1/1
f 63/1/1 62/2/1 55/3/1
f 63/1/1 60/4/1 61/5/1
f 56/6/1 63/1/1 55/3/1
f 58/7/1 63/1/1 57/8/1
f 63/1/1 61/5/1 62/2/1
f 63/1/1 59/9/1 60/4/1
f 56/6/1 57/8/1 63/1/1
f 58/7/1 59/9/1 63/1/1
f 72/1/1 71/2/1 64/3/1
f 72/1/1 69/4/1 70/5/1
f 65/6/1 72/1/1 64/3/1
f 67/7/1 72/1/1 66/8/1
f 72/1/1 70/5/1 71/2/1
f 72/1/1 68/9/1 69/4/1
f 65/6/1 66/8/1 72/1/1
f 67/7/1 68/9/1 72/1/1
f 81/1/1 80/2/1 73/3/1
f 81/1/1 78/4/1 79/5/1
f 74/6/1 81/1/1 73/3/1
f 76/7/1 81/1/1 75/8/1
f 81/1/1 79/5/1 80/2/1
f 81/1/1 77/9/1 78/4/1
f 74/6/1 75/8/1 81/1/1
f 76/7/1 77/9/1 81/1/1
f 90/1/1 89/2/1 82/3/1
f 90/1/1 87/4/1 88/5/1
f 83/6/1 90/1/1 82/3/1
f 85/7/1 90/1/1 84/8/1
f 90/1/1 88/5/1 89/2/1
f 90/1/1 86/9/1 87/4/1
f 83/6/1 84/8/1 90/1/1
f 85/7/1 86/9/1 90/1/1
f 99/1/1 98/2/1 91/3/1
f 99/1/1 96/4/1 97/5/1
f 92/6/1 99/1/1 91/3/1
f 94/7/1 99/1/1 93/8/1
f 99/1/1 97/5/1 98/2/1
f 99/1/1 95/9/1 96/4/1
f 92/6/1 93/8/1 99/1/1
f 94/7/1 95/9/1 99/1/1
f 108/1/1 107/2/1 100/3/1
f 108/1/1 105/4/1 106/5/1
f 101/6/1 108/1/1 100/3/1
f 103/7/1 108/1/1 102/8/1
f 108/1/1 106/5/1 107/2/1
f 108/1/1 104/9/1 105/4/1
f 101/6/1 102/8/1 108/1/1
f 103/7/1 104/9/1 108/1/1
f 117/1/1 116/2/1 109/3/1
f 117/1/1 114/4/1 115/5/1
f 110/6/1 117/1/1 109/3/1
f 112/7/1 117/1/1 111/8/1
f 117/1/1 115/5/1 116/2/1
f 117/1/1 113/9/1 114/4/1
f 110/6/1 111/8/1 117/1/1
f 112/7/1 113/9/1 117/1/1
f 126/1/1 125/2/1 118/3/1
f 126/1/1 123/4/1 124/5/1
f 119/6/1 126/1/1 118/3/1
f 121/7/1 126/1/1 120/8/1
f 126/1/1 124/5/1 125/2/1
f 126/1/1 122/9/1 123/4/1
f 119/6/1 120/8/1 126/1/1
f 121/7/1 122/9/1 126/1/1
f 135/1/1 134/2/1 127/3/1
f 135/1/1 132/4/1 133/5/1
f 128/6/1 135/1/1 127/3/1
f 130/7/1 135/1/1 129/8/1
f 135/1/1 133/5/1 134/2/1
f 135/1/1 131/9/1 132/4/1
f 128/6/1 129/8/1 135/1/1
f 130/7/1 131/9/1 135/1/1
f 144/1/1 143/2/1 136/3/1
f 144/1/1 141/4/1 142/5/1
f 137/6/1 144/1/1 136/3/1
f 139/7/1 144/1/1 138/8/1
f 144/1/1 142/5/1 143/2/1
f 144/1/1 140/9/1 141/4/1
f 137/6/1 138/8/1 144/1/1
f 139/7/1 140/9/1 144/1/1
f 153/1/1 152/2/1 145/3/1
f 153/1/1 150/4/1 151/5/1
f 146/6/1 153/1/1 145/3/1
f 148/7/1 153/1/1 147/8/1
f 153/1/1 151/5/1 152/2/1
f 153/1/1 149/9/1 150/4/1
f 146/6/1 147/8/1 153/1/1
f 148/7/1 149/9/1 153/1/1
f 162/1/1 161/2/1 154/3/1
f 162/1/1 159/4/1 160/5/1
f 155/6/1 162/1/1 154/3/1
f 157/7/1 162/1/1 156/8/1
f 162/1/1 160/5/1 161/2/1
f 162/1/1 158/9/1 159/4/1
f 155/6/1 156/8/1 162/1/1
f 157/7/1 158/9/1 162/1/1
f 171/1/1 170/2/1 163/3/1
f 171/1/1 168/4/1 169/5/1
f 164/6/1 171/1/1 163/3/1
f 166/7/1 171/1/1 165/8/1
f 171/1/1 169/5/1 170/2/1
f 171/1/1 167/9/1 168/4/1
f 164/6/1 165/8/1 171/1/1
f 166/7/1 167/9/1 171/1/1
f 180/1/1 179/2/1 172/3/1
f 180/1/1 177/4/1 178/5/1
f 173/6/1 180/1/1 172/3/1
f 175/7/1 180/1/1 174/8/1
f 180/1/1 178/5/1 179/2/1
f 180/1/1 176/9/1 177/4/1
f 173/6/1 174/8/1 180/1/1
f 175/7/1 176/9/1 180/1/1
f 189/1/1 188/2/1 181/3/1
f 189/1/1 186/4/1 187/5/1
f 182/6/1 189/1/1 181/3/1
f 184/7/1 189/1/1 183/8/1
f 189/1/1 187/5/1 188/2/1
f 189/1/1 185/9/1 186/4/1
f 182/6/1 183/8/1 189/1/1
f 184/7/1 185/9/1 189/1/1
f 198/1/1 197/2/1 190/3/1
f 198/1/1 195/4/1 196/5/1
f 191/6/1 198/1/1 190/3/1
f 193/7/1 198/1/1 192/8/1
f 198/1/1 196/5/1 197/2/1
f 198/1/1 194/9/1 195/4/1
f 191/6/1 192/8/1 198/1/1
f 193/7/1 194/9/1 198/1/1
f 207/1/1 206/2/1 199/3/1
f 207/1/1 204/4/1 205/5/1
f 200/6/1 207/1/1 199/3/1
f 202/7/1 207/1/1 201/8/1
f 207/1/1 205/5/1 206/2/1
f 207/1/1 203/9/1 204/4/1
f 200/6/1 201/8/1 207/1/1
f 202/7/1 203/9/1 207/1/1
f 216/1/1 215/2/1 208/3/1
f 216/1/1 213/4/1 214/5/1
f 209/6/1 216/1/1 208/3/1
f 211/7/1 216/1/1 210/8/1
f 216/1/1 214/5/1 215/2/1
f 216/1/1 212/9/1 213/4/1
f 209/6/1 210/8/1 216/1/1
f 211/7/1 212/9/1 216/1/1
f 225/1/1 224/2/1 217/3/1
f 225/1/1 222/4/1 223/5/1
f 218/6/1 225/1/1 217/3/1
f 220/7/1 225/1/1 219/8/1
f 225/1/1 223/5/1 224/2/1
f 225/1/1 221/9/1 222/4/1
f 218/6/1 219/8/1 225/1/1
f 220/7/1 221/9/1 225/1/1
f 234/1/1 233/2/1 226/3/1
f 234/1/1 231/4/1 232/5/1
f 227/6/1 234/1/1 226/3/1
f 229/7/1 234/1/1 228/8/1
f 234/1/1 232/5/1 233/2/1
f 234/1/1 230/9/1 231/4/1
f 227/6/1 228/8/1 234/1/1
f 229/7/1 230/9/1 234/1/1
f 243/1/1 242/2/1 235/3/1
f 243/1/1 240/4/1 241/5/1
f 236/6/1 243/1/1 235/3/1
f 238/7/1 243/1/1 237/8/1
f 243/1/1 241/5/1 242/2/1
f 243/1/1 239/9/1 240/4/1
f 236/6/1 237/8/1 243/1/1
f 238/7/1 239/9/1 243/1/1
f 252/1/1 251/2/1 244/3/1
f 252/1/1 249/4/1 250/5/1
f 245/6/1 252/1/1 244/3/1
f 247/7/1 252/1/1 246/8/1
f 252/1/1 250/5/1 251/2/1
f 252/1/1 248/9/1 249/4/1
f 245/6/1 246/8/1 252/1/1
f 247/7/1 248/9/1 252/1/1
f 261/1/1 260/2/1 253/3/1
f 261/1/1 258/4/1 259/5/1
f 254/6/1 261/1/1 253/3/1
f 256/7/1 261/1/1 255/8/1
f 261/1/1 259/5/1 260/2/1
f 261/1/1 257/9/1 258/4/1
f 254/6/1 255/8/1 261/1/1
f 256/7/1 257/9/1 261/1/1
f 270/1/1 269/2/1 262/3/1
f 270/1/1 267/4/1 268/5/1
f 263/6/1 270/1/1 262/3/1
f 265/7/1 270/1/1 264/8/1
f 270/1/1 268/5/1 269/2/1
f 270/1/1 266/9/1 267/4/1
f 263/6/1 264/8/1 270/1/1
f 265/7/1 266/9/1 270/1/1
f 279/1/1 278/2/1 271/3/1
f 279/1/1 276/4/1 277/5/1
f 272/6/1 279/1/1 271/3/1
f 274/7/1 279/1/1 273/8/1
f 279/1/1 277/5/1 278/2/1
f 279/1/1 275/9/1 276/4/1
f 272/6/1 273/8/1 279/1/1
f 274/7/1 275/9/1 279/1/1
f 288/1/1 287/2/1 280/3/1
f 288/1/1 285/4/1 286/5/1
f 281/6/1 288/1/1 280/3/1
f 283/7/1 288/1/1 282/8/1
f 288/1/1 286/5/1 287/2/1
f 288/1/1 284/9/1 285/4/1
f 281/6/1 282/8/1 288/1/1
f 283/7/1 284/9/1 288/1/1
f 297/1/1 296/2/1 289/3/1
f 297/1/1 294/4/1 295/5/1
f 290/6/1 297/1/1 289/3/1
f 292/7/1 297/1/1 291/8/1
f 297/1/1 295/5/1 296/2/1
f 297/1/1 293/9/1 294/4/1
f 290/6/1 291/8/1 297/1/1
f 292/7/1 293/9/1 297/1/1
f 306/1/1 305/2/1 298/3/1
f 306/1/1 303/4/1 304/5/1
f 299/6/1 306/1/1 298/3/1
f 301/7/1 306/1/1 300/8/1
f 306/1/1 304/5/1 305/2/1
f 306/1/1 302/9/1 303/4/1
f 299/6/1 300/8/1 306/1/1
f 301/7/1 302/9/1 306/1/1
f 315/1/1 314/2/1 307/3/1
f 315/1/1 312/4/1 313/5/1
f 308/6/1 315/1/1 307/3/1
f 310/7/1 315/1/1 309/8/1
f 315/1/1 313/5/1 314/2/1
f 315/1/1 311/9/1 312/4/1
f 308/6/1 309/8/1 315/1/1
f 310/7/1 311/9/1 315/1/1
f 324/1/1 323/2/1 316/3/1
f 324/1/1 321/4/1 322/5/1
f 317/6/1 324/1/1 316/3/1
f 319/7/1 324/1/1 318/8/1
f 324/1/1 322/5/1 323/2/1
f 324/1/1 320/9/1 321/4/1
f 317/6/1 318/8/1 324/1/1
f 319/7/1 320/9/1 324/1/1
f 333/1/1 332/2/1 325/3/1
f 333/1/1 330/4/1 331/5/1
f 326/6/1 333/1/1 325/3/1
f 328/7/1 333/1/1 327/8/1
f 333/1/1 331/5/1 332/2/1
f 333/1/1 329/9/1 330/4/1
f 326/6/1 327/8/1 333/1/1
f 328/7/1 329/9/1 333/1/1
f 342/1/1 341/2/1 334/3/1
f 342/1/1 339/4/1 340/5/1
f 335/6/1 342/1/1 334/3/1
f 337/7/1 342/1/1 336/8/1
f 342/1/1 340/5/1 341/2/1
f 342/1/1 338/9/1 339/4/1
f 335/6/1 336/8/1 342/1/1
f 337/7/1 338/9/1 342/1/1
f 351/1/1 350/2/1 343/3/1
f 351/1/1 348/4/1 349/5/1
f 344/6/1 351/1/1 343/3/1
f 346/7/1 351/1/1 345/8/1
f 351/1/1 349/5/1 350/2/1
f 351/1/1 347/9/1 348/4/1
f 344/6/1 345/8/1 351/1/1
f 346/7/1 347/9/1 351/1/1
f 360/1/1 359/2/1 352/3/1
f 360/1/1 357/4/1 358/5/1
f 353/6/1 360/1/1 352/3/1
f 355/7/1 360/1/1 354/8/1
f 360/1/1 358/5/1 359/2/1
f 360/1/1 356/9/1 357/4/1
f 353/6/1 354/8/1 360/1/1
f 355/7/1 356/9/1 360/1/1
f 369/1/1 368/2/1 361/3/1
f 369/1/1 366/4/1 367/5/1
f 362/6/1 369/1/1 361/3/1
f 364/7/1 369/1/1 363/8/1
f 369/1/1 367/5/1 368/2/1
f 369/1/1 365/9/1 366/4/1
f 362/6/1 363/8/1 369/1/1
f 364/7/1 365/9/1 369/1/1
f 378/1/1 377/2/1 370/3/1
f 378/1/1 375/4/1 376/5/1
f 371/6/1 378/1/1 370/3/1
f 373/7/1 378/1/1 372/8/1
f 378/1/1 376/5/1 377/2/1
f 378/1/1 374/9/1 375/4/1
f 371/6/1 372/8/1 378/1/1
f 373/7/1 374/9/1 378/1/1
f 387/1/1 386/2/1 379/3/1
f 387/1/1 384/4/1 385/5/1
f 380/6/1 387/1/1 379/3/1
f 382/7/1 387/1/1 381/8/1
f 387/1/1 385/5/1 386/2/1
f 387/1/1 383/9/1 384/4/1
f 380/6/1 381/8/1 387/1/1
f 382/7/1 383/9/1 387/1/1
f 396/1/1 395/2/1 388/3/1
f 396/1/1 393/4/1 394/5/1
f 389/6/1 396/1/1 388/3/1
f 391/7/1 396/1/1 390/8/1
f 396/1/1 394/5/1 395/2/1
f 396/1/1 392/9/1 393/4/1
f 389/6/1 390/8/1 396/1/1
f 391/7/1 392/9/1 396/1/1
f 405/1/1 404/2/1 397/3/1
f 405/1/1 402/4/1 403/5/1
f 398/6/1 405/1/1 397/3/1
f 400/7/1 405/1/1 399/8/1
f 405/1/1 403/5/1 404/2/1
f 405/1/1 401/9/1 402/4/1
f 398/6/1 399/8/1 405/1/1
f 400/7/1 401/9/1 405/1/1
f 414/1/1 413/2/1 406/3/1
f 414/1/1 411/4/1 412/5/1
f 407/6/1 414/1/1 406/3/1
f 409/7/1 414/1/1 408/8/1
f 414/1/1 412/5/1 413/2/1
f 414/1/1 410/9/1 411/4/1
f 407/6/1 408/8/1 414/1/1
f 409/7/1 410/9/1 414/1/1
f 423/1/1 422/2/1 415/3/1
f 423/1/1 420/4/1 421/5/1
f 416/6/1 423/1/1 415/3/1
f 418/7/1 423/1/1 417/8/1
f 423/1/1 421/5/1 422/2/1
f 423/1/1 419/9/1 420/4/1
f 416/6/1 417/8/1 423/1/1
f 418/7/1 419/9/1 423/1/1
f 432/1/1 431/2/1 424/3/1
f 432/1/1 429/4/1 430/5/1
f 425/6/1 432/1/1 424/3/1
f 427/7/1 432/1/1 426/8/1
f 432/1/1 430/5/1 431/2/1
f 432/1/1 428/9/1 429/4/1
f 425/6/1 426/8/1 432/1/1
f 427/7/1 428/9/1 432/1/1
f 441/1/1 440/2/1 433/3/1
f 441/1/1 438/4/1 439/5/1
f 434/6/1 441/1/1 433/3/1
f 436/7/1 441/1/1 435/8/1
f 441/1/1 439/5/1 440/2/1
f 441/1/1 437/9/1 438/4/1
f 434/6/1 435/8/1 441/1/1
f 436/7/1 437/9/1 441/1/1
f 450/1/1 449/2/1 442/3/1
f 450/1/1 447/4/1 448/5/1
f 443/6/1 450/1/1 442/3/1
f 445/7/1 450/1/1 444/8/1
f 450/1/1 448/5/1 449/2/1
f 450/1/1 446/9/1 447/4/1
f 443/6/1 444/8/1 450/1/1
f 445/7/1 446/9/1 450/1/1
