# Blender 4.3.2
# www.blender.org
mtllib indicator_02.mtl
o Circle.001
v -11.062686 3.769426 0.435997
v -11.123751 3.769426 0.381016
v -11.205731 3.769426 0.386586
v -11.260604 3.769426 0.449444
v -11.256226 3.769426 0.532768
v -11.195388 3.769425 0.587292
v -11.113180 3.769425 0.582179
v -11.058082 3.769425 0.519778
v -11.159455 3.769426 0.484382
v -10.941214 3.769426 0.692655
v -11.002834 3.769426 0.636514
v -11.085416 3.769425 0.640857
v -11.140887 3.769426 0.702487
v -11.137068 3.769426 0.784651
v -11.075879 3.769426 0.839868
v -10.992865 3.769425 0.836449
v -10.936958 3.769426 0.775742
v -11.039141 3.769426 0.738653
v -10.824023 3.769425 0.950403
v -10.883880 3.769426 0.893149
v -10.966352 3.769426 0.895698
v -11.023271 3.769426 0.956246
v -11.021434 3.769425 1.039010
v -10.961777 3.769425 1.095822
v -10.879107 3.769425 1.093714
v -10.821988 3.769425 1.033610
v -10.922729 3.769425 0.994707
v -10.710095 3.769426 1.208976
v -10.770097 3.769426 1.151383
v -10.852932 3.769426 1.153119
v -10.910213 3.769426 1.212852
v -10.908525 3.769426 1.295279
v -10.849254 3.769426 1.352813
v -10.766600 3.769426 1.351532
v -10.708861 3.769426 1.291975
v -10.809310 3.769426 1.252127
v -10.599177 3.769426 1.467894
v -10.658382 3.769425 1.410032
v -10.741077 3.769426 1.411219
v -10.798856 3.769425 1.470680
v -10.797906 3.769426 1.553504
v -10.738750 3.769425 1.611252
v -10.656005 3.769426 1.610178
v -10.598179 3.769426 1.550830
v -10.698542 3.769426 1.510699
v -10.488480 3.769426 1.726737
v -10.547701 3.769426 1.668887
v -10.630486 3.769426 1.669866
v -10.688353 3.769425 1.729120
v -10.687383 3.769426 1.811940
v -10.628122 3.769426 1.869844
v -10.545351 3.769425 1.868799
v -10.487521 3.769426 1.809491
v -10.587931 3.769425 1.769338
v -10.377889 3.769425 1.985061
v -10.437069 3.769425 1.927342
v -10.519802 3.769425 1.928476
v -10.577594 3.769425 1.987872
v -10.576555 3.769426 2.070812
v -10.517329 3.769426 2.128636
v -10.434642 3.769426 2.127397
v -10.376896 3.769426 2.067896
v -10.477222 3.769426 2.027937
v -10.266660 3.769426 2.242958
v -10.326443 3.769426 2.185746
v -10.409094 3.769425 2.187074
v -10.466800 3.769426 2.246664
v -10.464980 3.769425 2.329508
v -10.405066 3.769426 2.387001
v -10.322250 3.769426 2.385264
v -10.264956 3.769426 2.325517
v -10.365820 3.769426 2.286233
v -10.153702 3.769425 2.499701
v -10.213396 3.769425 2.442708
v -10.296107 3.769426 2.444683
v -10.353295 3.769425 2.504669
v -10.351372 3.769425 2.587727
v -10.291553 3.769425 2.645003
v -10.208966 3.769426 2.642745
v -10.151905 3.769425 2.582476
v -10.252537 3.769425 2.543714
v -10.039271 3.769426 2.755600
v -10.100145 3.769425 2.699561
v -10.182823 3.769425 2.702164
v -10.239566 3.769425 2.762591
v -10.236144 3.769426 2.845395
v -10.175062 3.769425 2.901898
v -10.092247 3.769426 2.898674
v -10.036064 3.769425 2.837940
v -10.137708 3.769426 2.800498
v -9.921628 3.769426 3.009658
v -9.982335 3.769426 2.953969
v -10.064968 3.769425 2.957580
v -10.120974 3.769426 3.018703
v -10.117386 3.769426 3.101857
v -10.056462 3.769426 3.158006
v -9.974044 3.769426 3.153934
v -9.918259 3.769426 3.092350
v -10.019506 3.769426 3.055757
v -9.801601 3.769425 3.262336
v -9.864078 3.769425 3.208132
v -9.946768 3.769425 3.212840
v -10.001888 3.769426 3.274609
v -9.996032 3.769425 3.357305
v -9.933226 3.769425 3.412184
v -9.850498 3.769426 3.406623
v -9.796075 3.769425 3.344357
v -9.898817 3.769425 3.309820
v -9.676847 3.769426 3.512276
v -9.739061 3.769425 3.458581
v -9.821507 3.769425 3.464705
v -9.875649 3.769425 3.527536
v -9.869531 3.769426 3.610741
v -9.806974 3.769426 3.665105
v -9.724872 3.769425 3.658311
v -9.671071 3.769426 3.594812
v -9.773189 3.769426 3.561508
v -9.548412 3.769426 3.759919
v -9.613047 3.769426 3.708435
v -9.695879 3.769425 3.716394
v -9.748309 3.769426 3.779955
v -9.738982 3.769426 3.862415
v -9.673835 3.769426 3.914852
v -9.591399 3.769426 3.905879
v -9.539598 3.769426 3.841424
v -9.643697 3.769426 3.811167
v -9.413802 3.769426 4.003707
v -9.478024 3.769425 3.952938
v -9.560019 3.769425 3.962706
v -9.611380 3.769425 4.027955
v -9.601639 3.769426 4.111129
v -9.536880 3.769425 4.162838
v -9.455421 3.769425 4.152130
v -9.404601 3.769425 4.085940
v -9.507720 3.769426 4.057418
v -9.273033 3.769426 4.243153
v -9.340397 3.769426 4.195693
v -9.422873 3.769425 4.208267
v -9.471568 3.769426 4.274465
v -9.457377 3.769426 4.356463
v -9.389186 3.769426 4.405271
v -9.307536 3.769426 4.391351
v -9.259669 3.769426 4.323807
v -9.365205 3.769426 4.299808
v -9.125315 3.769425 4.477702
v -9.192003 3.769425 4.431239
v -9.272937 3.769425 4.446275
v -9.320088 3.769425 4.514935
v -9.305223 3.769425 4.597931
v -9.237656 3.769425 4.645709
v -9.156843 3.769426 4.628838
v -9.111327 3.769426 4.559384
v -9.215269 3.769425 4.537817
v -8.966353 3.769426 4.702883
v -9.036899 3.769426 4.661491
v -9.117961 3.769426 4.680821
v -9.161064 3.769426 4.750902
v -9.139967 3.769426 4.832036
v -9.068005 3.769426 4.875331
v -8.988358 3.769425 4.854098
v -8.946671 3.769426 4.782114
v -9.053161 3.769426 4.767459
v -8.801689 3.769426 4.923303
v -8.871062 3.769425 4.883286
v -8.949476 3.769425 4.906082
v -8.989931 3.769425 4.979627
v -8.967662 3.769425 5.062138
v -8.890578 3.769426 5.099527
v -8.811335 3.769426 5.072189
v -8.775509 3.769426 4.998681
v -8.884675 3.769426 4.992720
v -8.616133 3.769425 5.121906
v -8.689699 3.769426 5.089865
v -8.766865 3.769425 5.119480
v -8.800613 3.769426 5.195265
v -8.769363 3.769425 5.274689
v -8.693202 3.769426 5.309332
v -8.618631 3.769426 5.277115
v -8.587478 3.769426 5.198727
v -8.692748 3.769425 5.198298
v -8.416144 3.769426 5.307461
v -8.496861 3.769425 5.285324
v -8.572933 3.769425 5.323051
v -8.598787 3.769425 5.399438
v -8.558260 3.769426 5.470633
v -8.476101 3.769425 5.494028
v -8.401469 3.769426 5.455045
v -8.377061 3.769425 5.377400
v -8.487202 3.769425 5.389047
v -8.196601 3.769426 5.476633
v -8.276634 3.769426 5.454632
v -8.350031 3.769425 5.494641
v -8.373207 3.769426 5.573311
v -8.332376 3.769426 5.645118
v -8.256323 3.769425 5.666554
v -8.180918 3.769426 5.629589
v -8.154469 3.769425 5.552374
v -8.264488 3.769426 5.560876
v -7.975987 3.769426 5.683779
v -8.050760 3.769426 5.638329
v -8.130775 3.769426 5.670817
v -8.161837 3.769426 5.743557
v -8.144395 3.769426 5.819651
v -8.078764 3.769426 5.856740
v -7.996935 3.769426 5.839488
v -7.952160 3.769426 5.770819
v -8.060191 3.769426 5.751715
v -7.820883 3.769426 5.950445
v -7.882828 3.769425 5.888935
v -7.963703 3.769425 5.894857
v -8.018975 3.769425 5.958755
v -8.019110 3.769426 6.037211
v -7.960921 3.769426 6.090139
v -7.879053 3.769426 6.093781
v -7.817260 3.769426 6.037483
v -7.919997 3.769426 5.993828
v -7.728210 3.769425 6.234789
v -7.780002 3.769425 6.165684
v -7.861877 3.769426 6.156384
v -7.926982 3.769425 6.208202
v -7.938288 3.769425 6.286649
v -7.891062 3.769426 6.351193
v -7.810772 3.769425 6.366435
v -7.741427 3.769426 6.319251
v -7.833250 3.769425 6.260719
v -7.673905 3.769425 6.520759
v -7.718724 3.769426 6.448447
v -7.799563 3.769426 6.430375
v -7.869457 3.769426 6.474728
v -7.887856 3.769425 6.553123
v -7.846943 3.769425 6.623480
v -7.767282 3.769426 6.644269
v -7.695429 3.769425 6.602163
v -7.780880 3.769425 6.536941
v -7.638791 3.769425 6.803376
v -7.679466 3.769425 6.730676
v -7.759285 3.769426 6.708689
v -7.831298 3.769425 6.749598
v -7.853675 3.769425 6.828805
v -7.813707 3.769425 6.901236
v -7.734234 3.769425 6.923615
v -7.661790 3.769425 6.883008
v -7.746233 3.769425 6.816091
v -7.606678 3.769426 7.081435
v -7.647586 3.769425 7.010302
v -7.727034 3.769425 6.988129
v -7.799453 3.769425 7.028943
v -7.821220 3.769426 7.109604
v -7.779419 3.769425 7.182253
v -7.699454 3.769426 7.202736
v -7.627979 3.769425 7.160414
v -7.713949 3.769426 7.095519
v -7.565563 3.769425 7.353154
v -7.611040 3.769425 7.285944
v -7.690756 3.769425 7.267066
v -7.761982 3.769425 7.310994
v -7.778070 3.769425 7.393931
v -7.731701 3.769426 7.464924
v -7.650808 3.769426 7.479675
v -7.582222 3.769426 7.432257
v -7.671817 3.769425 7.373543
v -7.503164 3.769426 7.614109
v -7.555102 3.769426 7.553652
v -7.638203 3.769426 7.543355
v -7.702786 3.769426 7.593657
v -7.709474 3.769426 7.679364
v -7.655606 3.769425 7.745917
v -7.574320 3.769426 7.750089
v -7.511779 3.769425 7.693719
v -7.606319 3.769426 7.646736
v -7.406345 3.769426 7.855237
v -7.465825 3.769426 7.805828
v -7.549126 3.769426 7.809716
v -7.604495 3.769426 7.870494
v -7.596538 3.769425 7.958430
v -7.532627 3.769425 8.016007
v -7.448899 3.769425 8.000896
v -7.402821 3.769426 7.935005
v -7.501441 3.769426 7.906834
v -7.263392 3.769426 8.062572
v -7.329871 3.769426 8.028546
v -7.408783 3.769425 8.051932
v -7.448529 3.769426 8.125145
v -7.420455 3.769426 8.211412
v -7.348742 3.769425 8.251236
v -7.275064 3.769425 8.222053
v -7.240551 3.769425 8.143043
v -7.341923 3.769425 8.136992
vn -0.0000 1.0000 -0.0000
vt 0.253417 0.500000
vt 0.354167 0.913435
vt 0.152667 0.913435
vt 0.496648 0.328749
vt 0.496648 0.671250
vt 0.010185 0.671251
vt 0.152667 0.086565
vt 0.010185 0.328750
vt 0.354166 0.086565
s 0
f 9/1/1 8/2/1 1/3/1
f 9/1/1 6/4/1 7/5/1
f 2/6/1 9/1/1 1/3/1
f 4/7/1 9/1/1 3/8/1
f 9/1/1 7/5/1 8/2/1
f 9/1/1 5/9/1 6/4/1
f 2/6/1 3/8/1 9/1/1
f 4/7/1 5/9/1 9/1/1
f 18/1/1 17/2/1 10/3/1
f 18/1/1 15/4/1 16/5/1
f 11/6/1 18/1/1 10/3/1
f 13/7/1 18/1/1 12/8/1
f 18/1/1 16/5/1 17/2/1
f 18/1/1 14/9/1 15/4/1
f 11/6/1 12/8/1 18/1/1
f 13/7/1 14/9/1 18/1/1
f 27/1/1 26/2/1 19/3/1
f 27/1/1 24/4/1 25/5/1
f 20/6/1 27/1/1 19/3/1
f 22/7/1 27/1/1 21/8/1
f 27/1/1 25/5/1 26/2/1
f 27/1/1 23/9/1 24/4/1
f 20/6/1 21/8/1 27/1/1
f 22/7/1 23/9/1 27/1/1
f 36/1/1 35/2/1 28/3/1
f 36/1/1 33/4/1 34/5/1
f 29/6/1 36/1/1 28/3/1
f 31/7/1 36/1/1 30/8/1
f 36/1/1 34/5/1 35/2/1
f 36/1/1 32/9/1 33/4/1
f 29/6/1 30/8/1 36/1/1
f 31/7/1 32/9/1 36/1/1
f 45/1/1 44/2/1 37/3/1
f 45/1/1 42/4/1 43/5/1
f 38/6/1 45/1/1 37/3/1
f 40/7/1 45/1/1 39/8/1
f 45/1/1 43/5/1 44/2/1
f 45/1/1 41/9/1 42/4/1
f 38/6/1 39/8/1 45/1/1
f 40/7/1 41/9/1 45/1/1
f 54/1/1 53/2/1 46/3/1
f 54/1/1 51/4/1 52/5/1
f 47/6/1 54/1/1 46/3/1
f 49/7/1 54/1/1 48/8/1
f 54/1/1 52/5/1 53/2/1
f 54/1/1 50/9/1 51/4/1
f 47/6/1 48/8/1 54/1/1
f 49/7/1 50/9/1 54/1/1
f 63/1/1 62/2/1 55/3/1
f 63/1/1 60/4/1 61/5/1
f 56/6/1 63/1/1 55/3/1
f 58/7/1 63/1/1 57/8/1
f 63/1/1 61/5/1 62/2/1
f 63/1/1 59/9/1 60/4/1
f 56/6/1 57/8/1 63/1/1
f 58/7/1 59/9/1 63/1/1
f 72/1/1 71/2/1 64/3/1
f 72/1/1 69/4/1 70/5/1
f 65/6/1 72/1/1 64/3/1
f 67/7/1 72/1/1 66/8/1
f 72/1/1 70/5/1 71/2/1
f 72/1/1 68/9/1 69/4/1
f 65/6/1 66/8/1 72/1/1
f 67/7/1 68/9/1 72/1/1
f 81/1/1 80/2/1 73/3/1
f 81/1/1 78/4/1 79/5/1
f 74/6/1 81/1/1 73/3/1
f 76/7/1 81/1/1 75/8/1
f 81/1/1 79/5/1 80/2/1
f 81/1/1 77/9/1 78/4/1
f 74/6/1 75/8/1 81/1/1
f 76/7/1 77/9/1 81/1/1
f 90/1/1 89/2/1 82/3/1
f 90/1/1 87/4/1 88/5/1
f 83/6/1 90/1/1 82/3/1
f 85/7/1 90/1/1 84/8/1
f 90/1/1 88/5/1 89/2/1
f 90/1/1 86/9/1 87/4/1
f 83/6/1 84/8/1 90/1/1
f 85/7/1 86/9/1 90/1/1
f 99/1/1 98/2/1 91/3/1
f 99/1/1 96/4/1 97/5/1
f 92/6/1 99/1/1 91/3/1
f 94/7/1 99/1/1 93/8/1
f 99/1/1 97/5/1 98/2/1
f 99/1/1 95/9/1 96/4/1
f 92/6/1 93/8/1 99/1/1
f 94/7/1 95/9/1 99/1/1
f 108/1/1 107/2/1 100/3/1
f 108/1/1 105/4/1 106/5/1
f 101/6/1 108/1/1 100/3/1
f 103/7/1 108/1/1 102/8/1
f 108/1/1 106/5/1 107/2/1
f 108/1/1 104/9/1 105/4/1
f 101/6/1 102/8/1 108/1/1
f 103/7/1 104/9/1 108/1/1
f 117/1/1 116/2/1 109/3/1
f 117/1/1 114/4/1 115/5/1
f 110/6/1 117/1/1 109/3/1
f 112/7/1 117/1/1 111/8/1
f 117/1/1 115/5/1 116/2/1
f 117/1/1 113/9/1 114/4/1
f 110/6/1 111/8/1 117/1/1
f 112/7/1 113/9/1 117/1/1
f 126/1/1 125/2/1 118/3/1
f 126/1/1 123/4/1 124/5/1
f 119/6/1 126/1/1 118/3/1
f 121/7/1 126/1/1 120/8/1
f 126/1/1 124/5/1 125/2/1
f 126/1/1 122/9/1 123/4/1
f 119/6/1 120/8/1 126/1/1
f 121/7/1 122/9/1 126/1/1
f 135/1/1 134/2/1 127/3/1
f 135/1/1 132/4/1 133/5/1
f 128/6/1 135/1/1 127/3/1
f 130/7/1 135/1/1 129/8/1
f 135/1/1 133/5/1 134/2/1
f 135/1/1 131/9/1 132/4/1
f 128/6/1 129/8/1 135/1/1
f 130/7/1 131/9/1 135/1/1
f 144/1/1 143/2/1 136/3/1
f 144/1/1 141/4/1 142/5/1
f 137/6/1 144/1/1 136/3/1
f 139/7/1 144/1/1 138/8/1
f 144/1/1 142/5/1 143/2/1
f 144/1/1 140/9/1 141/4/1
f 137/6/1 138/8/1 144/1/1
f 139/7/1 140/9/1 144/1/1
f 153/1/1 152/2/1 145/3/1
f 153/1/1 150/4/1 151/5/1
f 146/6/1 153/1/1 145/3/1
f 148/7/1 153/1/1 147/8/1
f 153/1/1 151/5/1 152/2/1
f 153/1/1 149/9/1 150/4/1
f 146/6/1 147/8/1 153/1/1
f 148/7/1 149/9/1 153/1/1
f 162/1/1 161/2/1 154/3/1
f 162/1/1 159/4/1 160/5/1
f 155/6/1 162/1/1 154/3/1
f 157/7/1 162/1/1 156/8/1
f 162/1/1 160/5/1 161/2/1
f 162/1/1 158/9/1 159/4/1
f 155/6/1 156/8/1 162/1/1
f 157/7/1 158/9/1 162/1/1
f 171/1/1 170/2/1 163/3/1
f 171/1/1 168/4/1 169/5/1
f 164/6/1 171/1/1 163/3/1
f 166/7/1 171/1/1 165/8/1
f 171/1/1 169/5/1 170/2/1
f 171/1/1 167/9/1 168/4/1
f 164/6/1 165/8/1 171/1/1
f 166/7/1 167/9/1 171/1/1
f 180/1/1 179/2/1 172/3/1
f 180/1/1 177/4/1 178/5/1
f 173/6/1 180/1/1 172/3/1
f 175/7/1 180/1/1 174/8/1
f 180/1/1 178/5/1 179/2/1
f 180/1/1 176/9/1 177/4/1
f 173/6/1 174/8/1 180/1/1
f 175/7/1 176/9/1 180/1/1
f 189/1/1 188/2/1 181/3/1
f 189/1/1 186/4/1 187/5/1
f 182/6/1 189/1/1 181/3/1
f 184/7/1 189/1/1 183/8/1
f 189/1/1 187/5/1 188/2/1
f 189/1/1 185/9/1 186/4/1
f 182/6/1 183/8/1 189/1/1
f 184/7/1 185/9/1 189/1/1
f 198/1/1 197/2/1 190/3/1
f 198/1/1 195/4/1 196/5/1
f 191/6/1 198/1/1 190/3/1
f 193/7/1 198/1/1 192/8/1
f 198/1/1 196/5/1 197/2/1
f 198/1/1 194/9/1 195/4/1
f 191/6/1 192/8/1 198/1/1
f 193/7/1 194/9/1 198/1/1
f 207/1/1 206/2/1 199/3/1
f 207/1/1 204/4/1 205/5/1
f 200/6/1 207/1/1 199/3/1
f 202/7/1 207/1/1 201/8/1
f 207/1/1 205/5/1 206/2/1
f 207/1/1 203/9/1 204/4/1
f 200/6/1 201/8/1 207/1/1
f 202/7/1 203/9/1 207/1/1
f 216/1/1 215/2/1 208/3/1
f 216/1/1 213/4/1 214/5/1
f 209/6/1 216/1/1 208/3/1
f 211/7/1 216/1/1 210/8/1
f 216/1/1 214/5/1 215/2/1
f 216/1/1 212/9/1 213/4/1
f 209/6/1 210/8/1 216/1/1
f 211/7/1 212/9/1 216/1/1
f 225/1/1 224/2/1 217/3/1
f 225/1/1 222/4/1 223/5/1
f 218/6/1 225/1/1 217/3/1
f 220/7/1 225/1/1 219/8/1
f 225/1/1 223/5/1 224/2/1
f 225/1/1 221/9/1 222/4/1
f 218/6/1 219/8/1 225/1/1
f 220/7/1 221/9/1 225/1/1
f 234/1/1 233/2/1 226/3/1
f 234/1/1 231/4/1 232/5/1
f 227/6/1 234/1/1 226/3/1
f 229/7/1 234/1/1 228/8/1
f 234/1/1 232/5/1 233/2/1
f 234/1/1 230/9/1 231/4/1
f 227/6/1 228/8/1 234/1/1
f 229/7/1 230/9/1 234/1/1
f 243/1/1 242/2/1 235/3/1
f 243/1/1 240/4/1 241/5/1
f 236/6/1 243/1/1 235/3/1
f 238/7/1 243/1/1 237/8/1
f 243/1/1 241/5/1 242/2/1
f 243/1/1 239/9/1 240/4/1
f 236/6/1 237/8/1 243/1/1
f 238/7/1 239/9/1 243/1/1
f 252/1/1 251/2/1 244/3/1
f 252/1/1 249/4/1 250/5/1
f 245/6/1 252/1/1 244/3/1
f 247/7/1 252/1/1 246/8/1
f 252/1/1 250/5/1 251/2/1
f 252/1/1 248/9/1 249/4/1
f 245/6/1 246/8/1 252/1/1
f 247/7/1 248/9/1 252/1/1
f 261/1/1 260/2/1 253/3/1
f 261/1/1 258/4/1 259/5/1
f 254/6/1 261/1/1 253/3/1
f 256/7/1 261/1/1 255/8/1
f 261/1/1 259/5/1 260/2/1
f 261/1/1 257/9/1 258/4/1
f 254/6/1 255/8/1 261/1/1
f 256/7/1 257/9/1 261/1/1
f 270/1/1 269/2/1 262/3/1
f 270/1/1 267/4/1 268/5/1
f 263/6/1 270/1/1 262/3/1
f 265/7/1 270/1/1 264/8/1
f 270/1/1 268/5/1 269/2/1
f 270/1/1 266/9/1 267/4/1
f 263/6/1 264/8/1 270/1/1
f 265/7/1 266/9/1 270/1/1
f 279/1/1 278/2/1 271/3/1
f 279/1/1 276/4/1 277/5/1
f 272/6/1 279/1/1 271/3/1
f 274/7/1 279/1/1 273/8/1
f 279/1/1 277/5/1 278/2/1
f 279/1/1 275/9/1 276/4/1
f 272/6/1 273/8/1 279/1/1
f 274/7/1 275/9/1 279/1/1
f 288/1/1 287/2/1 280/3/1
f 288/1/1 285/4/1 286/5/1
f 281/6/1 288/1/1 280/3/1
f 283/7/1 288/1/1 282/8/1
f 288/1/1 286/5/1 287/2/1
f 288/1/1 284/9/1 285/4/1
f 281/6/1 282/8/1 288/1/1
f 283/7/1 284/9/1 288/1/1
