# Blender 4.3.2
# www.blender.org
mtllib indicator_10.mtl
o Circle
v 14.969790 0.000000 -36.101402
v 14.980314 0.000000 -36.151424
v 14.947590 -0.000000 -36.190697
v 14.890772 -0.000000 -36.196194
v 14.843157 -0.000000 -36.164719
v 14.840416 0.000000 -36.126038
v 14.862282 -0.000000 -36.078465
v 14.914391 -0.000000 -36.058586
v 14.906471 -0.000000 -36.133057
v 14.827587 0.000000 -35.977680
v 14.874222 -0.000000 -36.025124
v 14.862282 -0.000000 -36.078465
v 14.816940 0.000000 -36.107231
v 14.775349 -0.000000 -36.109272
v 14.743565 -0.000000 -36.079021
v 14.733063 -0.000000 -36.026684
v 14.763500 0.000000 -35.980915
v 14.801468 0.000000 -36.043476
v 14.662071 0.000000 -35.952015
v 14.716843 0.000000 -35.973621
v 14.733063 -0.000000 -36.026684
v 14.708321 -0.000000 -36.073368
v 14.662991 -0.000000 -36.093594
v 14.616497 -0.000000 -36.075413
v 14.591955 -0.000000 -36.027359
v 14.608715 0.000000 -35.975605
v 14.662531 -0.000000 -36.022804
v 14.510048 0.000000 -35.967651
v 14.564964 0.000000 -35.979702
v 14.591955 -0.000000 -36.027359
v 14.577682 -0.000000 -36.079006
v 14.533798 -0.000000 -36.107224
v 14.482857 0.000000 -36.095890
v 14.452515 -0.000000 -36.051258
v 14.462700 -0.000000 -35.997829
v 14.521923 -0.000000 -36.037437
v 14.366423 0.000000 -35.998993
v 14.421041 0.000000 -36.006866
v 14.452515 -0.000000 -36.051258
v 14.443464 -0.000000 -36.104439
v 14.400896 -0.000000 -36.136314
v 14.348175 -0.000000 -36.128601
v 14.315231 -0.000000 -36.085773
v 14.322258 0.000000 -36.031898
v 14.383659 -0.000000 -36.067654
v 14.227930 0.000000 -36.036716
v 14.281906 0.000000 -36.043056
v 14.315231 -0.000000 -36.085773
v 14.308594 -0.000000 -36.139545
v 14.266203 -0.000000 -36.173023
v 14.212023 -0.000000 -36.166821
v 14.178925 0.000000 -36.124050
v 14.185789 0.000000 -36.070210
v 14.247066 -0.000000 -36.104870
v 14.096149 0.000000 -36.069584
v 14.147633 0.000000 -36.080818
v 14.178925 0.000000 -36.124050
v 14.170250 -0.000000 -36.178345
v 14.123539 -0.000000 -36.208492
v 14.068697 -0.000000 -36.196491
v 14.039982 0.000000 -36.150471
v 14.052191 0.000000 -36.097752
v 14.109844 -0.000000 -36.139038
v 13.961658 0.000000 -36.090378
v 14.012457 0.000000 -36.104263
v 14.039982 -0.000000 -36.150471
v 14.026583 -0.000000 -36.203377
v 13.978287 -0.000000 -36.230980
v 13.925371 -0.000000 -36.214470
v 13.899410 -0.000000 -36.166359
v 13.914783 0.000000 -36.114922
v 13.969973 -0.000000 -36.160679
v 13.822880 0.000000 -36.101501
v 13.873936 0.000000 -36.118198
v 13.899410 0.000000 -36.166359
v 13.883549 -0.000000 -36.217846
v 13.834816 -0.000000 -36.242577
v 13.782585 0.000000 -36.225983
v 13.758286 0.000000 -36.177723
v 13.775318 -0.000000 -36.126137
v 13.828848 -0.000000 -36.172039
v 13.683432 -0.000000 -36.110970
v 13.734455 0.000000 -36.129364
v 13.758286 0.000000 -36.177723
v 13.740772 -0.000000 -36.229279
v 13.691790 0.000000 -36.252304
v 13.640360 -0.000000 -36.233936
v 13.616896 -0.000000 -36.184910
v 13.634857 0.000000 -36.133976
v 13.687611 0.000000 -36.181637
v 13.542822 0.000000 -36.117477
v 13.593603 0.000000 -36.135880
v 13.616896 -0.000000 -36.184910
v 13.598764 -0.000000 -36.235863
v 13.549540 -0.000000 -36.258896
v 13.498350 -0.000000 -36.240513
v 13.475466 -0.000000 -36.191463
v 13.494009 0.000000 -36.140491
v 13.546181 -0.000000 -36.188187
v 13.402126 0.000000 -36.123619
v 13.452755 -0.000000 -36.142406
v 13.475466 -0.000000 -36.191463
v 13.456757 0.000000 -36.242443
v 13.407347 -0.000000 -36.265106
v 13.356459 0.000000 -36.245842
v 13.333977 -0.000000 -36.196419
v 13.352947 -0.000000 -36.145790
v 13.404737 -0.000000 -36.194363
v 13.260965 -0.000000 -36.127720
v 13.311571 0.000000 -36.146992
v 13.333977 -0.000000 -36.196419
v 13.314934 -0.000000 -36.247051
v 13.265465 0.000000 -36.269230
v 13.214682 -0.000000 -36.249966
v 13.192455 0.000000 -36.200531
v 13.211679 0.000000 -36.149899
v 13.263216 0.000000 -36.198475
v 13.119804 0.000000 -36.131821
v 13.170305 0.000000 -36.151096
v 13.192455 0.000000 -36.200531
v 13.173157 -0.000000 -36.251171
v 13.123583 -0.000000 -36.273354
v 13.072905 -0.000000 -36.254086
v 13.050932 -0.000000 -36.204536
v 13.070415 0.000000 -36.154003
v 13.121695 -0.000000 -36.202587
v 12.978510 0.000000 -36.135189
v 13.028997 0.000000 -36.154911
v 13.050932 -0.000000 -36.204536
v 13.031404 -0.000000 -36.254993
v 12.981802 -0.000000 -36.276730
v 12.931232 -0.000000 -36.257011
v 12.909380 -0.000000 -36.207382
v 12.928986 0.000000 -36.156921
v 12.980156 -0.000000 -36.205959
v 12.837120 0.000000 -36.138031
v 12.887562 0.000000 -36.157753
v 12.909380 -0.000000 -36.207382
v 12.889740 -0.000000 -36.257843
v 12.840088 -0.000000 -36.279579
v 12.789568 0.000000 -36.259857
v 12.767826 -0.000000 -36.210228
v 12.787548 -0.000000 -36.159767
v 12.838604 -0.000000 -36.208805
v 12.695726 0.000000 -36.140873
v 12.746120 0.000000 -36.160595
v 12.767826 -0.000000 -36.210228
v 12.748074 -0.000000 -36.260693
v 12.698376 -0.000000 -36.282429
v 12.647911 -0.000000 -36.262634
v 12.626272 -0.000000 -36.212921
v 12.646095 0.000000 -36.162537
v 12.697052 -0.000000 -36.211651
v 12.554234 0.000000 -36.143303
v 12.604641 0.000000 -36.163216
v 12.626272 -0.000000 -36.212921
v 12.606440 -0.000000 -36.263313
v 12.556747 -0.000000 -36.284859
v 12.506319 -0.000000 -36.264946
v 12.484709 -0.000000 -36.215237
v 12.504564 0.000000 -36.164848
v 12.555490 -0.000000 -36.214081
v 12.412712 0.000000 -36.145611
v 12.463108 -0.000000 -36.165524
v 12.484709 -0.000000 -36.215237
v 12.464848 0.000000 -36.265621
v 12.415144 -0.000000 -36.287174
v 12.364727 -0.000000 -36.267258
v 12.343147 -0.000000 -36.217548
v 12.363029 0.000000 -36.167160
v 12.413927 -0.000000 -36.216393
v 12.271194 0.000000 -36.147923
v 12.321577 0.000000 -36.167839
v 12.343147 -0.000000 -36.217548
v 12.323257 -0.000000 -36.267937
v 12.273540 -0.000000 -36.289486
v 12.223150 -0.000000 -36.269581
v 12.201584 -0.000000 -36.219875
v 12.221481 0.000000 -36.169483
v 12.272366 -0.000000 -36.218704
v 12.129587 -0.000000 -36.150269
v 12.180008 0.000000 -36.170174
v 12.201586 -0.000000 -36.219875
v 12.181700 -0.000000 -36.270271
v 12.132019 0.000000 -36.291832
v 12.081631 0.000000 -36.271935
v 12.060022 -0.000000 -36.222233
v 12.079882 -0.000000 -36.171837
v 12.130804 0.000000 -36.221050
v 11.987970 0.000000 -36.152630
v 12.038406 0.000000 -36.172527
v 12.060022 -0.000000 -36.222229
v 12.040178 -0.000000 -36.272625
v 11.990515 -0.000000 -36.294186
v 11.940109 -0.000000 -36.274288
v 11.918461 -0.000000 -36.224586
v 11.938278 0.000000 -36.174191
v 11.989243 0.000000 -36.223408
v 11.846350 0.000000 -36.154987
v 11.896805 -0.000000 -36.174881
v 11.918463 -0.000000 -36.224586
v 11.898657 0.000000 -36.274979
v 11.849012 -0.000000 -36.296543
v 11.798615 -0.000000 -36.276821
v 11.776905 -0.000000 -36.227215
v 11.796656 0.000000 -36.176731
v 11.847681 -0.000000 -36.225765
v 11.704630 0.000000 -36.157928
v 11.755159 0.000000 -36.177605
v 11.776905 -0.000000 -36.227215
v 11.757193 -0.000000 -36.277695
v 11.707632 -0.000000 -36.299477
v 11.657192 -0.000000 -36.279804
v 11.635357 -0.000000 -36.230198
v 11.654980 0.000000 -36.179714
v 11.706131 -0.000000 -36.228703
v 11.562902 0.000000 -36.160915
v 11.613483 0.000000 -36.180588
v 11.635357 -0.000000 -36.230198
v 11.615770 -0.000000 -36.280678
v 11.566261 -0.000000 -36.302456
v 11.515768 -0.000000 -36.282784
v 11.493807 -0.000000 -36.233177
v 11.513304 0.000000 -36.182701
v 11.564581 -0.000000 -36.231686
v 11.421152 0.000000 -36.164082
v 11.471807 0.000000 -36.183575
v 11.493807 -0.000000 -36.233177
v 11.474346 -0.000000 -36.283657
v 11.424923 -0.000000 -36.305614
v 11.374434 -0.000000 -36.286427
v 11.352280 0.000000 -36.237026
v 11.371574 0.000000 -36.186352
v 11.423037 -0.000000 -36.234848
v 11.279249 0.000000 -36.168453
v 11.330046 0.000000 -36.187634
v 11.352280 0.000000 -36.237026
v 11.333065 -0.000000 -36.287701
v 11.283796 -0.000000 -36.309963
v 11.233192 -0.000000 -36.290775
v 11.210766 -0.000000 -36.241386
v 11.229786 0.000000 -36.190723
v 11.281523 -0.000000 -36.239208
v 11.137350 0.000000 -36.172825
v 11.188257 0.000000 -36.191998
v 11.210766 -0.000000 -36.241386
v 11.191824 -0.000000 -36.292049
v 11.142668 -0.000000 -36.314304
v 11.091951 -0.000000 -36.295128
v 11.069260 -0.000000 -36.245911
v 11.087997 0.000000 -36.195091
v 11.140009 -0.000000 -36.243565
v 10.995235 0.000000 -36.178673
v 11.046419 -0.000000 -36.196918
v 11.069258 -0.000000 -36.245907
v 11.050678 0.000000 -36.296940
v 11.001871 -0.000000 -36.320099
v 10.951118 0.000000 -36.301834
v 10.927847 -0.000000 -36.252861
v 10.945995 -0.000000 -36.201851
v 10.998554 -0.000000 -36.249386
v 10.852959 0.000000 -36.185669
v 10.904396 0.000000 -36.203899
v 10.927847 -0.000000 -36.252861
v 10.909882 -0.000000 -36.303860
v 10.861326 -0.000000 -36.327003
v 10.810322 0.000000 -36.308750
v 10.786438 -0.000000 -36.259811
v 10.803972 -0.000000 -36.208836
v 10.857143 -0.000000 -36.256336
v 10.710236 0.000000 -36.194508
v 10.762375 -0.000000 -36.210888
v 10.786438 -0.000000 -36.259811
v 10.769083 0.000000 -36.310780
v 10.721470 -0.000000 -36.335644
v 10.670567 -0.000000 -36.319176
v 10.645317 0.000000 -36.271091
v 10.661388 0.000000 -36.219482
v 10.715853 -0.000000 -36.265076
v 10.566698 0.000000 -36.206776
v 10.619558 0.000000 -36.223053
v 10.645317 0.000000 -36.271091
v 10.629759 -0.000000 -36.322647
v 10.582869 -0.000000 -36.347431
v 10.531240 0.000000 -36.331009
v 10.504425 -0.000000 -36.284489
v 10.518576 -0.000000 -36.231697
v 10.574783 -0.000000 -36.277103
v 10.421186 0.000000 -36.227032
v 10.476269 0.000000 -36.238560
v 10.504425 -0.000000 -36.284489
v 10.491720 -0.000000 -36.337475
v 10.448145 -0.000000 -36.366024
v 10.396664 0.000000 -36.353802
v 10.364906 0.000000 -36.308571
v 10.374016 -0.000000 -36.256283
v 10.434666 0.000000 -36.296528
v 10.276924 -0.000000 -36.262573
v 10.332233 0.000000 -36.265953
v 10.364906 0.000000 -36.308571
v 10.357853 -0.000000 -36.362732
v 10.318258 0.000000 -36.397987
v 10.266535 -0.000000 -36.393509
v 10.230482 0.000000 -36.352814
v 10.233744 0.000000 -36.298920
v 10.297590 0.000000 -36.330280
v 10.137613 0.000000 -36.313595
v 10.192972 0.000000 -36.312653
v 10.230482 0.000000 -36.352814
v 10.228682 -0.000000 -36.406181
v 10.191956 -0.000000 -36.444332
v 10.139542 -0.000000 -36.445045
v 10.100140 -0.000000 -36.407818
v 10.098608 0.000000 -36.353683
v 10.164783 -0.000000 -36.378963
v 10.004072 0.000000 -36.374809
v 10.059713 0.000000 -36.371059
v 10.100140 -0.000000 -36.407818
v 10.102699 -0.000000 -36.461475
v 10.068174 -0.000000 -36.501045
v 10.016006 -0.000000 -36.506191
v 9.974140 -0.000000 -36.472126
v 9.968584 0.000000 -36.418026
v 10.036123 -0.000000 -36.437927
v 9.875965 -0.000000 -36.445480
v 9.931417 -0.000000 -36.438526
v 9.974140 -0.000000 -36.472126
v 9.980556 0.000000 -36.525753
v 9.948351 0.000000 -36.567162
v 9.896366 -0.000000 -36.575623
v 9.852520 0.000000 -36.544430
v 9.843445 0.000000 -36.490639
v 9.912159 0.000000 -36.506321
v 9.753595 0.000000 -36.524292
v 9.807983 -0.000000 -36.513672
v 9.852520 0.000000 -36.544430
v 9.862286 0.000000 -36.597778
v 9.832724 -0.000000 -36.641701
v 9.780504 -0.000000 -36.652103
v 9.735086 0.000000 -36.623425
v 9.723036 0.000000 -36.570126
v 9.793159 -0.000000 -36.582996
v 9.635822 0.000000 -36.608704
v 9.689131 0.000000 -36.595131
v 9.735086 0.000000 -36.623425
v 9.747675 -0.000000 -36.676346
v 9.720428 -0.000000 -36.722221
v 9.668396 -0.000000 -36.734837
v 9.621487 -0.000000 -36.707909
v 9.607300 0.000000 -36.655529
v 9.678125 -0.000000 -36.665462
v 9.522097 0.000000 -36.697521
v 9.574430 0.000000 -36.681675
v 9.621487 -0.000000 -36.707909
v 9.636381 -0.000000 -36.760319
v 9.611065 -0.000000 -36.807659
v 9.559685 -0.000000 -36.822742
v 9.511675 -0.000000 -36.797276
v 9.495827 0.000000 -36.745640
v 9.566582 -0.000000 -36.752590
v 9.411835 0.000000 -36.789757
v 9.463364 0.000000 -36.772224
v 9.511675 -0.000000 -36.797276
v 9.527981 -0.000000 -36.848694
v 9.504171 -0.000000 -36.897087
v 9.453316 -0.000000 -36.914043
v 9.404732 -0.000000 -36.890041
v 9.387356 0.000000 -36.838734
v 9.458004 -0.000000 -36.843422
v 9.304438 0.000000 -36.884537
v 9.355875 0.000000 -36.866283
v 9.404732 -0.000000 -36.890041
v 9.422382 -0.000000 -36.941113
v 9.399267 -0.000000 -36.989670
v 9.348743 -0.000000 -37.007965
v 9.299747 -0.000000 -36.985020
v 9.281273 0.000000 -36.934006
v 9.351852 -0.000000 -36.937103
v 9.199396 0.000000 -36.981140
v 9.250578 0.000000 -36.962234
v 9.299747 -0.000000 -36.985020
v 9.318394 -0.000000 -37.035881
v 9.295887 -0.000000 -37.084747
v 9.245436 -0.000000 -37.103802
v 9.196148 -0.000000 -37.081520
v 9.176991 0.000000 -37.030743
v 9.247643 -0.000000 -37.032944
v 9.096081 0.000000 -37.078724
v 9.146788 0.000000 -37.059311
v 9.196148 -0.000000 -37.081520
v 9.215384 -0.000000 -37.132225
v 9.193354 -0.000000 -37.181599
v 9.142839 0.000000 -37.200905
v 9.093370 -0.000000 -37.178890
v 9.073929 -0.000000 -37.128281
v 9.144718 -0.000000 -37.130161
v 8.993431 0.000000 -37.176319
v 9.043917 0.000000 -37.156868
v 9.093370 -0.000000 -37.178890
v 9.112795 -0.000000 -37.229523
v 9.090788 -0.000000 -37.279118
v 9.040264 -0.000000 -37.298603
v 8.990833 -0.000000 -37.276524
v 8.971460 0.000000 -37.225880
v 9.042109 -0.000000 -37.227718
v 8.890867 -0.000000 -37.273289
v 8.941387 0.000000 -37.254284
v 8.990833 -0.000000 -37.276524
v 9.010048 0.000000 -37.327145
v 8.987589 0.000000 -37.376682
v 8.936800 0.000000 -37.395931
v 8.887625 -0.000000 -37.373444
v 8.868677 -0.000000 -37.322567
v 8.939228 -0.000000 -37.324986
v 8.787479 0.000000 -37.369255
v 8.838558 0.000000 -37.350849
v 8.887625 -0.000000 -37.373444
v 8.906458 -0.000000 -37.424419
v 8.883453 0.000000 -37.473343
v 8.832294 -0.000000 -37.491711
v 8.783001 -0.000000 -37.468826
v 8.764441 0.000000 -37.418102
v 8.835466 -0.000000 -37.421299
v 8.681370 0.000000 -37.465851
v 8.733711 0.000000 -37.445938
v 8.783001 -0.000000 -37.468826
v 8.801556 -0.000000 -37.519554
v 8.780125 0.000000 -37.567307
v 8.732550 0.000000 -37.587055
v 8.681850 -0.000000 -37.567760
v 8.659698 -0.000000 -37.518391
v 8.730745 -0.000000 -37.516579
v 8.590334 0.000000 -37.553875
v 8.632772 0.000000 -37.546005
v 8.681850 -0.000000 -37.567760
v 8.701536 -0.000000 -37.618767
v 8.666080 -0.000000 -37.673489
v 8.595703 -0.000000 -37.682446
v 8.562450 -0.000000 -37.638184
v 8.569813 0.000000 -37.585735
v 8.628206 -0.000000 -37.613682
v 8.491831 0.000000 -37.572273
v 8.541424 -0.000000 -37.589558
v 8.562450 -0.000000 -37.638184
v 8.542110 0.000000 -37.689671
v 8.491831 -0.000000 -37.713852
v 8.441891 -0.000000 -37.696568
v 8.421207 -0.000000 -37.647945
v 8.441891 0.000000 -37.596455
v 8.491831 -0.000000 -37.643063
vn -0.0000 1.0000 -0.0000
vt 0.257812 0.500000
vt 0.159088 0.082901
vt 0.356537 0.082901
vt 0.019470 0.672768
vt 0.019470 0.327232
vt 0.496155 0.327232
vt 0.356537 0.917099
vt 0.496155 0.672768
vt 0.159088 0.917099
s 0
f 9/1/1 8/2/1 1/3/1
f 9/1/1 6/4/1 7/5/1
f 2/6/1 9/1/1 1/3/1
f 4/7/1 9/1/1 3/8/1
f 9/1/1 7/5/1 8/2/1
f 9/1/1 5/9/1 6/4/1
f 2/6/1 3/8/1 9/1/1
f 4/7/1 5/9/1 9/1/1
f 18/1/1 17/2/1 10/3/1
f 18/1/1 15/4/1 16/5/1
f 11/6/1 18/1/1 10/3/1
f 13/7/1 18/1/1 12/8/1
f 18/1/1 16/5/1 17/2/1
f 18/1/1 14/9/1 15/4/1
f 11/6/1 12/8/1 18/1/1
f 13/7/1 14/9/1 18/1/1
f 27/1/1 26/2/1 19/3/1
f 27/1/1 24/4/1 25/5/1
f 20/6/1 27/1/1 19/3/1
f 22/7/1 27/1/1 21/8/1
f 27/1/1 25/5/1 26/2/1
f 27/1/1 23/9/1 24/4/1
f 20/6/1 21/8/1 27/1/1
f 22/7/1 23/9/1 27/1/1
f 36/1/1 35/2/1 28/3/1
f 36/1/1 33/4/1 34/5/1
f 29/6/1 36/1/1 28/3/1
f 31/7/1 36/1/1 30/8/1
f 36/1/1 34/5/1 35/2/1
f 36/1/1 32/9/1 33/4/1
f 29/6/1 30/8/1 36/1/1
f 31/7/1 32/9/1 36/1/1
f 45/1/1 44/2/1 37/3/1
f 45/1/1 42/4/1 43/5/1
f 38/6/1 45/1/1 37/3/1
f 40/7/1 45/1/1 39/8/1
f 45/1/1 43/5/1 44/2/1
f 45/1/1 41/9/1 42/4/1
f 38/6/1 39/8/1 45/1/1
f 40/7/1 41/9/1 45/1/1
f 54/1/1 53/2/1 46/3/1
f 54/1/1 51/4/1 52/5/1
f 47/6/1 54/1/1 46/3/1
f 49/7/1 54/1/1 48/8/1
f 54/1/1 52/5/1 53/2/1
f 54/1/1 50/9/1 51/4/1
f 47/6/1 48/8/1 54/1/1
f 49/7/1 50/9/1 54/1/1
f 63/1/1 62/2/1 55/3/1
f 63/1/1 60/4/1 61/5/1
f 56/6/1 63/1/1 55/3/1
f 58/7/1 63/1/1 57/8/1
f 63/1/1 61/5/1 62/2/1
f 63/1/1 59/9/1 60/4/1
f 56/6/1 57/8/1 63/1/1
f 58/7/1 59/9/1 63/1/1
f 72/1/1 71/2/1 64/3/1
f 72/1/1 69/4/1 70/5/1
f 65/6/1 72/1/1 64/3/1
f 67/7/1 72/1/1 66/8/1
f 72/1/1 70/5/1 71/2/1
f 72/1/1 68/9/1 69/4/1
f 65/6/1 66/8/1 72/1/1
f 67/7/1 68/9/1 72/1/1
f 81/1/1 80/2/1 73/3/1
f 81/1/1 78/4/1 79/5/1
f 74/6/1 81/1/1 73/3/1
f 76/7/1 81/1/1 75/8/1
f 81/1/1 79/5/1 80/2/1
f 81/1/1 77/9/1 78/4/1
f 74/6/1 75/8/1 81/1/1
f 76/7/1 77/9/1 81/1/1
f 90/1/1 89/2/1 82/3/1
f 90/1/1 87/4/1 88/5/1
f 83/6/1 90/1/1 82/3/1
f 85/7/1 90/1/1 84/8/1
f 90/1/1 88/5/1 89/2/1
f 90/1/1 86/9/1 87/4/1
f 83/6/1 84/8/1 90/1/1
f 85/7/1 86/9/1 90/1/1
f 99/1/1 98/2/1 91/3/1
f 99/1/1 96/4/1 97/5/1
f 92/6/1 99/1/1 91/3/1
f 94/7/1 99/1/1 93/8/1
f 99/1/1 97/5/1 98/2/1
f 99/1/1 95/9/1 96/4/1
f 92/6/1 93/8/1 99/1/1
f 94/7/1 95/9/1 99/1/1
f 108/1/1 107/2/1 100/3/1
f 108/1/1 105/4/1 106/5/1
f 101/6/1 108/1/1 100/3/1
f 103/7/1 108/1/1 102/8/1
f 108/1/1 106/5/1 107/2/1
f 108/1/1 104/9/1 105/4/1
f 101/6/1 102/8/1 108/1/1
f 103/7/1 104/9/1 108/1/1
f 117/1/1 116/2/1 109/3/1
f 117/1/1 114/4/1 115/5/1
f 110/6/1 117/1/1 109/3/1
f 112/7/1 117/1/1 111/8/1
f 117/1/1 115/5/1 116/2/1
f 117/1/1 113/9/1 114/4/1
f 110/6/1 111/8/1 117/1/1
f 112/7/1 113/9/1 117/1/1
f 126/1/1 125/2/1 118/3/1
f 126/1/1 123/4/1 124/5/1
f 119/6/1 126/1/1 118/3/1
f 121/7/1 126/1/1 120/8/1
f 126/1/1 124/5/1 125/2/1
f 126/1/1 122/9/1 123/4/1
f 119/6/1 120/8/1 126/1/1
f 121/7/1 122/9/1 126/1/1
f 135/1/1 134/2/1 127/3/1
f 135/1/1 132/4/1 133/5/1
f 128/6/1 135/1/1 127/3/1
f 130/7/1 135/1/1 129/8/1
f 135/1/1 133/5/1 134/2/1
f 135/1/1 131/9/1 132/4/1
f 128/6/1 129/8/1 135/1/1
f 130/7/1 131/9/1 135/1/1
f 144/1/1 143/2/1 136/3/1
f 144/1/1 141/4/1 142/5/1
f 137/6/1 144/1/1 136/3/1
f 139/7/1 144/1/1 138/8/1
f 144/1/1 142/5/1 143/2/1
f 144/1/1 140/9/1 141/4/1
f 137/6/1 138/8/1 144/1/1
f 139/7/1 140/9/1 144/1/1
f 153/1/1 152/2/1 145/3/1
f 153/1/1 150/4/1 151/5/1
f 146/6/1 153/1/1 145/3/1
f 148/7/1 153/1/1 147/8/1
f 153/1/1 151/5/1 152/2/1
f 153/1/1 149/9/1 150/4/1
f 146/6/1 147/8/1 153/1/1
f 148/7/1 149/9/1 153/1/1
f 162/1/1 161/2/1 154/3/1
f 162/1/1 159/4/1 160/5/1
f 155/6/1 162/1/1 154/3/1
f 157/7/1 162/1/1 156/8/1
f 162/1/1 160/5/1 161/2/1
f 162/1/1 158/9/1 159/4/1
f 155/6/1 156/8/1 162/1/1
f 157/7/1 158/9/1 162/1/1
f 171/1/1 170/2/1 163/3/1
f 171/1/1 168/4/1 169/5/1
f 164/6/1 171/1/1 163/3/1
f 166/7/1 171/1/1 165/8/1
f 171/1/1 169/5/1 170/2/1
f 171/1/1 167/9/1 168/4/1
f 164/6/1 165/8/1 171/1/1
f 166/7/1 167/9/1 171/1/1
f 180/1/1 179/2/1 172/3/1
f 180/1/1 177/4/1 178/5/1
f 173/6/1 180/1/1 172/3/1
f 175/7/1 180/1/1 174/8/1
f 180/1/1 178/5/1 179/2/1
f 180/1/1 176/9/1 177/4/1
f 173/6/1 174/8/1 180/1/1
f 175/7/1 176/9/1 180/1/1
f 189/1/1 188/2/1 181/3/1
f 189/1/1 186/4/1 187/5/1
f 182/6/1 189/1/1 181/3/1
f 184/7/1 189/1/1 183/8/1
f 189/1/1 187/5/1 188/2/1
f 189/1/1 185/9/1 186/4/1
f 182/6/1 183/8/1 189/1/1
f 184/7/1 185/9/1 189/1/1
f 198/1/1 197/2/1 190/3/1
f 198/1/1 195/4/1 196/5/1
f 191/6/1 198/1/1 190/3/1
f 193/7/1 198/1/1 192/8/1
f 198/1/1 196/5/1 197/2/1
f 198/1/1 194/9/1 195/4/1
f 191/6/1 192/8/1 198/1/1
f 193/7/1 194/9/1 198/1/1
f 207/1/1 206/2/1 199/3/1
f 207/1/1 204/4/1 205/5/1
f 200/6/1 207/1/1 199/3/1
f 202/7/1 207/1/1 201/8/1
f 207/1/1 205/5/1 206/2/1
f 207/1/1 203/9/1 204/4/1
f 200/6/1 201/8/1 207/1/1
f 202/7/1 203/9/1 207/1/1
f 216/1/1 215/2/1 208/3/1
f 216/1/1 213/4/1 214/5/1
f 209/6/1 216/1/1 208/3/1
f 211/7/1 216/1/1 210/8/1
f 216/1/1 214/5/1 215/2/1
f 216/1/1 212/9/1 213/4/1
f 209/6/1 210/8/1 216/1/1
f 211/7/1 212/9/1 216/1/1
f 225/1/1 224/2/1 217/3/1
f 225/1/1 222/4/1 223/5/1
f 218/6/1 225/1/1 217/3/1
f 220/7/1 225/1/1 219/8/1
f 225/1/1 223/5/1 224/2/1
f 225/1/1 221/9/1 222/4/1
f 218/6/1 219/8/1 225/1/1
f 220/7/1 221/9/1 225/1/1
f 234/1/1 233/2/1 226/3/1
f 234/1/1 231/4/1 232/5/1
f 227/6/1 234/1/1 226/3/1
f 229/7/1 234/1/1 228/8/1
f 234/1/1 232/5/1 233/2/1
f 234/1/1 230/9/1 231/4/1
f 227/6/1 228/8/1 234/1/1
f 229/7/1 230/9/1 234/1/1
f 243/1/1 242/2/1 235/3/1
f 243/1/1 240/4/1 241/5/1
f 236/6/1 243/1/1 235/3/1
f 238/7/1 243/1/1 237/8/1
f 243/1/1 241/5/1 242/2/1
f 243/1/1 239/9/1 240/4/1
f 236/6/1 237/8/1 243/1/1
f 238/7/1 239/9/1 243/1/1
f 252/1/1 251/2/1 244/3/1
f 252/1/1 249/4/1 250/5/1
f 245/6/1 252/1/1 244/3/1
f 247/7/1 252/1/1 246/8/1
f 252/1/1 250/5/1 251/2/1
f 252/1/1 248/9/1 249/4/1
f 245/6/1 246/8/1 252/1/1
f 247/7/1 248/9/1 252/1/1
f 261/1/1 260/2/1 253/3/1
f 261/1/1 258/4/1 259/5/1
f 254/6/1 261/1/1 253/3/1
f 256/7/1 261/1/1 255/8/1
f 261/1/1 259/5/1 260/2/1
f 261/1/1 257/9/1 258/4/1
f 254/6/1 255/8/1 261/1/1
f 256/7/1 257/9/1 261/1/1
f 270/1/1 269/2/1 262/3/1
f 270/1/1 267/4/1 268/5/1
f 263/6/1 270/1/1 262/3/1
f 265/7/1 270/1/1 264/8/1
f 270/1/1 268/5/1 269/2/1
f 270/1/1 266/9/1 267/4/1
f 263/6/1 264/8/1 270/1/1
f 265/7/1 266/9/1 270/1/1
f 279/1/1 278/2/1 271/3/1
f 279/1/1 276/4/1 277/5/1
f 272/6/1 279/1/1 271/3/1
f 274/7/1 279/1/1 273/8/1
f 279/1/1 277/5/1 278/2/1
f 279/1/1 275/9/1 276/4/1
f 272/6/1 273/8/1 279/1/1
f 274/7/1 275/9/1 279/1/1
f 288/1/1 287/2/1 280/3/1
f 288/1/1 285/4/1 286/5/1
f 281/6/1 288/1/1 280/3/1
f 283/7/1 288/1/1 282/8/1
f 288/1/1 286/5/1 287/2/1
f 288/1/1 284/9/1 285/4/1
f 281/6/1 282/8/1 288/1/1
f 283/7/1 284/9/1 288/1/1
f 297/1/1 296/2/1 289/3/1
f 297/1/1 294/4/1 295/5/1
f 290/6/1 297/1/1 289/3/1
f 292/7/1 297/1/1 291/8/1
f 297/1/1 295/5/1 296/2/1
f 297/1/1 293/9/1 294/4/1
f 290/6/1 291/8/1 297/1/1
f 292/7/1 293/9/1 297/1/1
f 306/1/1 305/2/1 298/3/1
f 306/1/1 303/4/1 304/5/1
f 299/6/1 306/1/1 298/3/1
f 301/7/1 306/1/1 300/8/1
f 306/1/1 304/5/1 305/2/1
f 306/1/1 302/9/1 303/4/1
f 299/6/1 300/8/1 306/1/1
f 301/7/1 302/9/1 306/1/1
f 315/1/1 314/2/1 307/3/1
f 315/1/1 312/4/1 313/5/1
f 308/6/1 315/1/1 307/3/1
f 310/7/1 315/1/1 309/8/1
f 315/1/1 313/5/1 314/2/1
f 315/1/1 311/9/1 312/4/1
f 308/6/1 309/8/1 315/1/1
f 310/7/1 311/9/1 315/1/1
f 324/1/1 323/2/1 316/3/1
f 324/1/1 321/4/1 322/5/1
f 317/6/1 324/1/1 316/3/1
f 319/7/1 324/1/1 318/8/1
f 324/1/1 322/5/1 323/2/1
f 324/1/1 320/9/1 321/4/1
f 317/6/1 318/8/1 324/1/1
f 319/7/1 320/9/1 324/1/1
f 333/1/1 332/2/1 325/3/1
f 333/1/1 330/4/1 331/5/1
f 326/6/1 333/1/1 325/3/1
f 328/7/1 333/1/1 327/8/1
f 333/1/1 331/5/1 332/2/1
f 333/1/1 329/9/1 330/4/1
f 326/6/1 327/8/1 333/1/1
f 328/7/1 329/9/1 333/1/1
f 342/1/1 341/2/1 334/3/1
f 342/1/1 339/4/1 340/5/1
f 335/6/1 342/1/1 334/3/1
f 337/7/1 342/1/1 336/8/1
f 342/1/1 340/5/1 341/2/1
f 342/1/1 338/9/1 339/4/1
f 335/6/1 336/8/1 342/1/1
f 337/7/1 338/9/1 342/1/1
f 351/1/1 350/2/1 343/3/1
f 351/1/1 348/4/1 349/5/1
f 344/6/1 351/1/1 343/3/1
f 346/7/1 351/1/1 345/8/1
f 351/1/1 349/5/1 350/2/1
f 351/1/1 347/9/1 348/4/1
f 344/6/1 345/8/1 351/1/1
f 346/7/1 347/9/1 351/1/1
f 360/1/1 359/2/1 352/3/1
f 360/1/1 357/4/1 358/5/1
f 353/6/1 360/1/1 352/3/1
f 355/7/1 360/1/1 354/8/1
f 360/1/1 358/5/1 359/2/1
f 360/1/1 356/9/1 357/4/1
f 353/6/1 354/8/1 360/1/1
f 355/7/1 356/9/1 360/1/1
f 369/1/1 368/2/1 361/3/1
f 369/1/1 366/4/1 367/5/1
f 362/6/1 369/1/1 361/3/1
f 364/7/1 369/1/1 363/8/1
f 369/1/1 367/5/1 368/2/1
f 369/1/1 365/9/1 366/4/1
f 362/6/1 363/8/1 369/1/1
f 364/7/1 365/9/1 369/1/1
f 378/1/1 377/2/1 370/3/1
f 378/1/1 375/4/1 376/5/1
f 371/6/1 378/1/1 370/3/1
f 373/7/1 378/1/1 372/8/1
f 378/1/1 376/5/1 377/2/1
f 378/1/1 374/9/1 375/4/1
f 371/6/1 372/8/1 378/1/1
f 373/7/1 374/9/1 378/1/1
f 387/1/1 386/2/1 379/3/1
f 387/1/1 384/4/1 385/5/1
f 380/6/1 387/1/1 379/3/1
f 382/7/1 387/1/1 381/8/1
f 387/1/1 385/5/1 386/2/1
f 387/1/1 383/9/1 384/4/1
f 380/6/1 381/8/1 387/1/1
f 382/7/1 383/9/1 387/1/1
f 396/1/1 395/2/1 388/3/1
f 396/1/1 393/4/1 394/5/1
f 389/6/1 396/1/1 388/3/1
f 391/7/1 396/1/1 390/8/1
f 396/1/1 394/5/1 395/2/1
f 396/1/1 392/9/1 393/4/1
f 389/6/1 390/8/1 396/1/1
f 391/7/1 392/9/1 396/1/1
f 405/1/1 404/2/1 397/3/1
f 405/1/1 402/4/1 403/5/1
f 398/6/1 405/1/1 397/3/1
f 400/7/1 405/1/1 399/8/1
f 405/1/1 403/5/1 404/2/1
f 405/1/1 401/9/1 402/4/1
f 398/6/1 399/8/1 405/1/1
f 400/7/1 401/9/1 405/1/1
f 414/1/1 413/2/1 406/3/1
f 414/1/1 411/4/1 412/5/1
f 407/6/1 414/1/1 406/3/1
f 409/7/1 414/1/1 408/8/1
f 414/1/1 412/5/1 413/2/1
f 414/1/1 410/9/1 411/4/1
f 407/6/1 408/8/1 414/1/1
f 409/7/1 410/9/1 414/1/1
f 423/1/1 422/2/1 415/3/1
f 423/1/1 420/4/1 421/5/1
f 416/6/1 423/1/1 415/3/1
f 418/7/1 423/1/1 417/8/1
f 423/1/1 421/5/1 422/2/1
f 423/1/1 419/9/1 420/4/1
f 416/6/1 417/8/1 423/1/1
f 418/7/1 419/9/1 423/1/1
f 432/1/1 431/2/1 424/3/1
f 432/1/1 429/4/1 430/5/1
f 425/6/1 432/1/1 424/3/1
f 427/7/1 432/1/1 426/8/1
f 432/1/1 430/5/1 431/2/1
f 432/1/1 428/9/1 429/4/1
f 425/6/1 426/8/1 432/1/1
f 427/7/1 428/9/1 432/1/1
f 441/1/1 440/2/1 433/3/1
f 441/1/1 438/4/1 439/5/1
f 434/6/1 441/1/1 433/3/1
f 436/7/1 441/1/1 435/8/1
f 441/1/1 439/5/1 440/2/1
f 441/1/1 437/9/1 438/4/1
f 434/6/1 435/8/1 441/1/1
f 436/7/1 437/9/1 441/1/1
f 450/1/1 449/2/1 442/3/1
f 450/1/1 447/4/1 448/5/1
f 443/6/1 450/1/1 442/3/1
f 445/7/1 450/1/1 444/8/1
f 450/1/1 448/5/1 449/2/1
f 450/1/1 446/9/1 447/4/1
f 443/6/1 444/8/1 450/1/1
f 445/7/1 446/9/1 450/1/1
