# Blender 4.3.2
# www.blender.org
mtllib indicator_11.mtl
o Circle.001
v 8.136631 0.000000 -37.502602
v 8.186655 0.000000 -37.521572
v 8.207379 0.000000 -37.570911
v 8.186655 0.000000 -37.621685
v 8.136631 0.000000 -37.644180
v 8.089845 -0.000000 -37.625507
v 8.065951 -0.000000 -37.577126
v 8.083407 0.000000 -37.525600
v 8.136629 0.000000 -37.573391
v 7.988684 0.000000 -37.513401
v 8.040786 0.000000 -37.529179
v 8.065951 -0.000000 -37.577126
v 8.049826 -0.000000 -37.628880
v 8.002283 -0.000000 -37.654331
v 7.950040 -0.000000 -37.638466
v 7.924989 -0.000000 -37.590321
v 7.941263 0.000000 -37.538742
v 7.995483 -0.000000 -37.583866
v 7.851488 0.000000 -37.524261
v 7.900743 -0.000000 -37.542049
v 7.924989 -0.000000 -37.590321
v 7.907899 0.000000 -37.641903
v 7.857227 -0.000000 -37.665726
v 7.803659 -0.000000 -37.645893
v 7.783590 -0.000000 -37.595249
v 7.804975 0.000000 -37.545788
v 7.854358 0.000000 -37.594994
v 7.732743 -0.000000 -37.518105
v 7.767322 -0.000000 -37.544182
v 7.783590 -0.000000 -37.595249
v 7.758491 0.000000 -37.643906
v 7.694352 0.000000 -37.654381
v 7.641877 0.000000 -37.606461
v 7.652730 0.000000 -37.551765
v 7.696358 -0.000000 -37.522469
v 7.713548 -0.000000 -37.586243
v 7.648316 -0.000000 -37.453899
v 7.667818 -0.000000 -37.500137
v 7.652730 0.000000 -37.551765
v 7.604866 0.000000 -37.577980
v 7.550831 0.000000 -37.556576
v 7.527938 -0.000000 -37.504082
v 7.550300 0.000000 -37.454441
v 7.600698 0.000000 -37.435318
v 7.599574 -0.000000 -37.505238
v 7.557783 -0.000000 -37.354916
v 7.573977 0.000000 -37.405319
v 7.550300 0.000000 -37.454441
v 7.499486 -0.000000 -37.472206
v 7.450163 0.000000 -37.446911
v 7.433341 0.000000 -37.394344
v 7.458919 -0.000000 -37.346325
v 7.510526 0.000000 -37.330585
v 7.503973 -0.000000 -37.400913
v 7.469916 0.000000 -37.247135
v 7.484770 -0.000000 -37.298637
v 7.458919 -0.000000 -37.346321
v 7.407039 0.000000 -37.361725
v 7.359098 -0.000000 -37.335255
v 7.344370 0.000000 -37.282887
v 7.370816 0.000000 -37.235497
v 7.422857 -0.000000 -37.220737
v 7.414507 -0.000000 -37.291195
v 7.382607 -0.000000 -37.135948
v 7.397316 0.000000 -37.188175
v 7.370816 0.000000 -37.235497
v 7.318724 -0.000000 -37.250187
v 7.271529 0.000000 -37.223740
v 7.256911 -0.000000 -37.171783
v 7.283188 0.000000 -37.124294
v 7.335170 0.000000 -37.109344
v 7.327068 -0.000000 -37.179844
v 7.293453 -0.000000 -37.024296
v 7.309345 -0.000000 -37.076653
v 7.283188 0.000000 -37.124294
v 7.231325 0.000000 -37.139389
v 7.184011 0.000000 -37.114117
v 7.168625 0.000000 -37.062752
v 7.193773 -0.000000 -37.014526
v 7.245258 0.000000 -36.998329
v 7.238732 -0.000000 -37.069206
v 7.199837 0.000000 -36.913937
v 7.218391 0.000000 -36.966034
v 7.193773 -0.000000 -37.014526
v 7.142468 0.000000 -37.031288
v 7.094514 -0.000000 -37.008556
v 7.077425 0.000000 -36.958092
v 7.099714 0.000000 -36.908745
v 7.150416 -0.000000 -36.889572
v 7.147176 -0.000000 -36.961246
v 7.097593 -0.000000 -36.807144
v 7.120476 -0.000000 -36.858879
v 7.099714 0.000000 -36.908745
v 7.049466 0.000000 -36.929451
v 7.001158 0.000000 -36.910805
v 6.980188 0.000000 -36.863922
v 6.996067 -0.000000 -36.812542
v 7.044328 -0.000000 -36.787056
v 7.049376 0.000000 -36.858974
v 6.975317 -0.000000 -36.710033
v 7.009561 -0.000000 -36.759285
v 6.996067 -0.000000 -36.812542
v 6.950189 0.000000 -36.839890
v 6.902875 0.000000 -36.831676
v 6.875978 0.000000 -36.793098
v 6.876313 0.000000 -36.738705
v 6.914350 -0.000000 -36.700630
v 6.939095 0.000000 -36.770855
v 6.807001 0.000000 -36.653526
v 6.866636 0.000000 -36.685574
v 6.876313 0.000000 -36.738705
v 6.845387 -0.000000 -36.783405
v 6.807001 -0.000000 -36.795105
v 6.757989 -0.000000 -36.764194
v 6.737688 -0.000000 -36.709923
v 6.757989 0.000000 -36.664082
v 6.807001 -0.000000 -36.724316
vn -0.0000 1.0000 -0.0000
vt 0.257812 0.500000
vt 0.158743 0.104596
vt 0.356882 0.104596
vt 0.018638 0.663782
vt 0.018638 0.336218
vt 0.496987 0.336218
vt 0.356882 0.895404
vt 0.496987 0.663782
vt 0.158743 0.895404
s 0
f 9/1/1 8/2/1 1/3/1
f 9/1/1 6/4/1 7/5/1
f 2/6/1 9/1/1 1/3/1
f 4/7/1 9/1/1 3/8/1
f 9/1/1 7/5/1 8/2/1
f 9/1/1 5/9/1 6/4/1
f 2/6/1 3/8/1 9/1/1
f 4/7/1 5/9/1 9/1/1
f 18/1/1 17/2/1 10/3/1
f 18/1/1 15/4/1 16/5/1
f 11/6/1 18/1/1 10/3/1
f 13/7/1 18/1/1 12/8/1
f 18/1/1 16/5/1 17/2/1
f 18/1/1 14/9/1 15/4/1
f 11/6/1 12/8/1 18/1/1
f 13/7/1 14/9/1 18/1/1
f 27/1/1 26/2/1 19/3/1
f 27/1/1 24/4/1 25/5/1
f 20/6/1 27/1/1 19/3/1
f 22/7/1 27/1/1 21/8/1
f 27/1/1 25/5/1 26/2/1
f 27/1/1 23/9/1 24/4/1
f 20/6/1 21/8/1 27/1/1
f 22/7/1 23/9/1 27/1/1
f 36/1/1 35/2/1 28/3/1
f 36/1/1 33/4/1 34/5/1
f 29/6/1 36/1/1 28/3/1
f 31/7/1 36/1/1 30/8/1
f 36/1/1 34/5/1 35/2/1
f 36/1/1 32/9/1 33/4/1
f 29/6/1 30/8/1 36/1/1
f 31/7/1 32/9/1 36/1/1
f 45/1/1 44/2/1 37/3/1
f 45/1/1 42/4/1 43/5/1
f 38/6/1 45/1/1 37/3/1
f 40/7/1 45/1/1 39/8/1
f 45/1/1 43/5/1 44/2/1
f 45/1/1 41/9/1 42/4/1
f 38/6/1 39/8/1 45/1/1
f 40/7/1 41/9/1 45/1/1
f 54/1/1 53/2/1 46/3/1
f 54/1/1 51/4/1 52/5/1
f 47/6/1 54/1/1 46/3/1
f 49/7/1 54/1/1 48/8/1
f 54/1/1 52/5/1 53/2/1
f 54/1/1 50/9/1 51/4/1
f 47/6/1 48/8/1 54/1/1
f 49/7/1 50/9/1 54/1/1
f 63/1/1 62/2/1 55/3/1
f 63/1/1 60/4/1 61/5/1
f 56/6/1 63/1/1 55/3/1
f 58/7/1 63/1/1 57/8/1
f 63/1/1 61/5/1 62/2/1
f 63/1/1 59/9/1 60/4/1
f 56/6/1 57/8/1 63/1/1
f 58/7/1 59/9/1 63/1/1
f 72/1/1 71/2/1 64/3/1
f 72/1/1 69/4/1 70/5/1
f 65/6/1 72/1/1 64/3/1
f 67/7/1 72/1/1 66/8/1
f 72/1/1 70/5/1 71/2/1
f 72/1/1 68/9/1 69/4/1
f 65/6/1 66/8/1 72/1/1
f 67/7/1 68/9/1 72/1/1
f 81/1/1 80/2/1 73/3/1
f 81/1/1 78/4/1 79/5/1
f 74/6/1 81/1/1 73/3/1
f 76/7/1 81/1/1 75/8/1
f 81/1/1 79/5/1 80/2/1
f 81/1/1 77/9/1 78/4/1
f 74/6/1 75/8/1 81/1/1
f 76/7/1 77/9/1 81/1/1
f 90/1/1 89/2/1 82/3/1
f 90/1/1 87/4/1 88/5/1
f 83/6/1 90/1/1 82/3/1
f 85/7/1 90/1/1 84/8/1
f 90/1/1 88/5/1 89/2/1
f 90/1/1 86/9/1 87/4/1
f 83/6/1 84/8/1 90/1/1
f 85/7/1 86/9/1 90/1/1
f 99/1/1 98/2/1 91/3/1
f 99/1/1 96/4/1 97/5/1
f 92/6/1 99/1/1 91/3/1
f 94/7/1 99/1/1 93/8/1
f 99/1/1 97/5/1 98/2/1
f 99/1/1 95/9/1 96/4/1
f 92/6/1 93/8/1 99/1/1
f 94/7/1 95/9/1 99/1/1
f 108/1/1 107/2/1 100/3/1
f 108/1/1 105/4/1 106/5/1
f 101/6/1 108/1/1 100/3/1
f 103/7/1 108/1/1 102/8/1
f 108/1/1 106/5/1 107/2/1
f 108/1/1 104/9/1 105/4/1
f 101/6/1 102/8/1 108/1/1
f 103/7/1 104/9/1 108/1/1
f 117/1/1 116/2/1 109/3/1
f 117/1/1 114/4/1 115/5/1
f 110/6/1 117/1/1 109/3/1
f 112/7/1 117/1/1 111/8/1
f 117/1/1 115/5/1 116/2/1
f 117/1/1 113/9/1 114/4/1
f 110/6/1 111/8/1 117/1/1
f 112/7/1 113/9/1 117/1/1
