# Blender 4.3.2
# www.blender.org
mtllib indicator_05.mtl
o Circle.004
v 8.425160 3.769425 6.927674
v 8.453029 3.769425 7.004082
v 8.527949 3.769425 7.035731
v 8.606035 3.769425 7.004082
v 8.641544 3.769425 6.927674
v 8.613662 3.769425 6.852680
v 8.538754 3.769426 6.819617
v 8.460681 3.769425 6.849854
v 8.533352 3.769425 6.927674
v 8.439455 3.769425 6.639384
v 8.467168 3.769426 6.719353
v 8.541996 3.769426 6.754783
v 8.619987 3.769426 6.726915
v 8.655341 3.769425 6.654068
v 8.627437 3.769426 6.576918
v 8.552799 3.769426 6.538668
v 8.475000 3.769426 6.563718
v 8.547398 3.769425 6.646726
v 8.469243 3.769426 6.352890
v 8.489465 3.769426 6.434101
v 8.560888 3.769425 6.474308
v 8.641444 3.769426 6.451798
v 8.683714 3.769426 6.381601
v 8.663144 3.769425 6.302989
v 8.592068 3.769425 6.260182
v 8.511861 3.769425 6.280089
v 8.576478 3.769426 6.367245
v 8.514147 3.769426 6.068513
v 8.530708 3.769425 6.150965
v 8.601422 3.769426 6.195944
v 8.681270 3.769426 6.178207
v 8.726420 3.769426 6.110490
v 8.712559 3.769425 6.031009
v 8.644978 3.769426 5.984165
v 8.562931 3.769425 5.999027
v 8.620283 3.769426 6.089502
v 8.579706 3.769426 5.788689
v 8.592651 3.769426 5.872201
v 8.659795 3.769425 5.920964
v 8.741406 3.769426 5.908022
v 8.789275 3.769426 5.842568
v 8.775745 3.769425 5.761327
v 8.710998 3.769425 5.710791
v 8.628160 3.769425 5.720960
v 8.684490 3.769426 5.815629
v 8.659971 3.769425 5.513451
v 8.666831 3.769425 5.596834
v 8.730584 3.769426 5.648901
v 8.813461 3.769426 5.640545
v 8.866487 3.769425 5.578051
v 8.859014 3.769425 5.496633
v 8.795873 3.769425 5.442601
v 8.713612 3.769425 5.448994
v 8.763228 3.769425 5.545751
v 8.751060 3.769426 5.241983
v 8.752876 3.769426 5.325046
v 8.815459 3.769425 5.380711
v 8.897166 3.769426 5.375953
v 8.954259 3.769426 5.316361
v 8.952092 3.769426 5.235067
v 8.892117 3.769425 5.178432
v 8.809029 3.769426 5.180809
v 8.852659 3.769426 5.279172
v 8.855329 3.769426 4.975755
v 8.856358 3.769426 5.059965
v 8.915791 3.769425 5.117988
v 8.998338 3.769426 5.116997
v 9.055168 3.769426 5.058738
v 9.054519 3.769425 4.976585
v 8.997438 3.769426 4.917669
v 8.913875 3.769425 4.916333
v 8.955248 3.769426 5.017247
v 8.971487 3.769426 4.715175
v 8.967994 3.769425 4.798614
v 9.024564 3.769425 4.858693
v 9.107618 3.769426 4.861193
v 9.168060 3.769426 4.805624
v 9.170921 3.769425 4.723560
v 9.114983 3.769425 4.662107
v 9.032562 3.769425 4.658231
v 9.069774 3.769426 4.760400
v 9.094718 3.769426 4.458240
v 9.087389 3.769425 4.540884
v 9.142109 3.769425 4.603130
v 9.224666 3.769425 4.608459
v 9.288053 3.769426 4.555419
v 9.294807 3.769425 4.473914
v 9.241387 3.769426 4.410886
v 9.158676 3.769425 4.404061
v 9.191385 3.769426 4.506830
v 9.226259 3.769426 4.205846
v 9.218464 3.769426 4.289344
v 9.271389 3.769425 4.353320
v 9.353605 3.769426 4.361093
v 9.416526 3.769426 4.308904
v 9.424921 3.769426 4.227138
v 9.373734 3.769426 4.162714
v 9.290950 3.769426 4.153227
v 9.321392 3.769426 4.257375
v 9.366293 3.769425 3.958647
v 9.355346 3.769426 4.041243
v 9.406099 3.769425 4.106441
v 9.488450 3.769426 4.116703
v 9.553788 3.769425 4.066663
v 9.564206 3.769426 3.984985
v 9.513981 3.769425 3.918869
v 9.432158 3.769426 3.907691
v 9.460040 3.769425 4.012655
v 9.510784 3.769426 3.714346
v 9.497245 3.769426 3.796153
v 9.546347 3.769425 3.862597
v 9.628418 3.769426 3.874923
v 9.695661 3.769426 3.826786
v 9.708751 3.769425 3.745715
v 9.660341 3.769426 3.678681
v 9.578473 3.769426 3.665473
v 9.603222 3.769425 3.770566
v 9.660481 3.769425 3.473545
v 9.646587 3.769425 3.555904
v 9.694614 3.769426 3.623551
v 9.776102 3.769426 3.637372
v 9.842991 3.769425 3.589788
v 9.857335 3.769426 3.508687
v 9.810478 3.769426 3.440821
v 9.728696 3.769426 3.425843
v 9.751736 3.769425 3.531666
v 9.815611 3.769426 3.236715
v 9.799703 3.769426 3.318310
v 9.846250 3.769426 3.386652
v 9.927722 3.769426 3.402108
v 9.996130 3.769426 3.356025
v 10.011664 3.769426 3.274995
v 9.965490 3.769426 3.206087
v 9.884394 3.769426 3.190064
v 9.905870 3.769426 3.296370
v 9.973371 3.769425 3.001915
v 9.955917 3.769426 3.082924
v 10.001263 3.769426 3.151917
v 10.082593 3.769426 3.168740
v 10.152116 3.769425 3.123866
v 10.169284 3.769426 3.043274
v 10.124243 3.769426 2.973879
v 10.043177 3.769426 2.956625
v 10.062743 3.769425 3.062891
v 10.134015 3.769425 2.769405
v 10.116343 3.769426 2.850728
v 10.161144 3.769426 2.920471
v 10.241970 3.769426 2.938071
v 10.311271 3.769425 2.893512
v 10.329672 3.769426 2.812448
v 10.285133 3.769426 2.743141
v 10.203811 3.769426 2.725441
v 10.222643 3.769425 2.831459
v 10.294896 3.769425 2.543222
v 10.277510 3.769425 2.622105
v 10.322813 3.769425 2.690280
v 10.404905 3.769425 2.706847
v 10.476330 3.769425 2.661137
v 10.494605 3.769425 2.580885
v 10.448411 3.769426 2.514078
v 10.365431 3.769425 2.498880
v 10.385612 3.769425 2.602179
v 10.433852 3.769425 2.317387
v 10.431427 3.769425 2.395637
v 10.483861 3.769426 2.459835
v 10.566167 3.769425 2.468136
v 10.630054 3.769426 2.408640
v 10.632577 3.769426 2.323118
v 10.574923 3.769426 2.263721
v 10.492097 3.769426 2.262486
v 10.531953 3.769426 2.363014
v 10.538249 3.769426 2.063381
v 10.539796 3.769426 2.145443
v 10.599081 3.769425 2.203472
v 10.681731 3.769426 2.202587
v 10.739682 3.769426 2.142418
v 10.738042 3.769426 2.059026
v 10.677805 3.769426 2.001924
v 10.595222 3.769426 2.004129
v 10.638966 3.769426 2.102900
v 10.637388 3.769426 1.802336
v 10.640249 3.769425 1.884615
v 10.700692 3.769426 1.941177
v 10.783480 3.769425 1.938430
v 10.840287 3.769426 1.877529
v 10.836882 3.769426 1.794416
v 10.775875 3.769425 1.738278
v 10.693239 3.769426 1.741712
v 10.738837 3.769426 1.839932
v 10.733088 3.769425 1.539129
v 10.736894 3.769426 1.621491
v 10.798032 3.769425 1.677262
v 10.880804 3.769426 1.673460
v 10.936832 3.769425 1.612003
v 10.932488 3.769426 1.528991
v 10.870909 3.769426 1.473522
v 10.788288 3.769426 1.477834
v 10.834960 3.769425 1.575566
v 10.826171 3.769426 1.274762
v 10.830773 3.769425 1.357129
v 10.892462 3.769426 1.412289
v 10.975193 3.769425 1.407665
v 11.030595 3.769426 1.345706
v 11.025526 3.769426 1.262757
v 10.963426 3.769426 1.207875
v 10.880846 3.769426 1.212970
v 10.928383 3.769426 1.310234
v 10.916808 3.769426 1.009568
v 10.922190 3.769425 1.091878
v 10.984400 3.769425 1.146442
v 11.067087 3.769425 1.141027
v 11.121906 3.769425 1.078537
v 11.116073 3.769426 0.995611
v 11.053411 3.769425 0.941360
v 10.970894 3.769426 0.947297
v 11.019357 3.769426 1.044052
v 11.004698 3.769426 0.743703
v 11.010959 3.769426 0.825861
v 11.073750 3.769426 0.879714
v 11.156399 3.769426 0.873381
v 11.210599 3.769426 0.810235
v 11.203688 3.769426 0.727220
v 11.140312 3.769426 0.673827
v 11.057870 3.769426 0.680874
v 11.107648 3.769426 0.776969
v 11.088356 3.769425 0.477382
v 11.096279 3.769426 0.559138
v 11.159845 3.769426 0.611920
v 11.242481 3.769426 0.604261
v 11.295534 3.769425 0.539824
v 11.287018 3.769426 0.456553
v 11.222500 3.769425 0.404816
v 11.140084 3.769426 0.413876
v 11.191945 3.769426 0.508603
v 11.162636 3.769426 0.213466
v 11.175108 3.769426 0.292310
v 11.240833 3.769426 0.342543
v 11.322990 3.769426 0.331576
v 11.373460 3.769425 0.262206
v 11.360752 3.769426 0.175415
v 11.290110 3.769426 0.132043
v 11.209661 3.769426 0.151284
v 11.268047 3.769426 0.237836
v 11.208711 3.769426 -0.038978
v 11.228559 3.769426 0.036603
v 11.300158 3.769426 0.067909
v 11.381565 3.769426 0.036603
v 11.425095 3.769426 -0.038978
v 11.405247 3.769426 -0.114560
v 11.333645 3.769426 -0.145866
v 11.252240 3.769426 -0.114560
v 11.316902 3.769426 -0.038978
vn -0.0000 1.0000 -0.0000
vt 0.253417 0.500000
vt 0.354167 0.913435
vt 0.152667 0.913435
vt 0.496648 0.328749
vt 0.496648 0.671250
vt 0.010185 0.671251
vt 0.152667 0.086565
vt 0.010185 0.328750
vt 0.354166 0.086565
s 0
f 9/1/1 8/2/1 1/3/1
f 9/1/1 6/4/1 7/5/1
f 2/6/1 9/1/1 1/3/1
f 4/7/1 9/1/1 3/8/1
f 9/1/1 7/5/1 8/2/1
f 9/1/1 5/9/1 6/4/1
f 2/6/1 3/8/1 9/1/1
f 4/7/1 5/9/1 9/1/1
f 18/1/1 17/2/1 10/3/1
f 18/1/1 15/4/1 16/5/1
f 11/6/1 18/1/1 10/3/1
f 13/7/1 18/1/1 12/8/1
f 18/1/1 16/5/1 17/2/1
f 18/1/1 14/9/1 15/4/1
f 11/6/1 12/8/1 18/1/1
f 13/7/1 14/9/1 18/1/1
f 27/1/1 26/2/1 19/3/1
f 27/1/1 24/4/1 25/5/1
f 20/6/1 27/1/1 19/3/1
f 22/7/1 27/1/1 21/8/1
f 27/1/1 25/5/1 26/2/1
f 27/1/1 23/9/1 24/4/1
f 20/6/1 21/8/1 27/1/1
f 22/7/1 23/9/1 27/1/1
f 36/1/1 35/2/1 28/3/1
f 36/1/1 33/4/1 34/5/1
f 29/6/1 36/1/1 28/3/1
f 31/7/1 36/1/1 30/8/1
f 36/1/1 34/5/1 35/2/1
f 36/1/1 32/9/1 33/4/1
f 29/6/1 30/8/1 36/1/1
f 31/7/1 32/9/1 36/1/1
f 45/1/1 44/2/1 37/3/1
f 45/1/1 42/4/1 43/5/1
f 38/6/1 45/1/1 37/3/1
f 40/7/1 45/1/1 39/8/1
f 45/1/1 43/5/1 44/2/1
f 45/1/1 41/9/1 42/4/1
f 38/6/1 39/8/1 45/1/1
f 40/7/1 41/9/1 45/1/1
f 54/1/1 53/2/1 46/3/1
f 54/1/1 51/4/1 52/5/1
f 47/6/1 54/1/1 46/3/1
f 49/7/1 54/1/1 48/8/1
f 54/1/1 52/5/1 53/2/1
f 54/1/1 50/9/1 51/4/1
f 47/6/1 48/8/1 54/1/1
f 49/7/1 50/9/1 54/1/1
f 63/1/1 62/2/1 55/3/1
f 63/1/1 60/4/1 61/5/1
f 56/6/1 63/1/1 55/3/1
f 58/7/1 63/1/1 57/8/1
f 63/1/1 61/5/1 62/2/1
f 63/1/1 59/9/1 60/4/1
f 56/6/1 57/8/1 63/1/1
f 58/7/1 59/9/1 63/1/1
f 72/1/1 71/2/1 64/3/1
f 72/1/1 69/4/1 70/5/1
f 65/6/1 72/1/1 64/3/1
f 67/7/1 72/1/1 66/8/1
f 72/1/1 70/5/1 71/2/1
f 72/1/1 68/9/1 69/4/1
f 65/6/1 66/8/1 72/1/1
f 67/7/1 68/9/1 72/1/1
f 81/1/1 80/2/1 73/3/1
f 81/1/1 78/4/1 79/5/1
f 74/6/1 81/1/1 73/3/1
f 76/7/1 81/1/1 75/8/1
f 81/1/1 79/5/1 80/2/1
f 81/1/1 77/9/1 78/4/1
f 74/6/1 75/8/1 81/1/1
f 76/7/1 77/9/1 81/1/1
f 90/1/1 89/2/1 82/3/1
f 90/1/1 87/4/1 88/5/1
f 83/6/1 90/1/1 82/3/1
f 85/7/1 90/1/1 84/8/1
f 90/1/1 88/5/1 89/2/1
f 90/1/1 86/9/1 87/4/1
f 83/6/1 84/8/1 90/1/1
f 85/7/1 86/9/1 90/1/1
f 99/1/1 98/2/1 91/3/1
f 99/1/1 96/4/1 97/5/1
f 92/6/1 99/1/1 91/3/1
f 94/7/1 99/1/1 93/8/1
f 99/1/1 97/5/1 98/2/1
f 99/1/1 95/9/1 96/4/1
f 92/6/1 93/8/1 99/1/1
f 94/7/1 95/9/1 99/1/1
f 108/1/1 107/2/1 100/3/1
f 108/1/1 105/4/1 106/5/1
f 101/6/1 108/1/1 100/3/1
f 103/7/1 108/1/1 102/8/1
f 108/1/1 106/5/1 107/2/1
f 108/1/1 104/9/1 105/4/1
f 101/6/1 102/8/1 108/1/1
f 103/7/1 104/9/1 108/1/1
f 117/1/1 116/2/1 109/3/1
f 117/1/1 114/4/1 115/5/1
f 110/6/1 117/1/1 109/3/1
f 112/7/1 117/1/1 111/8/1
f 117/1/1 115/5/1 116/2/1
f 117/1/1 113/9/1 114/4/1
f 110/6/1 111/8/1 117/1/1
f 112/7/1 113/9/1 117/1/1
f 126/1/1 125/2/1 118/3/1
f 126/1/1 123/4/1 124/5/1
f 119/6/1 126/1/1 118/3/1
f 121/7/1 126/1/1 120/8/1
f 126/1/1 124/5/1 125/2/1
f 126/1/1 122/9/1 123/4/1
f 119/6/1 120/8/1 126/1/1
f 121/7/1 122/9/1 126/1/1
f 135/1/1 134/2/1 127/3/1
f 135/1/1 132/4/1 133/5/1
f 128/6/1 135/1/1 127/3/1
f 130/7/1 135/1/1 129/8/1
f 135/1/1 133/5/1 134/2/1
f 135/1/1 131/9/1 132/4/1
f 128/6/1 129/8/1 135/1/1
f 130/7/1 131/9/1 135/1/1
f 144/1/1 143/2/1 136/3/1
f 144/1/1 141/4/1 142/5/1
f 137/6/1 144/1/1 136/3/1
f 139/7/1 144/1/1 138/8/1
f 144/1/1 142/5/1 143/2/1
f 144/1/1 140/9/1 141/4/1
f 137/6/1 138/8/1 144/1/1
f 139/7/1 140/9/1 144/1/1
f 153/1/1 152/2/1 145/3/1
f 153/1/1 150/4/1 151/5/1
f 146/6/1 153/1/1 145/3/1
f 148/7/1 153/1/1 147/8/1
f 153/1/1 151/5/1 152/2/1
f 153/1/1 149/9/1 150/4/1
f 146/6/1 147/8/1 153/1/1
f 148/7/1 149/9/1 153/1/1
f 162/1/1 161/2/1 154/3/1
f 162/1/1 159/4/1 160/5/1
f 155/6/1 162/1/1 154/3/1
f 157/7/1 162/1/1 156/8/1
f 162/1/1 160/5/1 161/2/1
f 162/1/1 158/9/1 159/4/1
f 155/6/1 156/8/1 162/1/1
f 157/7/1 158/9/1 162/1/1
f 171/1/1 170/2/1 163/3/1
f 171/1/1 168/4/1 169/5/1
f 164/6/1 171/1/1 163/3/1
f 166/7/1 171/1/1 165/8/1
f 171/1/1 169/5/1 170/2/1
f 171/1/1 167/9/1 168/4/1
f 164/6/1 165/8/1 171/1/1
f 166/7/1 167/9/1 171/1/1
f 180/1/1 179/2/1 172/3/1
f 180/1/1 177/4/1 178/5/1
f 173/6/1 180/1/1 172/3/1
f 175/7/1 180/1/1 174/8/1
f 180/1/1 178/5/1 179/2/1
f 180/1/1 176/9/1 177/4/1
f 173/6/1 174/8/1 180/1/1
f 175/7/1 176/9/1 180/1/1
f 189/1/1 188/2/1 181/3/1
f 189/1/1 186/4/1 187/5/1
f 182/6/1 189/1/1 181/3/1
f 184/7/1 189/1/1 183/8/1
f 189/1/1 187/5/1 188/2/1
f 189/1/1 185/9/1 186/4/1
f 182/6/1 183/8/1 189/1/1
f 184/7/1 185/9/1 189/1/1
f 198/1/1 197/2/1 190/3/1
f 198/1/1 195/4/1 196/5/1
f 191/6/1 198/1/1 190/3/1
f 193/7/1 198/1/1 192/8/1
f 198/1/1 196/5/1 197/2/1
f 198/1/1 194/9/1 195/4/1
f 191/6/1 192/8/1 198/1/1
f 193/7/1 194/9/1 198/1/1
f 207/1/1 206/2/1 199/3/1
f 207/1/1 204/4/1 205/5/1
f 200/6/1 207/1/1 199/3/1
f 202/7/1 207/1/1 201/8/1
f 207/1/1 205/5/1 206/2/1
f 207/1/1 203/9/1 204/4/1
f 200/6/1 201/8/1 207/1/1
f 202/7/1 203/9/1 207/1/1
f 216/1/1 215/2/1 208/3/1
f 216/1/1 213/4/1 214/5/1
f 209/6/1 216/1/1 208/3/1
f 211/7/1 216/1/1 210/8/1
f 216/1/1 214/5/1 215/2/1
f 216/1/1 212/9/1 213/4/1
f 209/6/1 210/8/1 216/1/1
f 211/7/1 212/9/1 216/1/1
f 225/1/1 224/2/1 217/3/1
f 225/1/1 222/4/1 223/5/1
f 218/6/1 225/1/1 217/3/1
f 220/7/1 225/1/1 219/8/1
f 225/1/1 223/5/1 224/2/1
f 225/1/1 221/9/1 222/4/1
f 218/6/1 219/8/1 225/1/1
f 220/7/1 221/9/1 225/1/1
f 234/1/1 233/2/1 226/3/1
f 234/1/1 231/4/1 232/5/1
f 227/6/1 234/1/1 226/3/1
f 229/7/1 234/1/1 228/8/1
f 234/1/1 232/5/1 233/2/1
f 234/1/1 230/9/1 231/4/1
f 227/6/1 228/8/1 234/1/1
f 229/7/1 230/9/1 234/1/1
f 243/1/1 242/2/1 235/3/1
f 243/1/1 240/4/1 241/5/1
f 236/6/1 243/1/1 235/3/1
f 238/7/1 243/1/1 237/8/1
f 243/1/1 241/5/1 242/2/1
f 243/1/1 239/9/1 240/4/1
f 236/6/1 237/8/1 243/1/1
f 238/7/1 239/9/1 243/1/1
f 252/1/1 251/2/1 244/3/1
f 252/1/1 249/4/1 250/5/1
f 245/6/1 252/1/1 244/3/1
f 247/7/1 252/1/1 246/8/1
f 252/1/1 250/5/1 251/2/1
f 252/1/1 248/9/1 249/4/1
f 245/6/1 246/8/1 252/1/1
f 247/7/1 248/9/1 252/1/1
