# Blender 4.3.2
# www.blender.org
mtllib indicator_08.mtl
o Circle
v -1.060578 3.769426 -11.043865
v -1.023412 3.769426 -11.114269
v -1.052834 3.769426 -11.188245
v -1.131607 3.769426 -11.222459
v -1.213588 3.769426 -11.196867
v -1.247414 3.769426 -11.129609
v -1.221332 3.769426 -11.052486
v -1.145899 3.769426 -11.015128
v -1.137083 3.769426 -11.120366
v -1.300017 3.769426 -10.861082
v -1.251804 3.769426 -10.929831
v -1.271881 3.769426 -11.011759
v -1.341311 3.769426 -11.053925
v -1.421733 3.769426 -11.039988
v -1.467166 3.769426 -10.974140
v -1.452514 3.769425 -10.893023
v -1.384181 3.769426 -10.845592
v -1.360875 3.769426 -10.950535
v -1.547469 3.769425 -10.710633
v -1.495482 3.769426 -10.775767
v -1.507498 3.769425 -10.858514
v -1.573194 3.769426 -10.907570
v -1.654944 3.769425 -10.898439
v -1.705657 3.769425 -10.834788
v -1.696238 3.769426 -10.752821
v -1.631150 3.769425 -10.701148
v -1.601206 3.769425 -10.804537
v -1.798484 3.769425 -10.574133
v -1.745097 3.769425 -10.639137
v -1.753257 3.769425 -10.721792
v -1.817086 3.769425 -10.774151
v -1.898179 3.769425 -10.766183
v -1.951704 3.769425 -10.704343
v -1.945293 3.769426 -10.622159
v -1.882084 3.769425 -10.568092
v -1.848331 3.769425 -10.670158
v -2.052870 3.769425 -10.448185
v -1.997797 3.769425 -10.510805
v -2.003471 3.769425 -10.593361
v -2.065943 3.769425 -10.647799
v -2.147995 3.769425 -10.642538
v -2.202184 3.769426 -10.580350
v -2.197408 3.769426 -10.497389
v -2.135806 3.769426 -10.442492
v -2.100432 3.769425 -10.545362
v -2.308838 3.769426 -10.326751
v -2.252478 3.769426 -10.387689
v -2.256341 3.769426 -10.470171
v -2.317740 3.769426 -10.526079
v -2.400289 3.769426 -10.522861
v -2.456050 3.769426 -10.462203
v -2.452785 3.769426 -10.379442
v -2.391983 3.769426 -10.323256
v -2.354563 3.769425 -10.424806
v -2.566015 3.769425 -10.208744
v -2.508957 3.769426 -10.269234
v -2.511719 3.769425 -10.352224
v -2.572017 3.769426 -10.408641
v -2.654435 3.769425 -10.406239
v -2.711355 3.769426 -10.346776
v -2.709358 3.769426 -10.264155
v -2.649291 3.769426 -10.206923
v -2.610225 3.769425 -10.307491
v -2.824955 3.769426 -10.095545
v -2.767226 3.769425 -10.155365
v -2.768839 3.769425 -10.238154
v -2.828522 3.769425 -10.295558
v -2.910990 3.769426 -10.294089
v -2.968259 3.769425 -10.234468
v -2.967106 3.769425 -10.151482
v -2.907882 3.769425 -10.093878
v -2.867972 3.769426 -10.194817
v -3.084856 3.769426 -9.984870
v -3.026330 3.769426 -10.043619
v -3.026921 3.769426 -10.126263
v -3.086005 3.769426 -10.184509
v -3.168692 3.769426 -10.184353
v -3.226824 3.769426 -10.125771
v -3.226628 3.769425 -10.042960
v -3.167938 3.769426 -9.984550
v -3.126774 3.769426 -10.084611
v -3.345510 3.769425 -9.876166
v -3.286674 3.769426 -9.935022
v -3.286540 3.769425 -10.017969
v -3.344897 3.769426 -10.076518
v -3.427289 3.769425 -10.076502
v -3.486166 3.769426 -10.018864
v -3.486872 3.769426 -9.936200
v -3.428725 3.769426 -9.877048
v -3.386399 3.769425 -9.976334
v -3.607743 3.769425 -9.771419
v -3.548187 3.769426 -9.829329
v -3.547157 3.769427 -9.912122
v -3.604982 3.769425 -9.971405
v -3.687517 3.769425 -9.972561
v -3.746687 3.769426 -9.914802
v -3.748104 3.769425 -9.831857
v -3.690664 3.769426 -9.772420
v -3.647630 3.769425 -9.871990
v -3.870803 3.769426 -9.668597
v -3.810491 3.769425 -9.725573
v -3.808558 3.769425 -9.808212
v -3.865824 3.769425 -9.868223
v -3.948437 3.769426 -9.870575
v -4.008311 3.769426 -9.813767
v -4.010682 3.769426 -9.730962
v -3.953853 3.769426 -9.670780
v -3.909620 3.769425 -9.769587
v -4.134893 3.769426 -9.568129
v -4.074059 3.769425 -9.624841
v -4.071319 3.769426 -9.707786
v -4.127781 3.769425 -9.768106
v -4.210170 3.769426 -9.770997
v -4.270752 3.769425 -9.715281
v -4.274224 3.769426 -9.632627
v -4.218125 3.769425 -9.571609
v -4.172532 3.769426 -9.669563
v -4.400863 3.769426 -9.471525
v -4.339217 3.769425 -9.527628
v -4.335238 3.769425 -9.610466
v -4.390831 3.769426 -9.671666
v -4.472999 3.769426 -9.675531
v -4.534173 3.769425 -9.620370
v -4.539092 3.769426 -9.537931
v -4.483985 3.769425 -9.475828
v -4.436931 3.769426 -9.573528
v -4.669642 3.769426 -9.379482
v -4.606416 3.769425 -9.434351
v -4.600575 3.769426 -9.517103
v -4.654761 3.769425 -9.579519
v -4.736452 3.769426 -9.585294
v -4.799344 3.769425 -9.531466
v -4.806132 3.769425 -9.449596
v -4.752204 3.769425 -9.385901
v -4.703047 3.769426 -9.482388
v -4.933579 3.769426 -9.297054
v -4.873434 3.769426 -9.349674
v -4.868320 3.769425 -9.430981
v -4.923922 3.769426 -9.494111
v -5.009245 3.769426 -9.499778
v -5.072183 3.769426 -9.438533
v -5.070892 3.769425 -9.355885
v -5.011326 3.769426 -9.298150
v -4.971412 3.769426 -9.398417
v -5.171571 3.769425 -9.179820
v -5.121975 3.769426 -9.244737
v -5.129612 3.769425 -9.328418
v -5.192269 3.769426 -9.380641
v -5.275500 3.769425 -9.369612
v -5.328271 3.769426 -9.302958
v -5.317460 3.769425 -9.221014
v -5.251629 3.769425 -9.170530
v -5.223536 3.769425 -9.274715
v -5.406950 3.769425 -9.037468
v -5.359660 3.769426 -9.105048
v -5.372890 3.769425 -9.187262
v -5.439620 3.769426 -9.235498
v -5.521490 3.769425 -9.221050
v -5.569809 3.769426 -9.152827
v -5.555550 3.769425 -9.071255
v -5.487790 3.769426 -9.023661
v -5.464220 3.769426 -9.129259
v -5.641066 3.769426 -8.886268
v -5.595102 3.769425 -8.955117
v -5.610347 3.769425 -9.036452
v -5.678726 3.769425 -9.083251
v -5.759962 3.769426 -9.067060
v -5.806373 3.769425 -8.997917
v -5.790457 3.769426 -8.916533
v -5.721853 3.769425 -8.870373
v -5.700514 3.769426 -8.976664
v -5.873757 3.769426 -8.730700
v -5.828132 3.769426 -8.799319
v -5.844422 3.769426 -8.880454
v -5.913400 3.769426 -8.926364
v -5.994973 3.769426 -8.909946
v -6.040576 3.769426 -8.840514
v -6.023698 3.769426 -8.759293
v -5.954584 3.769426 -8.713957
v -5.934365 3.769426 -8.820324
v -6.105175 3.769425 -8.572051
v -6.060150 3.769426 -8.641431
v -6.077202 3.769425 -8.722533
v -6.146494 3.769426 -8.767748
v -6.227581 3.769426 -8.750485
v -6.272816 3.769426 -8.680963
v -6.255553 3.769425 -8.600003
v -6.186052 3.769426 -8.554934
v -6.166378 3.769425 -8.661268
v -6.336236 3.769426 -8.412503
v -6.291536 3.769426 -8.482231
v -6.309058 3.769425 -8.563246
v -6.378598 3.769426 -8.608054
v -6.459473 3.769425 -8.590364
v -6.504253 3.769426 -8.520582
v -6.486650 3.769425 -8.439620
v -6.417032 3.769426 -8.394870
v -6.397855 3.769426 -8.501434
v -6.566897 3.769426 -8.251932
v -6.522258 3.769426 -8.321617
v -6.539927 3.769426 -8.402533
v -6.609612 3.769426 -8.447237
v -6.690547 3.769426 -8.429507
v -6.735247 3.769426 -8.359756
v -6.717484 3.769426 -8.278857
v -6.647753 3.769426 -8.234235
v -6.628722 3.769426 -8.340719
v -6.797604 3.769426 -8.090985
v -6.752969 3.769426 -8.160789
v -6.770713 3.769426 -8.241701
v -6.840425 3.769426 -8.286337
v -6.921254 3.769426 -8.268560
v -6.965866 3.769426 -8.198774
v -6.948145 3.769426 -8.117846
v -6.878455 3.769426 -8.073195
v -6.859429 3.769426 -8.179772
v -7.028469 3.769425 -7.930029
v -6.983672 3.769425 -7.999748
v -7.001374 3.769425 -8.080689
v -7.071044 3.769425 -8.125354
v -7.151896 3.769425 -8.107759
v -7.196631 3.769425 -8.038206
v -7.179110 3.769426 -7.957271
v -7.109496 3.769425 -7.912435
v -7.090183 3.769425 -8.018894
v -7.260046 3.769425 -7.769554
v -7.215062 3.769426 -7.839280
v -7.232465 3.769426 -7.920296
v -7.301961 3.769426 -7.965215
v -7.382740 3.769426 -7.947791
v -7.427581 3.769426 -7.878162
v -7.410341 3.769426 -7.797081
v -7.340965 3.769426 -7.752032
v -7.321393 3.769426 -7.858673
v -7.492884 3.769425 -7.610212
v -7.447193 3.769426 -7.679560
v -7.464039 3.769426 -7.760603
v -7.533308 3.769426 -7.806033
v -7.614183 3.769426 -7.789401
v -7.659531 3.769426 -7.720286
v -7.643028 3.769426 -7.639011
v -7.574102 3.769426 -7.593349
v -7.553533 3.769426 -7.699807
v -7.727401 3.769426 -7.452346
v -7.680512 3.769426 -7.521065
v -7.696725 3.769425 -7.602533
v -7.765363 3.769426 -7.648388
v -7.846354 3.769426 -7.633101
v -7.892595 3.769425 -7.565100
v -7.877492 3.769426 -7.483611
v -7.809307 3.769425 -7.436749
v -7.786878 3.769426 -7.542724
v -7.965380 3.769426 -7.297412
v -7.917452 3.769426 -7.366208
v -7.931862 3.769426 -7.448143
v -7.999352 3.769426 -7.495450
v -8.079828 3.769426 -7.481052
v -8.127414 3.769425 -7.415617
v -8.115412 3.769425 -7.333624
v -8.049043 3.769425 -7.284205
v -8.022604 3.769426 -7.389232
v -8.216313 3.769425 -7.150131
v -8.161268 3.769425 -7.217015
v -8.171095 3.769425 -7.300259
v -8.235287 3.769425 -7.350927
v -8.313731 3.769425 -7.343345
v -8.363234 3.769426 -7.284658
v -8.362746 3.769426 -7.200312
v -8.305013 3.769426 -7.143162
v -8.265022 3.769425 -7.246738
vn -0.0000 1.0000 -0.0000
vt 0.253417 0.500000
vt 0.152667 0.913435
vt 0.010185 0.671250
vt 0.496648 0.671251
vt 0.354167 0.913435
vt 0.010185 0.328749
vt 0.354167 0.086565
vt 0.152667 0.086565
vt 0.496648 0.328750
s 0
f 9/1/1 8/2/1 1/3/1
f 9/1/1 6/4/1 7/5/1
f 2/6/1 9/1/1 1/3/1
f 4/7/1 9/1/1 3/8/1
f 9/1/1 7/5/1 8/2/1
f 9/1/1 5/9/1 6/4/1
f 2/6/1 3/8/1 9/1/1
f 4/7/1 5/9/1 9/1/1
f 18/1/1 17/2/1 10/3/1
f 18/1/1 15/4/1 16/5/1
f 11/6/1 18/1/1 10/3/1
f 13/7/1 18/1/1 12/8/1
f 18/1/1 16/5/1 17/2/1
f 18/1/1 14/9/1 15/4/1
f 11/6/1 12/8/1 18/1/1
f 13/7/1 14/9/1 18/1/1
f 27/1/1 26/2/1 19/3/1
f 27/1/1 24/4/1 25/5/1
f 20/6/1 27/1/1 19/3/1
f 22/7/1 27/1/1 21/8/1
f 27/1/1 25/5/1 26/2/1
f 27/1/1 23/9/1 24/4/1
f 20/6/1 21/8/1 27/1/1
f 22/7/1 23/9/1 27/1/1
f 36/1/1 35/2/1 28/3/1
f 36/1/1 33/4/1 34/5/1
f 29/6/1 36/1/1 28/3/1
f 31/7/1 36/1/1 30/8/1
f 36/1/1 34/5/1 35/2/1
f 36/1/1 32/9/1 33/4/1
f 29/6/1 30/8/1 36/1/1
f 31/7/1 32/9/1 36/1/1
f 45/1/1 44/2/1 37/3/1
f 45/1/1 42/4/1 43/5/1
f 38/6/1 45/1/1 37/3/1
f 40/7/1 45/1/1 39/8/1
f 45/1/1 43/5/1 44/2/1
f 45/1/1 41/9/1 42/4/1
f 38/6/1 39/8/1 45/1/1
f 40/7/1 41/9/1 45/1/1
f 54/1/1 53/2/1 46/3/1
f 54/1/1 51/4/1 52/5/1
f 47/6/1 54/1/1 46/3/1
f 49/7/1 54/1/1 48/8/1
f 54/1/1 52/5/1 53/2/1
f 54/1/1 50/9/1 51/4/1
f 47/6/1 48/8/1 54/1/1
f 49/7/1 50/9/1 54/1/1
f 63/1/1 62/2/1 55/3/1
f 63/1/1 60/4/1 61/5/1
f 56/6/1 63/1/1 55/3/1
f 58/7/1 63/1/1 57/8/1
f 63/1/1 61/5/1 62/2/1
f 63/1/1 59/9/1 60/4/1
f 56/6/1 57/8/1 63/1/1
f 58/7/1 59/9/1 63/1/1
f 72/1/1 71/2/1 64/3/1
f 72/1/1 69/4/1 70/5/1
f 65/6/1 72/1/1 64/3/1
f 67/7/1 72/1/1 66/8/1
f 72/1/1 70/5/1 71/2/1
f 72/1/1 68/9/1 69/4/1
f 65/6/1 66/8/1 72/1/1
f 67/7/1 68/9/1 72/1/1
f 81/1/1 80/2/1 73/3/1
f 81/1/1 78/4/1 79/5/1
f 74/6/1 81/1/1 73/3/1
f 76/7/1 81/1/1 75/8/1
f 81/1/1 79/5/1 80/2/1
f 81/1/1 77/9/1 78/4/1
f 74/6/1 75/8/1 81/1/1
f 76/7/1 77/9/1 81/1/1
f 90/1/1 89/2/1 82/3/1
f 90/1/1 87/4/1 88/5/1
f 83/6/1 90/1/1 82/3/1
f 85/7/1 90/1/1 84/8/1
f 90/1/1 88/5/1 89/2/1
f 90/1/1 86/9/1 87/4/1
f 83/6/1 84/8/1 90/1/1
f 85/7/1 86/9/1 90/1/1
f 99/1/1 98/2/1 91/3/1
f 99/1/1 96/4/1 97/5/1
f 92/6/1 99/1/1 91/3/1
f 94/7/1 99/1/1 93/8/1
f 99/1/1 97/5/1 98/2/1
f 99/1/1 95/9/1 96/4/1
f 92/6/1 93/8/1 99/1/1
f 94/7/1 95/9/1 99/1/1
f 108/1/1 107/2/1 100/3/1
f 108/1/1 105/4/1 106/5/1
f 101/6/1 108/1/1 100/3/1
f 103/7/1 108/1/1 102/8/1
f 108/1/1 106/5/1 107/2/1
f 108/1/1 104/9/1 105/4/1
f 101/6/1 102/8/1 108/1/1
f 103/7/1 104/9/1 108/1/1
f 117/1/1 116/2/1 109/3/1
f 117/1/1 114/4/1 115/5/1
f 110/6/1 117/1/1 109/3/1
f 112/7/1 117/1/1 111/8/1
f 117/1/1 115/5/1 116/2/1
f 117/1/1 113/9/1 114/4/1
f 110/6/1 111/8/1 117/1/1
f 112/7/1 113/9/1 117/1/1
f 126/1/1 125/2/1 118/3/1
f 126/1/1 123/4/1 124/5/1
f 119/6/1 126/1/1 118/3/1
f 121/7/1 126/1/1 120/8/1
f 126/1/1 124/5/1 125/2/1
f 126/1/1 122/9/1 123/4/1
f 119/6/1 120/8/1 126/1/1
f 121/7/1 122/9/1 126/1/1
f 135/1/1 134/2/1 127/3/1
f 135/1/1 132/4/1 133/5/1
f 128/6/1 135/1/1 127/3/1
f 130/7/1 135/1/1 129/8/1
f 135/1/1 133/5/1 134/2/1
f 135/1/1 131/9/1 132/4/1
f 128/6/1 129/8/1 135/1/1
f 130/7/1 131/9/1 135/1/1
f 144/1/1 143/2/1 136/3/1
f 144/1/1 141/4/1 142/5/1
f 137/6/1 144/1/1 136/3/1
f 139/7/1 144/1/1 138/8/1
f 144/1/1 142/5/1 143/2/1
f 144/1/1 140/9/1 141/4/1
f 137/6/1 138/8/1 144/1/1
f 139/7/1 140/9/1 144/1/1
f 153/1/1 152/2/1 145/3/1
f 153/1/1 150/4/1 151/5/1
f 146/6/1 153/1/1 145/3/1
f 148/7/1 153/1/1 147/8/1
f 153/1/1 151/5/1 152/2/1
f 153/1/1 149/9/1 150/4/1
f 146/6/1 147/8/1 153/1/1
f 148/7/1 149/9/1 153/1/1
f 162/1/1 161/2/1 154/3/1
f 162/1/1 159/4/1 160/5/1
f 155/6/1 162/1/1 154/3/1
f 157/7/1 162/1/1 156/8/1
f 162/1/1 160/5/1 161/2/1
f 162/1/1 158/9/1 159/4/1
f 155/6/1 156/8/1 162/1/1
f 157/7/1 158/9/1 162/1/1
f 171/1/1 170/2/1 163/3/1
f 171/1/1 168/4/1 169/5/1
f 164/6/1 171/1/1 163/3/1
f 166/7/1 171/1/1 165/8/1
f 171/1/1 169/5/1 170/2/1
f 171/1/1 167/9/1 168/4/1
f 164/6/1 165/8/1 171/1/1
f 166/7/1 167/9/1 171/1/1
f 180/1/1 179/2/1 172/3/1
f 180/1/1 177/4/1 178/5/1
f 173/6/1 180/1/1 172/3/1
f 175/7/1 180/1/1 174/8/1
f 180/1/1 178/5/1 179/2/1
f 180/1/1 176/9/1 177/4/1
f 173/6/1 174/8/1 180/1/1
f 175/7/1 176/9/1 180/1/1
f 189/1/1 188/2/1 181/3/1
f 189/1/1 186/4/1 187/5/1
f 182/6/1 189/1/1 181/3/1
f 184/7/1 189/1/1 183/8/1
f 189/1/1 187/5/1 188/2/1
f 189/1/1 185/9/1 186/4/1
f 182/6/1 183/8/1 189/1/1
f 184/7/1 185/9/1 189/1/1
f 198/1/1 197/2/1 190/3/1
f 198/1/1 195/4/1 196/5/1
f 191/6/1 198/1/1 190/3/1
f 193/7/1 198/1/1 192/8/1
f 198/1/1 196/5/1 197/2/1
f 198/1/1 194/9/1 195/4/1
f 191/6/1 192/8/1 198/1/1
f 193/7/1 194/9/1 198/1/1
f 207/1/1 206/2/1 199/3/1
f 207/1/1 204/4/1 205/5/1
f 200/6/1 207/1/1 199/3/1
f 202/7/1 207/1/1 201/8/1
f 207/1/1 205/5/1 206/2/1
f 207/1/1 203/9/1 204/4/1
f 200/6/1 201/8/1 207/1/1
f 202/7/1 203/9/1 207/1/1
f 216/1/1 215/2/1 208/3/1
f 216/1/1 213/4/1 214/5/1
f 209/6/1 216/1/1 208/3/1
f 211/7/1 216/1/1 210/8/1
f 216/1/1 214/5/1 215/2/1
f 216/1/1 212/9/1 213/4/1
f 209/6/1 210/8/1 216/1/1
f 211/7/1 212/9/1 216/1/1
f 225/1/1 224/2/1 217/3/1
f 225/1/1 222/4/1 223/5/1
f 218/6/1 225/1/1 217/3/1
f 220/7/1 225/1/1 219/8/1
f 225/1/1 223/5/1 224/2/1
f 225/1/1 221/9/1 222/4/1
f 218/6/1 219/8/1 225/1/1
f 220/7/1 221/9/1 225/1/1
f 234/1/1 233/2/1 226/3/1
f 234/1/1 231/4/1 232/5/1
f 227/6/1 234/1/1 226/3/1
f 229/7/1 234/1/1 228/8/1
f 234/1/1 232/5/1 233/2/1
f 234/1/1 230/9/1 231/4/1
f 227/6/1 228/8/1 234/1/1
f 229/7/1 230/9/1 234/1/1
f 243/1/1 242/2/1 235/3/1
f 243/1/1 240/4/1 241/5/1
f 236/6/1 243/1/1 235/3/1
f 238/7/1 243/1/1 237/8/1
f 243/1/1 241/5/1 242/2/1
f 243/1/1 239/9/1 240/4/1
f 236/6/1 237/8/1 243/1/1
f 238/7/1 239/9/1 243/1/1
f 252/1/1 251/2/1 244/3/1
f 252/1/1 249/4/1 250/5/1
f 245/6/1 252/1/1 244/3/1
f 247/7/1 252/1/1 246/8/1
f 252/1/1 250/5/1 251/2/1
f 252/1/1 248/9/1 249/4/1
f 245/6/1 246/8/1 252/1/1
f 247/7/1 248/9/1 252/1/1
f 261/1/1 260/2/1 253/3/1
f 261/1/1 258/4/1 259/5/1
f 254/6/1 261/1/1 253/3/1
f 256/7/1 261/1/1 255/8/1
f 261/1/1 259/5/1 260/2/1
f 261/1/1 257/9/1 258/4/1
f 254/6/1 255/8/1 261/1/1
f 256/7/1 257/9/1 261/1/1
f 270/1/1 269/2/1 262/3/1
f 270/1/1 267/4/1 268/5/1
f 263/6/1 270/1/1 262/3/1
f 265/7/1 270/1/1 264/8/1
f 270/1/1 268/5/1 269/2/1
f 270/1/1 266/9/1 267/4/1
f 263/6/1 264/8/1 270/1/1
f 265/7/1 266/9/1 270/1/1
