# Blender 4.3.2
# www.blender.org
mtllib cabin_01.mtl
o Cube
v -7.298957 -0.099033 14.677685
v -7.298957 0.099033 14.677685
v -7.298957 -0.099033 -14.677685
v -7.298957 0.099033 -14.677685
v 7.298957 -0.099033 14.677685
v 7.298957 0.099033 14.677685
v 7.298957 -0.099033 -14.677685
v 7.298957 0.099033 -14.677685
v -7.711201 -0.099033 -15.089930
v -7.711201 -0.099033 15.089930
v -7.711201 0.099033 15.089930
v -7.711201 0.099033 -15.089930
v 7.711201 -0.099033 -15.089930
v 7.711201 0.099033 -15.089930
v 7.711201 -0.099033 15.089930
v 7.711201 0.099033 15.089930
v -7.711201 3.593647 15.089930
v -7.711201 3.593647 -15.089930
v 7.711201 3.593647 -15.089930
v 7.711201 3.593647 15.089930
v -7.298957 3.593647 14.677685
v -7.298957 3.593647 -14.677685
v 7.298957 3.593647 -14.677685
v 7.298957 3.593647 14.677685
v -7.711201 3.884637 15.089930
v -7.711201 3.884637 -15.089930
v 7.711201 3.884637 -15.089930
v 7.711201 3.884637 15.089930
v -7.298957 3.884637 14.677685
v -7.298957 3.884637 -14.677685
v 7.298957 3.884637 -14.677685
v 7.298957 3.884637 14.677685
v -7.711201 6.528527 15.089930
v -7.711201 6.528527 -15.089930
v 7.711201 6.528527 -15.089930
v 7.711201 6.528527 15.089930
v -7.298957 6.528527 14.677685
v -7.298957 6.528527 -14.677685
v 7.298957 6.528527 -14.677685
v 7.298957 6.528527 14.677685
v -7.711201 -0.099033 8.280191
v -7.711201 0.099033 8.280191
v 7.711201 -0.099033 8.280191
v 7.711201 0.099033 8.280191
v -7.298957 -0.099033 8.053983
v -7.298957 0.099033 8.053983
v 7.298957 -0.099033 8.053983
v 7.298957 0.099033 8.053983
v -7.711201 3.593647 8.280191
v 7.711201 3.593647 8.280191
v -7.298957 3.593647 8.053983
v 7.298957 3.593647 8.053983
v -7.711201 3.884637 8.280191
v 7.711201 3.884637 8.280191
v -7.298957 3.884637 8.053983
v 7.298957 3.884637 8.053983
v -7.711201 6.528527 8.280191
v 7.711201 6.528527 8.280191
v -7.298957 6.528527 8.053983
v 7.298957 6.528527 8.053983
vn -1.0000 -0.0000 -0.0000
vn -0.0000 -0.0000 -1.0000
vn 1.0000 -0.0000 -0.0000
vn -0.0000 -0.0000 1.0000
vn -0.0000 -1.0000 -0.0000
vn -0.0000 1.0000 -0.0000
vt 0.875627 0.398055
vt 0.872253 0.398055
vt 0.872253 0.000000
vt 0.875627 0.000000
vt 0.327255 0.776728
vt 0.323881 0.776728
vt 0.323881 0.514043
vt 0.327255 0.514043
vt 0.977243 0.115988
vt 0.973869 0.115988
vt 0.973870 -0.000000
vt 0.977243 -0.000000
vt 0.428871 0.776728
vt 0.425498 0.776728
vt 0.425498 0.514043
vt 0.428871 0.514043
vt 0.255663 0.119841
vt 0.007022 0.119841
vt 0.007022 0.007022
vt 0.255663 0.007022
vt 0.774010 0.112819
vt 0.525369 0.112819
vt 0.525369 0.000000
vt 0.774010 0.000000
vt 0.262685 0.000000
vt 0.262685 0.115988
vt 0.872253 0.514043
vt 0.872253 0.762685
vt 0.823999 0.762685
vt 0.823999 0.514043
vt 0.007022 0.507022
vt 0.255663 0.507022
vt 0.262685 0.514043
vt 0.000000 0.514043
vt 0.623612 0.887181
vt 0.623612 1.000000
vt 0.575358 1.000000
vt 0.575358 0.887181
vt 0.000000 0.115988
vt 0.973869 0.514043
vt 0.925615 0.514043
vt 0.925616 0.115988
vt 0.000000 0.000000
vt 0.970496 0.514043
vt 0.970496 0.762685
vt 0.922242 0.762685
vt 0.922242 0.514043
vt 0.917286 0.762685
vt 0.917286 0.514043
vt 0.823999 0.398055
vt 0.823999 0.514043
vt 0.819043 0.514043
vt 0.819043 0.398055
vt 0.920659 0.514043
vt 0.920659 0.115988
vt 0.673601 0.612819
vt 0.673601 1.000000
vt 0.668644 1.000000
vt 0.668644 0.612819
vt 0.721855 0.612819
vt 0.721855 1.000000
vt 0.872253 0.514043
vt 0.377244 0.776728
vt 0.377244 0.514043
vt 0.275627 0.776728
vt 0.275627 0.514043
vt 0.774010 0.514043
vt 0.774010 0.398055
vt 0.875627 0.514043
vt 0.875627 0.115988
vt 0.623612 1.000000
vt 0.623612 0.612819
vt 0.570402 0.887181
vt 0.570401 1.000000
vt 0.525369 1.000000
vt 0.525369 0.887181
vt 0.819043 0.762685
vt 0.819043 0.514043
vt 0.372287 0.776728
vt 0.372287 0.514043
vt 0.270671 0.776728
vt 0.270671 0.514043
vt 0.269706 0.119841
vt 0.269706 0.507022
vt 0.518347 0.507022
vt 0.525369 0.514043
vt 0.518347 0.119841
vt 0.518347 0.007022
vt 0.525369 0.000000
vt 0.525369 0.115988
vt 0.269706 0.007022
vt 0.872253 0.514043
vt 0.774010 0.762685
vt 0.774010 0.514043
vt 0.327255 0.776728
vt 0.225639 0.776728
vt 0.225639 0.514043
vt 0.575358 0.500000
vt 0.570402 0.500000
vt 0.525369 0.500000
vt 0.668644 0.500000
vt 0.623612 0.500000
vt 0.920659 -0.000000
vt 0.875627 -0.000000
vt 0.819043 -0.000000
vt 0.774010 -0.000000
vt 0.823999 -0.000000
vt 0.721855 0.500000
vt 0.673601 0.500000
vt 0.925616 -0.000000
vt 0.623612 0.500000
vt 0.774010 0.500000
vt 0.525369 0.500000
vt 0.977243 0.514043
vt 0.875627 0.514043
vt 0.112819 0.762685
vt -0.000000 0.762685
vt 0.000000 0.514043
vt 0.112819 0.514043
vt 0.225639 0.762685
vt 0.112819 0.762685
vt 0.112819 0.514043
vt 0.726811 0.748641
vt 0.721855 0.748641
vt 0.721855 0.500000
vt 0.726811 0.500000
s 0
f 41/1/1 42/2/1 12/3/1 9/4/1
f 9/5/2 12/6/2 14/7/2 13/8/2
f 43/9/3 44/10/3 16/11/3 15/12/3
f 15/13/4 16/14/4 11/15/4 10/16/4
f 45/17/5 47/18/5 5/19/5 1/20/5
f 48/21/6 46/22/6 2/23/6 6/24/6
f 45/17/5 1/20/5 10/25/5 41/26/5
f 4/27/4 8/28/4 23/29/4 22/30/4
f 7/31/5 3/32/5 9/33/5 13/34/5
f 48/35/1 6/36/1 24/37/1 52/38/1
f 47/18/5 7/31/5 13/34/5 43/39/5
f 44/10/3 14/40/3 19/41/3 50/42/3
f 1/20/5 5/19/5 15/43/5 10/25/5
f 6/44/2 2/45/2 21/46/2 24/47/2
f 24/47/2 21/46/2 29/48/2 32/49/2
f 49/50/1 17/51/1 25/52/1 53/53/1
f 50/42/3 19/41/3 27/54/3 54/55/3
f 51/56/3 22/57/3 30/58/3 55/59/3
f 46/60/3 4/61/3 22/57/3 51/56/3
f 42/2/1 11/62/1 17/51/1 49/50/1
f 11/15/4 16/14/4 20/63/4 17/64/4
f 14/7/2 12/6/2 18/65/2 19/66/2
f 53/53/1 25/52/1 33/67/1 57/68/1
f 54/55/3 27/54/3 35/69/3 58/70/3
f 55/59/3 30/58/3 38/71/3 59/72/3
f 56/73/1 32/74/1 40/75/1 60/76/1
f 22/30/4 23/29/4 31/77/4 30/78/4
f 17/64/4 20/63/4 28/79/4 25/80/4
f 19/66/2 18/65/2 26/81/2 27/82/2
f 52/38/1 24/37/1 32/74/1 56/73/1
f 59/83/6 38/84/6 34/33/6 57/26/6
f 38/84/6 39/85/6 35/86/6 34/33/6
f 60/87/6 40/88/6 36/89/6 58/90/6
f 40/88/6 37/91/6 33/25/6 36/89/6
f 32/49/2 29/48/2 37/28/2 40/92/2
f 30/78/4 31/77/4 39/93/4 38/94/4
f 25/80/4 28/79/4 36/95/4 33/8/4
f 27/82/2 26/81/2 34/96/2 35/97/2
f 39/85/6 60/87/6 58/90/6 35/86/6
f 37/91/6 59/83/6 57/26/6 33/25/6
f 23/98/1 52/38/1 56/73/1 31/99/1
f 31/99/1 56/73/1 60/76/1 39/100/1
f 29/101/3 55/59/3 59/72/3 37/102/3
f 28/103/3 54/55/3 58/70/3 36/104/3
f 26/105/1 53/53/1 57/68/1 34/106/1
f 12/3/1 42/2/1 49/50/1 18/107/1
f 2/108/3 46/60/3 51/56/3 21/109/3
f 21/109/3 51/56/3 55/59/3 29/101/3
f 20/110/3 50/42/3 54/55/3 28/103/3
f 18/107/1 49/50/1 53/53/1 26/105/1
f 16/11/3 44/10/3 50/42/3 20/110/3
f 5/19/5 47/18/5 43/39/5 15/43/5
f 8/111/1 48/35/1 52/38/1 23/98/1
f 3/32/5 45/17/5 41/26/5 9/33/5
f 8/112/6 4/113/6 46/22/6 48/21/6
f 3/32/5 7/31/5 47/18/5 45/17/5
f 13/114/3 14/40/3 44/10/3 43/9/3
f 10/115/1 11/62/1 42/2/1 41/1/1
f 52/116/5 24/117/5 21/118/5 51/119/5
f 55/120/6 29/121/6 32/122/6 56/97/6
f 51/123/2 55/124/2 56/125/2 52/126/2
